<svg width="360" height="824" viewBox="0 0 360 824" fill="none" xmlns="http://www.w3.org/2000/svg">
<g clip-path="url(#clip0_2522_6338)">
<rect width="360" height="824" fill="#140D52"/>
<path opacity="0.2" d="M-75.3305 473.071C-75.91 469.767 -61.6989 419.166 -13.8802 373.977C29.0337 333.466 115.879 304.679 207.302 322.631C305.256 341.872 394.077 336.595 467.815 321.639C540.596 306.84 592.852 277.505 617.256 259.614C670.189 220.932 734.083 236.034 701.182 283.572C685.717 305.7 654.789 314.316 602.784 321.215C548.424 328.426 469.743 330.842 357.317 350.829C248.886 370.141 124.444 404.106 51.2315 439.559C-26.6894 477.315 -70.7167 501.941 -75.3305 473.071Z" fill="#D9DCE1"/>
<g clip-path="url(#clip1_2522_6338)">
<path d="M301.977 70.9228C303.059 70.9243 303.938 70.048 303.94 68.9656C303.941 67.8831 303.065 67.0043 301.982 67.0028C300.9 67.0012 300.021 67.8775 300.02 68.96C300.018 70.0425 300.894 70.9212 301.977 70.9228Z" fill="#D2CCFF"/>
<path d="M301.96 78.8483C303.043 78.8498 303.921 77.9736 303.923 76.8911C303.924 75.8086 303.048 74.9299 301.966 74.9283C300.883 74.9268 300.004 75.8031 300.003 76.8855C300.001 77.968 300.878 78.8468 301.96 78.8483Z" fill="#D2CCFF"/>
<path d="M309.902 70.934C310.985 70.9355 311.864 70.0593 311.865 68.9768C311.867 67.8943 310.99 67.0155 309.908 67.014C308.826 67.0125 307.947 67.8888 307.945 68.9712C307.944 70.0537 308.82 70.9325 309.902 70.934Z" fill="#D2CCFF"/>
<path d="M309.886 78.8595C310.968 78.8611 311.847 77.9848 311.848 76.9023C311.85 75.8198 310.974 74.9411 309.891 74.9395C308.809 74.938 307.93 75.8143 307.928 76.8968C307.927 77.9792 308.803 78.858 309.886 78.8595Z" fill="#D2CCFF"/>
<path d="M317.829 70.9452C318.912 70.9468 319.79 70.0705 319.792 68.988C319.794 67.9055 318.917 67.0268 317.835 67.0252C316.752 67.0237 315.874 67.9 315.872 68.9825C315.87 70.0649 316.747 70.9437 317.829 70.9452Z" fill="#D2CCFF"/>
<path d="M317.811 78.8708C318.894 78.8723 319.773 77.996 319.774 76.9136C319.776 75.8311 318.899 74.9523 317.817 74.9508C316.734 74.9492 315.856 75.8255 315.854 76.908C315.853 77.9905 316.729 78.8692 317.811 78.8708Z" fill="#D2CCFF"/>
<path d="M325.756 70.9565C326.838 70.958 327.717 70.0817 327.719 68.9992C327.72 67.9168 326.844 67.038 325.762 67.0365C324.679 67.0349 323.8 67.9112 323.799 68.9937C323.797 70.0762 324.673 70.9549 325.756 70.9565Z" fill="#D2CCFF"/>
<path d="M325.738 78.882C326.821 78.8835 327.699 78.0073 327.701 76.9248C327.702 75.8423 326.826 74.9635 325.744 74.962C324.661 74.9605 323.782 75.8367 323.781 76.9192C323.779 78.0017 324.656 78.8805 325.738 78.882Z" fill="#D2CCFF"/>
<path d="M333.682 70.9677C334.765 70.9692 335.644 70.093 335.645 69.0105C335.647 67.928 334.771 67.0492 333.688 67.0477C332.606 67.0462 331.727 67.9224 331.725 69.0049C331.724 70.0874 332.6 70.9662 333.682 70.9677Z" fill="#D2CCFF"/>
<path d="M333.665 78.8932C334.747 78.8948 335.626 78.0185 335.627 76.936C335.629 75.8535 334.753 74.9748 333.67 74.9732C332.588 74.9717 331.709 75.848 331.707 76.9305C331.706 78.0129 332.582 78.8917 333.665 78.8932Z" fill="#D2CCFF"/>
<path d="M341.609 70.9789C342.692 70.9805 343.57 70.1042 343.572 69.0217C343.574 67.9392 342.697 67.0605 341.615 67.0589C340.532 67.0574 339.654 67.9337 339.652 69.0162C339.65 70.0986 340.527 70.9774 341.609 70.9789Z" fill="#D2CCFF"/>
<path d="M341.591 78.9045C342.674 78.906 343.553 78.0297 343.554 76.9472C343.556 75.8648 342.679 74.986 341.597 74.9845C340.514 74.9829 339.636 75.8592 339.634 76.9417C339.633 78.0242 340.509 78.9029 341.591 78.9045Z" fill="#D2CCFF"/>
<path d="M349.536 70.9902C350.618 70.9917 351.497 70.1154 351.499 69.0329C351.5 67.9505 350.624 67.0717 349.541 67.0702C348.459 67.0686 347.58 67.9449 347.579 69.0274C347.577 70.1099 348.453 70.9886 349.536 70.9902Z" fill="#D2CCFF"/>
<path d="M349.518 78.9157C350.6 78.9172 351.479 78.041 351.481 76.9585C351.482 75.876 350.606 74.9972 349.523 74.9957C348.441 74.9942 347.562 75.8704 347.561 76.9529C347.559 78.0354 348.435 78.9142 349.518 78.9157Z" fill="#D2CCFF"/>
</g>
<g clip-path="url(#clip2_2522_6338)">
<path d="M301.977 86.8412C303.059 86.8428 303.938 85.9665 303.94 84.884C303.941 83.8015 303.065 82.9228 301.982 82.9212C300.9 82.9197 300.021 83.796 300.02 84.8785C300.018 85.9609 300.894 86.8397 301.977 86.8412Z" fill="#D2CCFF"/>
<path d="M301.96 94.7668C303.043 94.7683 303.921 93.892 303.923 92.8096C303.924 91.7271 303.048 90.8483 301.966 90.8468C300.883 90.8452 300.004 91.7215 300.003 92.804C300.001 93.8865 300.878 94.7652 301.96 94.7668Z" fill="#D2CCFF"/>
<path d="M309.902 86.8525C310.985 86.854 311.864 85.9777 311.865 84.8952C311.867 83.8128 310.99 82.934 309.908 82.9325C308.826 82.9309 307.947 83.8072 307.945 84.8897C307.944 85.9722 308.82 86.8509 309.902 86.8525Z" fill="#D2CCFF"/>
<path d="M309.886 94.778C310.968 94.7795 311.847 93.9033 311.848 92.8208C311.85 91.7383 310.974 90.8595 309.891 90.858C308.809 90.8565 307.93 91.7327 307.928 92.8152C307.927 93.8977 308.803 94.7765 309.886 94.778Z" fill="#D2CCFF"/>
<path d="M317.829 86.8637C318.912 86.8652 319.79 85.989 319.792 84.9065C319.794 83.824 318.917 82.9452 317.835 82.9437C316.752 82.9422 315.874 83.8184 315.872 84.9009C315.87 85.9834 316.747 86.8622 317.829 86.8637Z" fill="#D2CCFF"/>
<path d="M317.811 94.7892C318.894 94.7908 319.773 93.9145 319.774 92.832C319.776 91.7495 318.899 90.8708 317.817 90.8692C316.734 90.8677 315.856 91.744 315.854 92.8265C315.853 93.9089 316.729 94.7877 317.811 94.7892Z" fill="#D2CCFF"/>
<path d="M325.756 86.8749C326.838 86.8765 327.717 86.0002 327.719 84.9177C327.72 83.8352 326.844 82.9565 325.762 82.9549C324.679 82.9534 323.8 83.8297 323.799 84.9121C323.797 85.9946 324.673 86.8734 325.756 86.8749Z" fill="#D2CCFF"/>
<path d="M325.738 94.8005C326.821 94.802 327.699 93.9257 327.701 92.8432C327.702 91.7608 326.826 90.882 325.744 90.8805C324.661 90.8789 323.782 91.7552 323.781 92.8377C323.779 93.9202 324.656 94.7989 325.738 94.8005Z" fill="#D2CCFF"/>
<path d="M333.682 86.8862C334.765 86.8877 335.644 86.0114 335.645 84.9289C335.647 83.8465 334.771 82.9677 333.688 82.9662C332.606 82.9646 331.727 83.8409 331.725 84.9234C331.724 86.0059 332.6 86.8846 333.682 86.8862Z" fill="#D2CCFF"/>
<path d="M333.665 94.8117C334.747 94.8132 335.626 93.9369 335.627 92.8545C335.629 91.772 334.753 90.8932 333.67 90.8917C332.588 90.8902 331.709 91.7664 331.707 92.8489C331.706 93.9314 332.582 94.8102 333.665 94.8117Z" fill="#D2CCFF"/>
<path d="M341.609 86.8974C342.692 86.8989 343.57 86.0226 343.572 84.9402C343.574 83.8577 342.697 82.9789 341.615 82.9774C340.532 82.9759 339.654 83.8521 339.652 84.9346C339.65 86.0171 340.527 86.8958 341.609 86.8974Z" fill="#D2CCFF"/>
<path d="M341.591 94.8229C342.674 94.8245 343.553 93.9482 343.554 92.8657C343.556 91.7832 342.679 90.9045 341.597 90.9029C340.514 90.9014 339.636 91.7777 339.634 92.8601C339.633 93.9426 340.509 94.8214 341.591 94.8229Z" fill="#D2CCFF"/>
<path d="M349.536 86.9086C350.618 86.9101 351.497 86.0339 351.499 84.9514C351.5 83.8689 350.624 82.9902 349.541 82.9886C348.459 82.9871 347.58 83.8634 347.579 84.9458C347.577 86.0283 348.453 86.9071 349.536 86.9086Z" fill="#D2CCFF"/>
<path d="M349.518 94.8342C350.6 94.8357 351.479 93.9594 351.481 92.8769C351.482 91.7945 350.606 90.9157 349.523 90.9142C348.441 90.9126 347.562 91.7889 347.561 92.8714C347.559 93.9539 348.435 94.8326 349.518 94.8342Z" fill="#D2CCFF"/>
</g>
<g clip-path="url(#clip3_2522_6338)">
<path d="M301.977 102.76C303.059 102.761 303.938 101.885 303.94 100.803C303.941 99.7202 303.065 98.8415 301.982 98.8399C300.9 98.8384 300.021 99.7147 300.02 100.797C300.018 101.88 300.894 102.758 301.977 102.76Z" fill="#D2CCFF"/>
<path d="M301.96 110.685C303.043 110.687 303.921 109.811 303.923 108.728C303.924 107.646 303.048 106.767 301.966 106.765C300.883 106.764 300.004 107.64 300.003 108.723C300.001 109.805 300.878 110.684 301.96 110.685Z" fill="#D2CCFF"/>
<path d="M309.902 102.771C310.985 102.773 311.864 101.896 311.865 100.814C311.867 99.7315 310.99 98.8527 309.908 98.8512C308.826 98.8496 307.947 99.7259 307.945 100.808C307.944 101.891 308.82 102.77 309.902 102.771Z" fill="#D2CCFF"/>
<path d="M309.886 110.697C310.968 110.698 311.847 109.822 311.848 108.739C311.85 107.657 310.974 106.778 309.891 106.777C308.809 106.775 307.93 107.651 307.928 108.734C307.927 109.816 308.803 110.695 309.886 110.697Z" fill="#D2CCFF"/>
<path d="M317.829 102.782C318.912 102.784 319.79 101.908 319.792 100.825C319.794 99.7427 318.917 98.8639 317.835 98.8624C316.752 98.8609 315.874 99.7371 315.872 100.82C315.87 101.902 316.747 102.781 317.829 102.782Z" fill="#D2CCFF"/>
<path d="M317.811 110.708C318.894 110.709 319.773 109.833 319.774 108.751C319.776 107.668 318.899 106.789 317.817 106.788C316.734 106.786 315.856 107.663 315.854 108.745C315.853 109.828 316.729 110.706 317.811 110.708Z" fill="#D2CCFF"/>
<path d="M325.756 102.794C326.838 102.795 327.717 101.919 327.719 100.836C327.72 99.7539 326.844 98.8752 325.762 98.8736C324.679 98.8721 323.8 99.7484 323.799 100.831C323.797 101.913 324.673 102.792 325.756 102.794Z" fill="#D2CCFF"/>
<path d="M325.738 110.719C326.821 110.721 327.699 109.844 327.701 108.762C327.702 107.679 326.826 106.801 325.744 106.799C324.661 106.798 323.782 107.674 323.781 108.756C323.779 109.839 324.656 110.718 325.738 110.719Z" fill="#D2CCFF"/>
<path d="M333.682 102.805C334.765 102.806 335.644 101.93 335.645 100.848C335.647 99.7652 334.771 98.8864 333.688 98.8849C332.606 98.8833 331.727 99.7596 331.725 100.842C331.724 101.925 332.6 102.803 333.682 102.805Z" fill="#D2CCFF"/>
<path d="M333.665 110.73C334.747 110.732 335.626 109.856 335.627 108.773C335.629 107.691 334.753 106.812 333.67 106.81C332.588 106.809 331.709 107.685 331.707 108.768C331.706 109.85 332.582 110.729 333.665 110.73Z" fill="#D2CCFF"/>
<path d="M341.609 102.816C342.692 102.818 343.57 101.941 343.572 100.859C343.574 99.7764 342.697 98.8976 341.615 98.8961C340.532 98.8946 339.654 99.7708 339.652 100.853C339.65 101.936 340.527 102.815 341.609 102.816Z" fill="#D2CCFF"/>
<path d="M341.591 110.742C342.674 110.743 343.553 109.867 343.554 108.784C343.556 107.702 342.679 106.823 341.597 106.822C340.514 106.82 339.636 107.696 339.634 108.779C339.633 109.861 340.509 110.74 341.591 110.742Z" fill="#D2CCFF"/>
<path d="M349.536 102.827C350.618 102.829 351.497 101.953 351.499 100.87C351.5 99.7876 350.624 98.9089 349.541 98.9073C348.459 98.9058 347.58 99.7821 347.579 100.865C347.577 101.947 348.453 102.826 349.536 102.827Z" fill="#D2CCFF"/>
<path d="M349.518 110.753C350.6 110.754 351.479 109.878 351.481 108.796C351.482 107.713 350.606 106.834 349.523 106.833C348.441 106.831 347.562 107.708 347.561 108.79C347.559 109.873 348.435 110.751 349.518 110.753Z" fill="#D2CCFF"/>
</g>
<g clip-path="url(#clip4_2522_6338)">
<path d="M301.977 118.678C303.059 118.68 303.938 117.804 303.94 116.721C303.941 115.639 303.065 114.76 301.982 114.758C300.9 114.757 300.021 115.633 300.02 116.716C300.018 117.798 300.894 118.677 301.977 118.678Z" fill="#D2CCFF"/>
<path d="M301.96 126.604C303.043 126.605 303.921 125.729 303.923 124.647C303.924 123.564 303.048 122.685 301.966 122.684C300.883 122.682 300.004 123.559 300.003 124.641C300.001 125.724 300.878 126.602 301.96 126.604Z" fill="#D2CCFF"/>
<path d="M309.902 118.69C310.985 118.691 311.864 117.815 311.865 116.732C311.867 115.65 310.99 114.771 309.908 114.77C308.826 114.768 307.947 115.644 307.945 116.727C307.944 117.809 308.82 118.688 309.902 118.69Z" fill="#D2CCFF"/>
<path d="M309.886 126.615C310.968 126.617 311.847 125.74 311.848 124.658C311.85 123.575 310.974 122.697 309.891 122.695C308.809 122.694 307.93 123.57 307.928 124.652C307.927 125.735 308.803 126.614 309.886 126.615Z" fill="#D2CCFF"/>
<path d="M317.829 118.701C318.912 118.702 319.79 117.826 319.792 116.744C319.794 115.661 318.917 114.782 317.835 114.781C316.752 114.779 315.874 115.656 315.872 116.738C315.87 117.821 316.747 118.699 317.829 118.701Z" fill="#D2CCFF"/>
<path d="M317.811 126.626C318.894 126.628 319.773 125.752 319.774 124.669C319.776 123.587 318.899 122.708 317.817 122.706C316.734 122.705 315.856 123.581 315.854 124.664C315.853 125.746 316.729 126.625 317.811 126.626Z" fill="#D2CCFF"/>
<path d="M325.756 118.712C326.838 118.714 327.717 117.837 327.719 116.755C327.72 115.672 326.844 114.794 325.762 114.792C324.679 114.791 323.8 115.667 323.799 116.749C323.797 117.832 324.673 118.711 325.756 118.712Z" fill="#D2CCFF"/>
<path d="M325.738 126.638C326.821 126.639 327.699 125.763 327.701 124.68C327.702 123.598 326.826 122.719 325.744 122.718C324.661 122.716 323.782 123.592 323.781 124.675C323.779 125.757 324.656 126.636 325.738 126.638Z" fill="#D2CCFF"/>
<path d="M333.682 118.723C334.765 118.725 335.644 117.849 335.645 116.766C335.647 115.684 334.771 114.805 333.688 114.803C332.606 114.802 331.727 115.678 331.725 116.761C331.724 117.843 332.6 118.722 333.682 118.723Z" fill="#D2CCFF"/>
<path d="M333.665 126.649C334.747 126.65 335.626 125.774 335.627 124.692C335.629 123.609 334.753 122.73 333.67 122.729C332.588 122.727 331.709 123.604 331.707 124.686C331.706 125.769 332.582 126.647 333.665 126.649Z" fill="#D2CCFF"/>
<path d="M341.609 118.735C342.692 118.736 343.57 117.86 343.572 116.777C343.574 115.695 342.697 114.816 341.615 114.815C340.532 114.813 339.654 115.689 339.652 116.772C339.65 117.854 340.527 118.733 341.609 118.735Z" fill="#D2CCFF"/>
<path d="M341.591 126.66C342.674 126.662 343.553 125.785 343.554 124.703C343.556 123.62 342.679 122.742 341.597 122.74C340.514 122.739 339.636 123.615 339.634 124.697C339.633 125.78 340.509 126.659 341.591 126.66Z" fill="#D2CCFF"/>
<path d="M349.536 118.746C350.618 118.747 351.497 117.871 351.499 116.789C351.5 115.706 350.624 114.827 349.541 114.826C348.459 114.824 347.58 115.701 347.579 116.783C347.577 117.865 348.453 118.744 349.536 118.746Z" fill="#D2CCFF"/>
<path d="M349.518 126.671C350.6 126.673 351.479 125.797 351.481 124.714C351.482 123.632 350.606 122.753 349.523 122.751C348.441 122.75 347.562 123.626 347.561 124.709C347.559 125.791 348.435 126.67 349.518 126.671Z" fill="#D2CCFF"/>
</g>
<g clip-path="url(#clip5_2522_6338)">
<path d="M10.9769 748.923C12.0594 748.924 12.9381 748.048 12.9397 746.966C12.9412 745.883 12.0649 745.004 10.9825 745.003C9.89998 745.001 9.02122 745.878 9.01968 746.96C9.01815 748.042 9.89442 748.921 10.9769 748.923Z" fill="#D2CCFF"/>
<path d="M10.9601 756.848C12.0425 756.85 12.9213 755.974 12.9228 754.891C12.9244 753.809 12.0481 752.93 10.9656 752.928C9.88314 752.927 9.00437 753.803 9.00284 754.886C9.0013 755.968 9.87758 756.847 10.9601 756.848Z" fill="#D2CCFF"/>
<path d="M18.9024 748.934C19.9849 748.936 20.8637 748.059 20.8652 746.977C20.8667 745.894 19.9905 745.016 18.908 745.014C17.8255 745.012 16.9468 745.889 16.9452 746.971C16.9437 748.054 17.82 748.932 18.9024 748.934Z" fill="#D2CCFF"/>
<path d="M18.8856 756.86C19.9681 756.861 20.8468 755.985 20.8484 754.902C20.8499 753.82 19.9736 752.941 18.8912 752.94C17.8087 752.938 16.9299 753.814 16.9284 754.897C16.9268 755.979 17.8031 756.858 18.8856 756.86Z" fill="#D2CCFF"/>
<path d="M26.8292 748.945C27.9117 748.947 28.7904 748.07 28.792 746.988C28.7935 745.906 27.9172 745.027 26.8348 745.025C25.7523 745.024 24.8735 745.9 24.872 746.982C24.8704 748.065 25.7467 748.944 26.8292 748.945Z" fill="#D2CCFF"/>
<path d="M26.8114 756.871C27.8938 756.872 28.7726 755.996 28.7742 754.914C28.7757 753.831 27.8994 752.952 26.8169 752.951C25.7345 752.949 24.8557 753.826 24.8542 754.908C24.8526 755.99 25.7289 756.869 26.8114 756.871Z" fill="#D2CCFF"/>
<path d="M34.756 748.956C35.8384 748.958 36.7172 748.082 36.7187 746.999C36.7203 745.917 35.844 745.038 34.7615 745.036C33.679 745.035 32.8003 745.911 32.7987 746.994C32.7972 748.076 33.6735 748.955 34.756 748.956Z" fill="#D2CCFF"/>
<path d="M34.7381 756.882C35.8206 756.884 36.6994 756.007 36.7009 754.925C36.7024 753.842 35.8262 752.964 34.7437 752.962C33.6612 752.96 32.7824 753.837 32.7809 754.919C32.7794 756.002 33.6557 756.88 34.7381 756.882Z" fill="#D2CCFF"/>
<path d="M42.6825 748.968C43.7649 748.969 44.6437 748.093 44.6452 747.01C44.6468 745.928 43.7705 745.049 42.688 745.048C41.6055 745.046 40.7268 745.922 40.7252 747.005C40.7237 748.087 41.6 748.966 42.6825 748.968Z" fill="#D2CCFF"/>
<path d="M42.6646 756.893C43.7471 756.895 44.6259 756.018 44.6274 754.936C44.629 753.854 43.7527 752.975 42.6702 752.973C41.5877 752.972 40.709 753.848 40.7074 754.93C40.7059 756.013 41.5822 756.892 42.6646 756.893Z" fill="#D2CCFF"/>
<path d="M50.6092 748.979C51.6917 748.98 52.5705 748.104 52.572 747.022C52.5735 745.939 51.6973 745.06 50.6148 745.059C49.5323 745.057 48.6535 745.934 48.652 747.016C48.6505 748.099 49.5267 748.977 50.6092 748.979Z" fill="#D2CCFF"/>
<path d="M50.5914 756.904C51.6739 756.906 52.5526 756.03 52.5542 754.947C52.5557 753.865 51.6794 752.986 50.597 752.984C49.5145 752.983 48.6357 753.859 48.6342 754.942C48.6326 756.024 49.5089 756.903 50.5914 756.904Z" fill="#D2CCFF"/>
<path d="M58.5357 748.99C59.6182 748.992 60.497 748.115 60.4985 747.033C60.5 745.95 59.6238 745.072 58.5413 745.07C57.4588 745.069 56.5801 745.945 56.5785 747.027C56.577 748.11 57.4533 748.989 58.5357 748.99Z" fill="#D2CCFF"/>
<path d="M58.5179 756.916C59.6004 756.917 60.4792 756.041 60.4807 754.958C60.4822 753.876 59.606 752.997 58.5235 752.996C57.441 752.994 56.5622 753.87 56.5607 754.953C56.5592 756.035 57.4354 756.914 58.5179 756.916Z" fill="#D2CCFF"/>
</g>
<g clip-path="url(#clip6_2522_6338)">
<path d="M10.9769 764.841C12.0594 764.843 12.9381 763.966 12.9397 762.884C12.9412 761.802 12.0649 760.923 10.9825 760.921C9.89998 760.92 9.02122 761.796 9.01968 762.878C9.01815 763.961 9.89442 764.84 10.9769 764.841Z" fill="#D2CCFF"/>
<path d="M10.9601 772.767C12.0425 772.768 12.9213 771.892 12.9228 770.81C12.9244 769.727 12.0481 768.848 10.9656 768.847C9.88314 768.845 9.00437 769.722 9.00284 770.804C9.0013 771.886 9.87758 772.765 10.9601 772.767Z" fill="#D2CCFF"/>
<path d="M18.9024 764.852C19.9849 764.854 20.8637 763.978 20.8652 762.895C20.8667 761.813 19.9905 760.934 18.908 760.932C17.8255 760.931 16.9468 761.807 16.9452 762.89C16.9437 763.972 17.82 764.851 18.9024 764.852Z" fill="#D2CCFF"/>
<path d="M18.8856 772.778C19.9681 772.78 20.8468 771.903 20.8484 770.821C20.8499 769.738 19.9736 768.86 18.8912 768.858C17.8087 768.856 16.9299 769.733 16.9284 770.815C16.9268 771.898 17.8031 772.776 18.8856 772.778Z" fill="#D2CCFF"/>
<path d="M26.8292 764.864C27.9117 764.865 28.7904 763.989 28.792 762.906C28.7935 761.824 27.9172 760.945 26.8348 760.944C25.7523 760.942 24.8735 761.818 24.872 762.901C24.8704 763.983 25.7467 764.862 26.8292 764.864Z" fill="#D2CCFF"/>
<path d="M26.8114 772.789C27.8938 772.791 28.7726 771.914 28.7742 770.832C28.7757 769.75 27.8994 768.871 26.8169 768.869C25.7345 768.868 24.8557 769.744 24.8542 770.826C24.8526 771.909 25.7289 772.788 26.8114 772.789Z" fill="#D2CCFF"/>
<path d="M34.756 764.875C35.8384 764.876 36.7172 764 36.7187 762.918C36.7203 761.835 35.844 760.956 34.7615 760.955C33.679 760.953 32.8003 761.83 32.7987 762.912C32.7972 763.995 33.6735 764.873 34.756 764.875Z" fill="#D2CCFF"/>
<path d="M34.7381 772.8C35.8206 772.802 36.6994 771.926 36.7009 770.843C36.7024 769.761 35.8262 768.882 34.7437 768.88C33.6612 768.879 32.7824 769.755 32.7809 770.838C32.7794 771.92 33.6557 772.799 34.7381 772.8Z" fill="#D2CCFF"/>
<path d="M42.6825 764.886C43.7649 764.888 44.6437 764.011 44.6452 762.929C44.6468 761.846 43.7705 760.968 42.688 760.966C41.6055 760.965 40.7268 761.841 40.7252 762.923C40.7237 764.006 41.6 764.885 42.6825 764.886Z" fill="#D2CCFF"/>
<path d="M42.6646 772.812C43.7471 772.813 44.6259 771.937 44.6274 770.854C44.629 769.772 43.7527 768.893 42.6702 768.892C41.5877 768.89 40.709 769.766 40.7074 770.849C40.7059 771.931 41.5822 772.81 42.6646 772.812Z" fill="#D2CCFF"/>
<path d="M50.6092 764.897C51.6917 764.899 52.5705 764.023 52.572 762.94C52.5735 761.858 51.6973 760.979 50.6148 760.977C49.5323 760.976 48.6535 761.852 48.652 762.935C48.6505 764.017 49.5267 764.896 50.6092 764.897Z" fill="#D2CCFF"/>
<path d="M50.5914 772.823C51.6739 772.824 52.5526 771.948 52.5542 770.866C52.5557 769.783 51.6794 768.904 50.597 768.903C49.5145 768.901 48.6357 769.778 48.6342 770.86C48.6326 771.943 49.5089 772.821 50.5914 772.823Z" fill="#D2CCFF"/>
<path d="M58.5357 764.909C59.6182 764.91 60.497 764.034 60.4985 762.951C60.5 761.869 59.6238 760.99 58.5413 760.989C57.4588 760.987 56.5801 761.863 56.5785 762.946C56.577 764.028 57.4533 764.907 58.5357 764.909Z" fill="#D2CCFF"/>
<path d="M58.5179 772.834C59.6004 772.836 60.4792 771.959 60.4807 770.877C60.4822 769.794 59.606 768.916 58.5235 768.914C57.441 768.913 56.5622 769.789 56.5607 770.871C56.5592 771.954 57.4354 772.833 58.5179 772.834Z" fill="#D2CCFF"/>
</g>
<g clip-path="url(#clip7_2522_6338)">
<path d="M10.9769 780.76C12.0594 780.761 12.9381 779.885 12.9397 778.803C12.9412 777.72 12.0649 776.841 10.9825 776.84C9.89998 776.838 9.02122 777.715 9.01968 778.797C9.01815 779.88 9.89442 780.758 10.9769 780.76Z" fill="#D2CCFF"/>
<path d="M10.9601 788.685C12.0425 788.687 12.9213 787.811 12.9228 786.728C12.9244 785.646 12.0481 784.767 10.9656 784.765C9.88314 784.764 9.00437 785.64 9.00284 786.723C9.0013 787.805 9.87758 788.684 10.9601 788.685Z" fill="#D2CCFF"/>
<path d="M18.9024 780.771C19.9849 780.773 20.8637 779.896 20.8652 778.814C20.8667 777.731 19.9905 776.853 18.908 776.851C17.8255 776.85 16.9468 777.726 16.9452 778.808C16.9437 779.891 17.82 780.77 18.9024 780.771Z" fill="#D2CCFF"/>
<path d="M18.8856 788.697C19.9681 788.698 20.8468 787.822 20.8484 786.739C20.8499 785.657 19.9736 784.778 18.8912 784.777C17.8087 784.775 16.9299 785.651 16.9284 786.734C16.9268 787.816 17.8031 788.695 18.8856 788.697Z" fill="#D2CCFF"/>
<path d="M26.8292 780.782C27.9117 780.784 28.7904 779.908 28.792 778.825C28.7935 777.743 27.9172 776.864 26.8348 776.862C25.7523 776.861 24.8735 777.737 24.872 778.82C24.8704 779.902 25.7467 780.781 26.8292 780.782Z" fill="#D2CCFF"/>
<path d="M26.8114 788.708C27.8938 788.709 28.7726 787.833 28.7742 786.751C28.7757 785.668 27.8994 784.789 26.8169 784.788C25.7345 784.786 24.8557 785.663 24.8542 786.745C24.8526 787.828 25.7289 788.706 26.8114 788.708Z" fill="#D2CCFF"/>
<path d="M34.756 780.794C35.8384 780.795 36.7172 779.919 36.7187 778.836C36.7203 777.754 35.844 776.875 34.7615 776.874C33.679 776.872 32.8003 777.748 32.7987 778.831C32.7972 779.913 33.6735 780.792 34.756 780.794Z" fill="#D2CCFF"/>
<path d="M34.7381 788.719C35.8206 788.721 36.6994 787.844 36.7009 786.762C36.7024 785.679 35.8262 784.801 34.7437 784.799C33.6612 784.798 32.7824 785.674 32.7809 786.756C32.7794 787.839 33.6557 788.718 34.7381 788.719Z" fill="#D2CCFF"/>
<path d="M42.6825 780.805C43.7649 780.806 44.6437 779.93 44.6452 778.848C44.6468 777.765 43.7705 776.886 42.688 776.885C41.6055 776.883 40.7268 777.76 40.7252 778.842C40.7237 779.925 41.6 780.803 42.6825 780.805Z" fill="#D2CCFF"/>
<path d="M42.6646 788.73C43.7471 788.732 44.6259 787.856 44.6274 786.773C44.629 785.691 43.7527 784.812 42.6702 784.81C41.5877 784.809 40.709 785.685 40.7074 786.768C40.7059 787.85 41.5822 788.729 42.6646 788.73Z" fill="#D2CCFF"/>
<path d="M50.6092 780.816C51.6917 780.818 52.5705 779.941 52.572 778.859C52.5735 777.776 51.6973 776.898 50.6148 776.896C49.5323 776.895 48.6535 777.771 48.652 778.853C48.6505 779.936 49.5267 780.815 50.6092 780.816Z" fill="#D2CCFF"/>
<path d="M50.5914 788.742C51.6739 788.743 52.5526 787.867 52.5542 786.784C52.5557 785.702 51.6794 784.823 50.597 784.822C49.5145 784.82 48.6357 785.696 48.6342 786.779C48.6326 787.861 49.5089 788.74 50.5914 788.742Z" fill="#D2CCFF"/>
<path d="M58.5357 780.827C59.6182 780.829 60.497 779.953 60.4985 778.87C60.5 777.788 59.6238 776.909 58.5413 776.907C57.4588 776.906 56.5801 777.782 56.5785 778.865C56.577 779.947 57.4533 780.826 58.5357 780.827Z" fill="#D2CCFF"/>
<path d="M58.5179 788.753C59.6004 788.754 60.4792 787.878 60.4807 786.796C60.4822 785.713 59.606 784.834 58.5235 784.833C57.441 784.831 56.5622 785.708 56.5607 786.79C56.5592 787.873 57.4354 788.751 58.5179 788.753Z" fill="#D2CCFF"/>
</g>
<g clip-path="url(#clip8_2522_6338)">
<path d="M10.9769 796.678C12.0594 796.68 12.9381 795.804 12.9397 794.721C12.9412 793.639 12.0649 792.76 10.9825 792.758C9.89998 792.757 9.02122 793.633 9.01968 794.716C9.01815 795.798 9.89442 796.677 10.9769 796.678Z" fill="#D2CCFF"/>
<path d="M10.9601 804.604C12.0425 804.605 12.9213 803.729 12.9228 802.647C12.9244 801.564 12.0481 800.685 10.9656 800.684C9.88314 800.682 9.00437 801.559 9.00284 802.641C9.0013 803.724 9.87758 804.602 10.9601 804.604Z" fill="#D2CCFF"/>
<path d="M18.9024 796.69C19.9849 796.691 20.8637 795.815 20.8652 794.732C20.8667 793.65 19.9905 792.771 18.908 792.77C17.8255 792.768 16.9468 793.644 16.9452 794.727C16.9437 795.809 17.82 796.688 18.9024 796.69Z" fill="#D2CCFF"/>
<path d="M18.8856 804.615C19.9681 804.617 20.8468 803.74 20.8484 802.658C20.8499 801.575 19.9736 800.697 18.8912 800.695C17.8087 800.694 16.9299 801.57 16.9284 802.652C16.9268 803.735 17.8031 804.614 18.8856 804.615Z" fill="#D2CCFF"/>
<path d="M26.8292 796.701C27.9117 796.702 28.7904 795.826 28.792 794.744C28.7935 793.661 27.9172 792.782 26.8348 792.781C25.7523 792.779 24.8735 793.656 24.872 794.738C24.8704 795.821 25.7467 796.699 26.8292 796.701Z" fill="#D2CCFF"/>
<path d="M26.8114 804.626C27.8938 804.628 28.7726 803.752 28.7742 802.669C28.7757 801.587 27.8994 800.708 26.8169 800.706C25.7345 800.705 24.8557 801.581 24.8542 802.664C24.8526 803.746 25.7289 804.625 26.8114 804.626Z" fill="#D2CCFF"/>
<path d="M34.756 796.712C35.8384 796.714 36.7172 795.837 36.7187 794.755C36.7203 793.672 35.844 792.794 34.7615 792.792C33.679 792.791 32.8003 793.667 32.7987 794.749C32.7972 795.832 33.6735 796.711 34.756 796.712Z" fill="#D2CCFF"/>
<path d="M34.7381 804.638C35.8206 804.639 36.6994 803.763 36.7009 802.68C36.7024 801.598 35.8262 800.719 34.7437 800.718C33.6612 800.716 32.7824 801.592 32.7809 802.675C32.7794 803.757 33.6557 804.636 34.7381 804.638Z" fill="#D2CCFF"/>
<path d="M42.6825 796.723C43.7649 796.725 44.6437 795.849 44.6452 794.766C44.6468 793.684 43.7705 792.805 42.688 792.803C41.6055 792.802 40.7268 793.678 40.7252 794.761C40.7237 795.843 41.6 796.722 42.6825 796.723Z" fill="#D2CCFF"/>
<path d="M42.6646 804.649C43.7471 804.65 44.6259 803.774 44.6274 802.692C44.629 801.609 43.7527 800.73 42.6702 800.729C41.5877 800.727 40.709 801.604 40.7074 802.686C40.7059 803.769 41.5822 804.647 42.6646 804.649Z" fill="#D2CCFF"/>
<path d="M50.6092 796.735C51.6917 796.736 52.5705 795.86 52.572 794.777C52.5735 793.695 51.6973 792.816 50.6148 792.815C49.5323 792.813 48.6535 793.689 48.652 794.772C48.6505 795.854 49.5267 796.733 50.6092 796.735Z" fill="#D2CCFF"/>
<path d="M50.5914 804.66C51.6739 804.662 52.5526 803.785 52.5542 802.703C52.5557 801.62 51.6794 800.742 50.597 800.74C49.5145 800.739 48.6357 801.615 48.6342 802.697C48.6326 803.78 49.5089 804.659 50.5914 804.66Z" fill="#D2CCFF"/>
<path d="M58.5357 796.746C59.6182 796.747 60.497 795.871 60.4985 794.789C60.5 793.706 59.6238 792.827 58.5413 792.826C57.4588 792.824 56.5801 793.701 56.5785 794.783C56.577 795.865 57.4533 796.744 58.5357 796.746Z" fill="#D2CCFF"/>
<path d="M58.5179 804.671C59.6004 804.673 60.4792 803.797 60.4807 802.714C60.4822 801.632 59.606 800.753 58.5235 800.751C57.441 800.75 56.5622 801.626 56.5607 802.709C56.5592 803.791 57.4354 804.67 58.5179 804.671Z" fill="#D2CCFF"/>
</g>
</g>
<defs>
<clipPath id="clip0_2522_6338">
<rect width="360" height="824" fill="white"/>
</clipPath>
<clipPath id="clip1_2522_6338">
<rect width="51.4846" height="11.8456" fill="white" transform="translate(300.017 67) rotate(0.0812416)"/>
</clipPath>
<clipPath id="clip2_2522_6338">
<rect width="51.4846" height="11.8456" fill="white" transform="translate(300.017 82.9185) rotate(0.0812416)"/>
</clipPath>
<clipPath id="clip3_2522_6338">
<rect width="51.4846" height="11.8456" fill="white" transform="translate(300.017 98.8372) rotate(0.0812416)"/>
</clipPath>
<clipPath id="clip4_2522_6338">
<rect width="51.4846" height="11.8456" fill="white" transform="translate(300.017 114.756) rotate(0.0812416)"/>
</clipPath>
<clipPath id="clip5_2522_6338">
<rect width="51.4846" height="11.8456" fill="white" transform="translate(9.01685 745) rotate(0.0812416)"/>
</clipPath>
<clipPath id="clip6_2522_6338">
<rect width="51.4846" height="11.8456" fill="white" transform="translate(9.01685 760.918) rotate(0.0812416)"/>
</clipPath>
<clipPath id="clip7_2522_6338">
<rect width="51.4846" height="11.8456" fill="white" transform="translate(9.01685 776.837) rotate(0.0812416)"/>
</clipPath>
<clipPath id="clip8_2522_6338">
<rect width="51.4846" height="11.8456" fill="white" transform="translate(9.01685 792.756) rotate(0.0812416)"/>
</clipPath>
</defs>
</svg>
