<svg width="360" height="387" viewBox="0 0 360 387" fill="none" xmlns="http://www.w3.org/2000/svg">
<g clip-path="url(#clip0_2522_6146)">
<rect width="360" height="387" fill="#140D52"/>
<path opacity="0.2" d="M244.235 17.3052C245.278 16.1362 246.34 14.7435 247.244 13.1492C245.736 14.1668 244.437 15.3313 243.355 16.4615C242.204 15.4043 240.834 14.3272 239.264 13.4104C240.268 14.9424 241.416 16.2623 242.531 17.3611C240.561 19.6088 239.521 21.5098 239.521 21.5098C239.521 21.5098 241.325 20.3331 243.41 18.1908C245.626 20.1923 247.502 21.2486 247.502 21.2486C247.502 21.2486 246.344 19.4197 244.235 17.3052ZM232.933 203.04C233.976 201.87 235.038 200.478 235.942 198.884C234.434 199.901 233.135 201.066 232.053 202.196C230.902 201.139 229.532 200.061 227.962 199.145C228.966 200.677 230.114 201.997 231.229 203.095C229.259 205.343 228.219 207.244 228.219 207.244C228.219 207.244 230.023 206.068 232.108 203.925C234.324 205.927 236.2 206.984 236.2 206.984C236.2 206.984 235.041 205.154 232.933 203.04ZM284.305 113.522C285.348 112.353 286.41 110.96 287.314 109.366C285.806 110.384 284.507 111.548 283.425 112.678C282.274 111.621 280.903 110.544 279.334 109.627C280.338 111.159 281.486 112.479 282.601 113.578C280.631 115.826 279.591 117.727 279.591 117.727C279.591 117.727 281.395 116.55 283.48 114.408C285.696 116.409 287.571 117.465 287.571 117.465C287.571 117.465 286.413 115.636 284.305 113.522ZM135.074 254.207C136.117 253.038 137.179 251.645 138.083 250.051C136.576 251.068 135.276 252.233 134.194 253.363C133.043 252.306 131.673 251.229 130.103 250.312C131.107 251.844 132.255 253.164 133.37 254.263C131.4 256.51 130.36 258.411 130.36 258.411C130.36 258.411 132.164 257.235 134.249 255.092C136.465 257.094 138.341 258.151 138.341 258.151C138.341 258.151 137.183 256.321 135.074 254.207ZM362.733 45.8926C363.776 44.7236 364.839 43.3309 365.743 41.7366C364.235 42.7542 362.936 43.9187 361.854 45.0489C360.703 43.9917 359.332 42.9146 357.763 41.9978C358.766 43.5298 359.915 44.8497 361.03 45.9485C359.06 48.1962 358.02 50.0972 358.02 50.0972C358.02 50.0972 359.824 48.9205 361.909 46.7782C364.125 48.7797 366 49.8363 366 49.8363C366 49.8363 364.842 48.0068 362.733 45.8926ZM345.74 173.213C346.783 172.043 347.845 170.651 348.749 169.057C347.242 170.074 345.942 171.238 344.86 172.369C343.709 171.312 342.339 170.235 340.769 169.318C341.773 170.85 342.921 172.17 344.036 173.269C342.066 175.516 341.026 177.417 341.026 177.417C341.026 177.417 342.83 176.241 344.915 174.098C347.131 176.1 349.006 177.156 349.006 177.156C349.006 177.156 347.849 175.327 345.74 173.213ZM14.2489 35.6592C15.2918 34.4901 16.3542 33.0975 17.2582 31.5032C15.7504 32.5207 14.4509 33.6849 13.3692 34.8155C12.218 33.7582 10.8475 32.6811 9.27794 31.7644C10.2816 33.2963 11.4301 34.6163 12.5449 35.7151C10.5748 37.9628 9.53526 39.8638 9.53526 39.8638C9.53526 39.8638 11.3392 38.6871 13.424 36.5448C15.6403 38.5462 17.5156 39.6026 17.5156 39.6026C17.5156 39.6026 16.3578 37.7734 14.2489 35.6592ZM92.6245 102.232C93.6674 101.062 94.7298 99.6699 95.6338 98.0757C94.126 99.0932 92.8265 100.257 91.7448 101.388C90.5936 100.331 89.2231 99.2536 87.6535 98.3368C88.6572 99.8688 89.8057 101.189 90.9205 102.288C88.9504 104.535 87.9109 106.436 87.9109 106.436C87.9109 106.436 89.7148 105.26 91.7996 103.117C94.0159 105.119 95.8912 106.175 95.8912 106.175C95.8912 106.175 94.7331 104.346 92.6245 102.232ZM-0.0290144 240.044C1.01382 238.875 2.07622 237.482 2.98031 235.888C1.47249 236.906 0.172932 238.07 -0.908725 239.2C-2.0599 238.143 -3.43048 237.066 -5 236.149C-3.99629 237.681 -2.84782 239.001 -1.73306 240.1C-3.70316 242.348 -4.74268 244.249 -4.74268 244.249C-4.74268 244.249 -2.93871 243.072 -0.853948 240.93C1.36234 242.931 3.23763 243.988 3.23763 243.988C3.23763 243.988 2.07983 242.159 -0.0290144 240.044ZM4.08995 173.213C5.13279 172.043 6.19518 170.651 7.09927 169.057C5.59145 170.074 4.2919 171.238 3.21024 172.369C2.05906 171.312 0.688481 170.235 -0.881036 169.318C0.122672 170.85 1.27114 172.17 2.3859 173.269C0.415808 175.516 -0.623715 177.417 -0.623715 177.417C-0.623715 177.417 1.18025 176.241 3.26502 174.098C5.4813 176.1 7.35659 177.156 7.35659 177.156C7.35659 177.156 6.19849 175.327 4.08995 173.213ZM164.263 41.7122C165.306 40.5428 166.368 39.1505 167.272 37.5562C165.764 38.5737 164.465 39.7379 163.383 40.8685C162.232 39.8112 160.861 38.7341 159.292 37.8174C160.296 39.3493 161.444 40.6693 162.559 41.7681C160.589 44.0158 159.549 45.9168 159.549 45.9168C159.549 45.9168 161.353 44.7401 163.438 42.5978C165.654 44.5993 167.529 45.6559 167.529 45.6559C167.529 45.6559 166.372 43.8264 164.263 41.7122ZM53.7899 1.93733C53.7899 3.00742 52.9352 3.87466 51.8812 3.87466C50.8269 3.87466 49.9722 3.00742 49.9722 1.93733C49.9722 0.867553 50.8269 0 51.8812 0C52.9352 0 53.7899 0.867553 53.7899 1.93733Z" fill="white"/>
<path opacity="0.2" d="M249.235 200.305C250.278 199.136 251.34 197.744 252.244 196.149C250.736 197.167 249.437 198.331 248.355 199.462C247.204 198.404 245.834 197.327 244.264 196.41C245.268 197.942 246.416 199.262 247.531 200.361C245.561 202.609 244.521 204.51 244.521 204.51C244.521 204.51 246.325 203.333 248.41 201.191C250.626 203.192 252.502 204.249 252.502 204.249C252.502 204.249 251.344 202.42 249.235 200.305ZM237.933 386.04C238.976 384.87 240.038 383.478 240.942 381.884C239.434 382.901 238.135 384.066 237.053 385.196C235.902 384.139 234.532 383.061 232.962 382.145C233.966 383.677 235.114 384.997 236.229 386.095C234.259 388.343 233.219 390.244 233.219 390.244C233.219 390.244 235.023 389.068 237.108 386.925C239.324 388.927 241.2 389.984 241.2 389.984C241.2 389.984 240.041 388.154 237.933 386.04ZM289.305 296.522C290.348 295.353 291.41 293.96 292.314 292.366C290.806 293.384 289.507 294.548 288.425 295.678C287.274 294.621 285.903 293.544 284.334 292.627C285.338 294.159 286.486 295.479 287.601 296.578C285.631 298.826 284.591 300.727 284.591 300.727C284.591 300.727 286.395 299.55 288.48 297.408C290.696 299.409 292.571 300.465 292.571 300.465C292.571 300.465 291.413 298.636 289.305 296.522ZM140.074 437.207C141.117 436.038 142.179 434.645 143.083 433.051C141.576 434.068 140.276 435.233 139.194 436.363C138.043 435.306 136.673 434.229 135.103 433.312C136.107 434.844 137.255 436.164 138.37 437.263C136.4 439.51 135.36 441.411 135.36 441.411C135.36 441.411 137.164 440.235 139.249 438.092C141.465 440.094 143.341 441.151 143.341 441.151C143.341 441.151 142.183 439.321 140.074 437.207ZM367.733 228.893C368.776 227.724 369.839 226.331 370.743 224.737C369.235 225.754 367.936 226.919 366.854 228.049C365.703 226.992 364.332 225.915 362.763 224.998C363.766 226.53 364.915 227.85 366.03 228.949C364.06 231.196 363.02 233.097 363.02 233.097C363.02 233.097 364.824 231.921 366.909 229.778C369.125 231.78 371 232.836 371 232.836C371 232.836 369.842 231.007 367.733 228.893ZM350.74 356.213C351.783 355.043 352.845 353.651 353.749 352.057C352.242 353.074 350.942 354.238 349.86 355.369C348.709 354.312 347.339 353.235 345.769 352.318C346.773 353.85 347.921 355.17 349.036 356.269C347.066 358.516 346.026 360.417 346.026 360.417C346.026 360.417 347.83 359.241 349.915 357.098C352.131 359.1 354.006 360.156 354.006 360.156C354.006 360.156 352.849 358.327 350.74 356.213ZM19.2489 218.659C20.2918 217.49 21.3542 216.097 22.2582 214.503C20.7504 215.521 19.4509 216.685 18.3692 217.815C17.218 216.758 15.8475 215.681 14.2779 214.764C15.2816 216.296 16.4301 217.616 17.5449 218.715C15.5748 220.963 14.5353 222.864 14.5353 222.864C14.5353 222.864 16.3392 221.687 18.424 219.545C20.6403 221.546 22.5156 222.603 22.5156 222.603C22.5156 222.603 21.3578 220.773 19.2489 218.659ZM97.6245 285.232C98.6674 284.062 99.7298 282.67 100.634 281.076C99.126 282.093 97.8265 283.257 96.7448 284.388C95.5936 283.331 94.2231 282.254 92.6535 281.337C93.6572 282.869 94.8057 284.189 95.9205 285.288C93.9504 287.535 92.9109 289.436 92.9109 289.436C92.9109 289.436 94.7148 288.26 96.7996 286.117C99.0159 288.119 100.891 289.175 100.891 289.175C100.891 289.175 99.7331 287.346 97.6245 285.232ZM4.97099 423.044C6.01382 421.875 7.07622 420.482 7.98031 418.888C6.47249 419.906 5.17293 421.07 4.09127 422.2C2.9401 421.143 1.56952 420.066 0 419.149C1.00371 420.681 2.15218 422.001 3.26694 423.1C1.29684 425.348 0.257321 427.249 0.257321 427.249C0.257321 427.249 2.06129 426.072 4.14605 423.93C6.36234 425.931 8.23763 426.988 8.23763 426.988C8.23763 426.988 7.07983 425.159 4.97099 423.044ZM9.08995 356.213C10.1328 355.043 11.1952 353.651 12.0993 352.057C10.5915 353.074 9.2919 354.238 8.21024 355.369C7.05906 354.312 5.68848 353.235 4.11896 352.318C5.12267 353.85 6.27114 355.17 7.3859 356.269C5.41581 358.516 4.37629 360.417 4.37629 360.417C4.37629 360.417 6.18025 359.241 8.26502 357.098C10.4813 359.1 12.3566 360.156 12.3566 360.156C12.3566 360.156 11.1985 358.327 9.08995 356.213ZM169.263 224.712C170.306 223.543 171.368 222.15 172.272 220.556C170.764 221.574 169.465 222.738 168.383 223.868C167.232 222.811 165.861 221.734 164.292 220.817C165.296 222.349 166.444 223.669 167.559 224.768C165.589 227.016 164.549 228.917 164.549 228.917C164.549 228.917 166.353 227.74 168.438 225.598C170.654 227.599 172.529 228.656 172.529 228.656C172.529 228.656 171.372 226.826 169.263 224.712ZM58.7899 184.937C58.7899 186.007 57.9352 186.875 56.8812 186.875C55.8269 186.875 54.9722 186.007 54.9722 184.937C54.9722 183.868 55.8269 183 56.8812 183C57.9352 183 58.7899 183.868 58.7899 184.937Z" fill="white"/>
<path opacity="0.2" d="M158.968 386.718C158.447 379.023 151.786 373.205 144.088 373.726C141.718 373.885 139.528 374.629 137.644 375.805C137.638 375.661 137.635 375.517 137.624 375.373C137.119 367.888 130.643 362.232 123.158 362.737C119.661 362.974 116.565 364.512 114.307 366.847C110.274 362.002 104.056 359.092 97.2852 359.55C93.9814 359.774 90.9166 360.774 88.2538 362.359C86.5051 355.511 80.0762 350.668 72.77 351.162C71.0601 351.276 69.4361 351.68 67.9412 352.315C66.0785 347.196 61.0089 343.701 55.3006 344.086C55.062 344.103 54.8274 344.127 54.5929 344.157C54.572 342.727 54.1812 341.606 53.5689 340.644C49.6736 334.524 49.2791 326.208 53.1727 320.087C55.6851 316.138 71.2246 292.209 74.1264 289.908L62.7926 281.887C62.7926 281.887 42.4149 304.498 34.0115 311.522C29.1864 315.555 18.3886 316.523 12.6579 313.933C11.0361 313.2 9.21516 312.846 7.31526 312.974C6.70655 313.015 6.11505 313.105 5.53883 313.238C5.63132 311.836 5.57948 310.399 5.3689 308.952C3.74712 297.832 -6.58349 290.133 -17.7035 291.755C-18.0025 291.8 -18.2991 291.849 -18.5959 291.907C-18.5724 291.103 -18.6131 290.286 -18.7338 289.462C-19.5317 283.982 -23.4139 279.711 -28.363 278.151C-27.1541 275.164 -26.696 271.828 -27.195 268.411C-28.692 258.15 -38.2223 251.046 -48.4819 252.543C-49.6628 252.715 -50.8028 252.994 -51.8911 253.369C-53.4957 248.512 -56.7907 244.529 -61 242V387.66H159C159 387.348 158.989 387.034 158.968 386.718Z" fill="#7363FC"/>
<g opacity="0.1">
<path d="M104.699 91.2766L97.119 110.78L88.4151 111.245L87.5732 85.8849L100.898 82.1104L104.699 91.2766Z" fill="#F04896"/>
<path d="M68.4444 58.4219L50 68.0792L50.4614 76.8505L75.5745 75.0137L77.8909 61.2624L68.4444 58.4219Z" fill="#F04896"/>
<path d="M112.541 74.2667C106.58 80.3428 97.9809 87.5654 85.8447 94.8778C85.8447 94.8778 85.8447 94.8778 85.8402 94.878C82.8885 96.6598 79.7264 98.4434 76.3409 100.218L62.7114 87.8651C64.0612 84.3983 65.4426 81.1352 66.8393 78.0744C72.8489 64.9091 79.1612 55.4029 84.5868 48.7299C92.7911 38.6341 98.9634 35.0186 98.9634 35.0186L124.656 58.3038C124.656 58.3038 121.717 64.9218 112.541 74.2667Z" fill="white"/>
<path d="M112.543 74.2635C110.141 76.7101 107.31 79.3447 103.994 82.0972C103.705 82.3369 103.408 82.5795 103.112 82.8218C102.546 83.2818 101.968 83.7445 101.379 84.2103C101.082 84.4433 100.783 84.6788 100.474 84.9149C96.2941 88.1481 91.4457 91.5019 85.8465 94.8744C85.8465 94.8744 85.8465 94.8744 85.8419 94.8746C85.5811 94.7729 73.2996 90.0984 66.8411 78.071C69.6308 71.9637 72.4829 66.6439 75.2809 62.028L75.2832 62.0255C75.4815 61.6987 75.6757 61.3813 75.8719 61.0615C76.2715 60.4192 76.6673 59.7915 77.0613 59.1756C77.2647 58.8578 77.4684 58.5447 77.6746 58.234C80.0704 54.5674 82.4018 51.4166 84.5887 48.7266C84.5887 48.7266 93.7629 65.5829 112.543 74.2635Z" fill="#CCD2FF"/>
<path d="M103.993 82.0949C103.703 82.3346 103.407 82.5772 103.11 82.8196C97.3206 80.4376 92.5092 77.0544 88.645 73.5522C82.2227 67.7314 78.4134 61.5799 77.0593 59.1735C77.2628 58.8557 77.4665 58.5427 77.6727 58.2319C79.2994 61.2304 87.8176 75.6808 103.993 82.0949Z" fill="white"/>
<path d="M101.38 84.2103C101.083 84.4433 100.784 84.6788 100.476 84.9149C94.9328 82.5457 90.3099 79.2705 86.5709 75.8818C80.5715 70.4445 76.8529 64.7202 75.2822 62.0279L75.2845 62.0254C75.4828 61.6986 75.677 61.3812 75.8733 61.0615C78.0198 64.8586 86.3077 78.0018 101.38 84.2103Z" fill="white"/>
<path d="M125.28 31.4973C110.504 21.9538 98.8955 34.967 98.8955 34.967L124.645 58.304C124.645 58.304 136.259 45.2952 125.28 31.4973Z" fill="#F04896"/>
<path d="M54.8403 110.444C56.6494 97.5238 60.9221 94.9334 64.042 94.9253L69.1808 99.5825C69.5026 102.71 67.3982 107.266 54.8403 110.444Z" fill="#FAAF3A"/>
<path d="M57.9827 106.928C59.2042 98.2087 61.8697 95.5476 64.1364 94.9951L69.107 99.5C68.8013 101.83 66.4571 104.782 57.9827 106.928Z" fill="#FFBB61"/>
<path d="M62.1536 102.251C62.7392 98.0671 63.9229 96.3967 65.0481 95.8237L68.1896 98.6709C67.7431 99.859 66.2198 101.222 62.1536 102.251Z" fill="#FFCD92"/>
<path d="M67.8404 109.643C66.594 102.766 68.5317 100.671 70.2758 100.095L73.9649 101.513C74.6916 103.039 74.3107 105.732 67.8404 109.643Z" fill="#FAAF3A"/>
<path d="M68.9846 107.299C68.1437 102.658 69.1699 100.821 70.3416 100.126L73.9099 101.498C74.1463 102.734 73.3509 104.659 68.9846 107.299Z" fill="#FFBB61"/>
<path d="M70.5064 104.159C70.1028 101.932 70.4729 100.869 71.0024 100.373L73.2577 101.24C73.2157 101.923 72.6017 102.893 70.5064 104.159Z" fill="#FFCD92"/>
<path d="M54.009 97.567C60.9269 98.0893 62.7893 95.9259 63.1729 94.1173L61.3837 90.5703C59.8015 90.0032 57.184 90.6697 54.009 97.567Z" fill="#FAAF3A"/>
<path d="M56.2178 96.1783C60.8862 96.5303 62.5899 95.3079 63.1519 94.0604L61.4212 90.6294C60.1763 90.5234 58.3608 91.5237 56.2178 96.1783Z" fill="#FFBB61"/>
<path d="M59.1448 94.3297C61.3848 94.499 62.3948 94.0154 62.8287 93.4325L61.7347 91.2642C61.0645 91.3786 60.1728 92.0964 59.1448 94.3297Z" fill="#FFCD92"/>
<path d="M104.854 64.0321L95.41 55.473C94.5931 54.7327 94.5266 53.4653 95.2611 52.6423L101.466 45.6894C102.201 44.8664 103.458 44.7993 104.275 45.5394L113.718 54.0985C114.535 54.8388 114.602 56.1062 113.867 56.9292L107.662 63.8823C106.928 64.7051 105.671 64.7722 104.854 64.0321Z" fill="#261D54"/>
<path d="M104.927 61.5206L97.8695 55.124C97.3779 54.6784 97.3378 53.9158 97.78 53.4204L102.497 48.135C102.939 47.6396 103.696 47.5992 104.187 48.0448L111.245 54.4414C111.737 54.887 111.777 55.6498 111.335 56.145L106.618 61.4304C106.176 61.9256 105.419 61.966 104.927 61.5206Z" fill="#A4DAF5"/>
<path d="M108.278 53.7266C108.278 53.7266 110.369 55.0396 109.133 56.3857C107.898 57.7321 109.685 55.2249 108.278 53.7266Z" fill="white"/>
<path d="M62.7995 87.6167L76.5477 100.077C76.5477 100.077 75.0705 105.011 73.5894 104.269C72.1085 103.527 59.1687 92.2502 58.6615 90.9507C58.1546 89.651 62.7995 87.6167 62.7995 87.6167Z" fill="#F04896"/>
</g>
<g opacity="0.1">
<path d="M252.301 91.2766L259.881 110.78L268.585 111.245L269.427 85.8849L256.102 82.1104L252.301 91.2766Z" fill="#F04896"/>
<path d="M288.556 58.4219L307 68.0792L306.539 76.8505L281.425 75.0137L279.109 61.2624L288.556 58.4219Z" fill="#F04896"/>
<path d="M244.459 74.2667C250.42 80.3428 259.019 87.5654 271.155 94.8778C271.155 94.8778 271.155 94.8778 271.16 94.878C274.111 96.6598 277.274 98.4434 280.659 100.218L294.289 87.8651C292.939 84.3983 291.557 81.1352 290.161 78.0744C284.151 64.9091 277.839 55.4029 272.413 48.7299C264.209 38.6341 258.037 35.0186 258.037 35.0186L232.344 58.3038C232.344 58.3038 235.283 64.9218 244.459 74.2667Z" fill="white"/>
<path d="M244.457 74.2635C246.859 76.7101 249.69 79.3447 253.006 82.0972C253.295 82.3369 253.592 82.5795 253.888 82.8218C254.454 83.2818 255.032 83.7445 255.621 84.2103C255.918 84.4433 256.217 84.6788 256.526 84.9149C260.706 88.1481 265.554 91.5019 271.154 94.8744C271.154 94.8744 271.154 94.8744 271.158 94.8746C271.419 94.7729 283.7 90.0984 290.159 78.071C287.369 71.9637 284.517 66.6439 281.719 62.028L281.717 62.0255C281.518 61.6987 281.324 61.3813 281.128 61.0615C280.729 60.4192 280.333 59.7915 279.939 59.1756C279.735 58.8578 279.532 58.5447 279.325 58.234C276.93 54.5674 274.598 51.4166 272.411 48.7266C272.411 48.7266 263.237 65.5829 244.457 74.2635Z" fill="#CCD2FF"/>
<path d="M253.007 82.0949C253.297 82.3346 253.593 82.5772 253.89 82.8196C259.679 80.4376 264.491 77.0544 268.355 73.5522C274.777 67.7314 278.587 61.5799 279.941 59.1735C279.737 58.8557 279.533 58.5427 279.327 58.2319C277.701 61.2304 269.182 75.6808 253.007 82.0949Z" fill="white"/>
<path d="M255.62 84.2103C255.917 84.4433 256.216 84.6788 256.524 84.9149C262.067 82.5457 266.69 79.2705 270.429 75.8818C276.428 70.4445 280.147 64.7202 281.718 62.0279L281.715 62.0254C281.517 61.6986 281.323 61.3812 281.127 61.0615C278.98 64.8586 270.692 78.0018 255.62 84.2103Z" fill="white"/>
<path d="M231.72 31.4973C246.496 21.9538 258.104 34.967 258.104 34.967L232.355 58.304C232.355 58.304 220.741 45.2952 231.72 31.4973Z" fill="#F04896"/>
<path d="M302.16 110.445C300.351 97.5243 296.078 94.9339 292.958 94.9258L287.819 99.583C287.497 102.71 289.602 107.266 302.16 110.445Z" fill="#FAAF3A"/>
<path d="M299.017 106.928C297.796 98.2087 295.13 95.5476 292.864 94.9951L287.893 99.5C288.199 101.83 290.543 104.782 299.017 106.928Z" fill="#FFBB61"/>
<path d="M294.846 102.251C294.261 98.0676 293.077 96.3971 291.952 95.8242L288.81 98.6714C289.257 99.8595 290.78 101.222 294.846 102.251Z" fill="#FFCD92"/>
<path d="M289.16 109.643C290.406 102.766 288.468 100.67 286.724 100.095L283.035 101.513C282.308 103.039 282.689 105.732 289.16 109.643Z" fill="#FAAF3A"/>
<path d="M288.015 107.299C288.856 102.658 287.83 100.821 286.658 100.126L283.09 101.498C282.854 102.734 283.649 104.659 288.015 107.299Z" fill="#FFBB61"/>
<path d="M286.494 104.159C286.897 101.932 286.527 100.869 285.998 100.373L283.742 101.24C283.784 101.923 284.398 102.893 286.494 104.159Z" fill="#FFCD92"/>
<path d="M302.991 97.567C296.073 98.0893 294.211 95.9259 293.827 94.1173L295.616 90.5703C297.199 90.0032 299.816 90.6697 302.991 97.567Z" fill="#FAAF3A"/>
<path d="M300.782 96.1783C296.114 96.5303 294.41 95.3079 293.848 94.0604L295.579 90.6294C296.824 90.5234 298.639 91.5237 300.782 96.1783Z" fill="#FFBB61"/>
<path d="M297.855 94.3297C295.615 94.499 294.605 94.0154 294.171 93.4325L295.265 91.2642C295.936 91.3786 296.827 92.0964 297.855 94.3297Z" fill="#FFCD92"/>
<path d="M252.146 64.0321L261.59 55.473C262.407 54.7327 262.473 53.4653 261.739 52.6423L255.534 45.6894C254.799 44.8664 253.542 44.7993 252.725 45.5394L243.282 54.0985C242.465 54.8388 242.398 56.1062 243.133 56.9292L249.338 63.8823C250.072 64.7051 251.329 64.7722 252.146 64.0321Z" fill="#261D54"/>
<path d="M252.073 61.5206L259.131 55.124C259.622 54.6784 259.662 53.9158 259.22 53.4204L254.503 48.135C254.061 47.6396 253.304 47.5992 252.813 48.0448L245.755 54.4414C245.263 54.887 245.223 55.6498 245.665 56.145L250.382 61.4304C250.824 61.9256 251.581 61.966 252.073 61.5206Z" fill="#A4DAF5"/>
<path d="M248.722 53.7266C248.722 53.7266 246.631 55.0396 247.867 56.3857C249.102 57.7321 247.315 55.2249 248.722 53.7266Z" fill="white"/>
<path d="M294.201 87.6167L280.452 100.077C280.452 100.077 281.929 105.011 283.411 104.269C284.891 103.527 297.831 92.2502 298.339 90.9507C298.845 89.651 294.201 87.6167 294.201 87.6167Z" fill="#F04896"/>
</g>
<path opacity="0.2" d="M186.032 386.718C186.553 379.023 193.214 373.205 200.912 373.726C203.282 373.885 205.472 374.629 207.356 375.805C207.362 375.661 207.365 375.517 207.376 375.373C207.881 367.888 214.357 362.232 221.842 362.737C225.339 362.974 228.435 364.512 230.693 366.847C234.726 362.002 240.944 359.092 247.715 359.55C251.019 359.774 254.083 360.774 256.746 362.359C258.495 355.511 264.924 350.668 272.23 351.162C273.94 351.276 275.564 351.68 277.059 352.315C278.921 347.196 283.991 343.701 289.699 344.086C289.938 344.103 290.173 344.127 290.407 344.157C290.428 342.727 290.819 341.606 291.431 340.644C295.326 334.524 295.721 326.208 291.827 320.087C289.315 316.138 273.775 292.209 270.874 289.908L282.207 281.887C282.207 281.887 302.585 304.498 310.989 311.522C315.814 315.555 326.611 316.523 332.342 313.933C333.964 313.2 335.785 312.846 337.685 312.974C338.293 313.015 338.885 313.105 339.461 313.238C339.369 311.836 339.421 310.399 339.631 308.952C341.253 297.832 351.583 290.133 362.703 291.755C363.002 291.8 363.299 291.849 363.596 291.907C363.572 291.103 363.613 290.286 363.734 289.462C364.532 283.982 368.414 279.711 373.363 278.151C372.154 275.164 371.696 271.828 372.195 268.411C373.692 258.15 383.222 251.046 393.482 252.543C394.663 252.715 395.803 252.994 396.891 253.369C398.496 248.512 401.791 244.529 406 242V387.66H186C186 387.348 186.011 387.034 186.032 386.718Z" fill="#7363FC"/>
</g>
<defs>
<clipPath id="clip0_2522_6146">
<rect width="360" height="387" fill="white"/>
</clipPath>
</defs>
</svg>
