<svg width="48" height="48" viewBox="0 0 48 48" fill="none" xmlns="http://www.w3.org/2000/svg">
<g filter="url(#filter0_d_1766_1032)">
<path fill-rule="evenodd" clip-rule="evenodd" d="M4 24C4 12.9543 12.9543 4 24 4C35.0457 4 44 12.9543 44 24C44 35.0457 35.0457 44 24 44C12.9543 44 4 35.0457 4 24ZM19.9765 16.7293C20.5785 16.4006 21.312 16.4269 21.8889 16.7978L30.6389 22.4228C31.1756 22.7678 31.5 23.362 31.5 24C31.5 24.638 31.1756 25.2322 30.6389 25.5772L21.8889 31.2022C21.312 31.5731 20.5785 31.5994 19.9765 31.2707C19.3745 30.942 19 30.3109 19 29.625V18.375C19 17.6891 19.3745 17.058 19.9765 16.7293Z" fill="#1B2124"/>
</g>
<circle cx="23.8669" cy="25.0666" r="10.8" fill="white"/>
<path fill-rule="evenodd" clip-rule="evenodd" d="M4.66699 24.0003C4.66699 13.3228 13.3228 4.66699 24.0003 4.66699C34.6778 4.66699 43.3337 13.3228 43.3337 24.0003C43.3337 34.6778 34.6778 43.3337 24.0003 43.3337C13.3228 43.3337 4.66699 34.6778 4.66699 24.0003ZM20.111 16.972C20.6929 16.6543 21.4019 16.6797 21.9596 17.0382L30.4179 22.4757C30.9367 22.8092 31.2503 23.3836 31.2503 24.0003C31.2503 24.6171 30.9367 25.1915 30.4179 25.525L21.9596 30.9625C21.4019 31.321 20.6929 31.3464 20.111 31.0287C19.529 30.711 19.167 30.1009 19.167 29.4378V18.5628C19.167 17.8998 19.529 17.2897 20.111 16.972Z" fill="#FF6D0A"/>
<defs>
<filter id="filter0_d_1766_1032" x="4" y="4" width="40" height="44" filterUnits="userSpaceOnUse" color-interpolation-filters="sRGB">
<feFlood flood-opacity="0" result="BackgroundImageFix"/>
<feColorMatrix in="SourceAlpha" type="matrix" values="0 0 0 0 0 0 0 0 0 0 0 0 0 0 0 0 0 0 127 0" result="hardAlpha"/>
<feOffset dy="4"/>
<feComposite in2="hardAlpha" operator="out"/>
<feColorMatrix type="matrix" values="0 0 0 0 0 0 0 0 0 0 0 0 0 0 0 0 0 0 1 0"/>
<feBlend mode="normal" in2="BackgroundImageFix" result="effect1_dropShadow_1766_1032"/>
<feBlend mode="normal" in="SourceGraphic" in2="effect1_dropShadow_1766_1032" result="shape"/>
</filter>
</defs>
</svg>
