<svg width="360" height="474" viewBox="0 0 360 474" fill="none" xmlns="http://www.w3.org/2000/svg">
<g clip-path="url(#clip0_2522_6306)">
<rect width="360" height="474" fill="#FFF6F4"/>
<g opacity="0.2">
<path fill-rule="evenodd" clip-rule="evenodd" d="M16.872 62.5451C16.8912 62.6134 16.9105 62.6816 16.9298 62.7498C17.0987 63.3474 17.27 63.944 17.4445 64.5394C17.5696 64.9759 17.654 65.4124 17.7374 65.8437C17.8625 66.4909 17.9854 67.1266 18.2401 67.7334C18.316 67.9142 18.4036 68.0925 18.5065 68.2677C18.5358 68.3177 18.5663 68.3674 18.5982 68.4169C18.9828 69.1625 20.3288 70.0573 21.0979 70.0573C21.8671 70.0573 23.2131 69.0134 23.2131 68.2677C23.2925 67.5284 23.3063 66.7637 23.2951 65.9945C23.2923 65.7956 23.2877 65.5964 23.2822 65.3972C23.2744 65.1181 23.2648 64.8391 23.2552 64.5612C23.2357 63.9954 23.2163 63.4344 23.2134 62.8865C23.2134 62.874 23.2133 62.8614 23.2133 62.849C23.2131 62.8158 23.2131 62.7828 23.2131 62.7498C23.246 62.341 23.2789 61.9322 23.3129 61.5235C23.4769 59.5461 23.6635 57.5687 23.9822 55.5914C24.0067 55.4658 24.0324 55.3407 24.0592 55.2162C25.0825 50.4576 27.7632 46.4143 32.635 43.3624C33.01 43.1254 33.384 42.8876 33.7577 42.6501C37.1231 40.5106 40.4658 38.3856 44.315 36.9725C45.073 36.6943 45.8506 36.4436 46.6518 36.2259C47.5856 35.9722 48.5516 35.7632 49.5562 35.6074C49.6992 35.5852 49.8464 35.5565 49.9954 35.5216C50.0657 35.5051 50.1363 35.4873 50.2071 35.4682C50.995 35.2553 51.7976 34.8803 52.2482 34.4144C52.327 34.3226 52.4099 34.2278 52.4949 34.1305C53.2397 33.2781 54.1513 32.2348 53.9787 31.4317C53.7864 30.5369 52.2482 29.3438 50.9022 29.1947C50.0813 29.077 49.2806 28.9443 48.4997 28.7969C47.6274 28.6322 46.7796 28.4493 45.9555 28.2486C45.9341 28.2434 45.9128 28.2382 45.8915 28.233C45.8865 28.2318 45.8815 28.2305 45.8766 28.2293C45.2602 28.0781 44.6572 27.917 44.0671 27.7462C32.2389 24.3224 25.622 17.0128 21.402 7.85895C20.9543 6.88787 20.5336 5.89603 20.1365 4.88588C19.9882 4.50243 19.8494 4.11406 19.7185 3.7217C19.7142 3.70868 19.7098 3.69566 19.7055 3.68264C19.162 2.04569 18.7548 0.340121 18.3656 -1.36517C18.3137 -1.59253 18.2622 -1.81989 18.2106 -2.04708C18.1886 -2.14429 18.1665 -2.24148 18.1445 -2.33862C18.0725 -2.65565 18.0003 -2.97222 17.9272 -3.28788C17.8325 -3.69695 17.7363 -4.1045 17.6368 -4.50955C17.5267 -4.70874 17.4447 -4.90793 17.3799 -5.10608C17.3423 -5.22124 17.3105 -5.33605 17.2825 -5.45031C17.2346 -5.64527 17.1977 -5.83862 17.1613 -6.02935C17.0634 -6.54251 16.969 -7.03669 16.6754 -7.49222C16.0985 -8.23789 14.9448 -9.13269 14.1757 -8.98356C13.4065 -8.98356 12.4451 -7.93962 11.8682 -7.19395C11.5811 -6.74846 11.6156 -6.2198 11.6515 -5.67008C11.6636 -5.4837 11.676 -5.29489 11.676 -5.10608C11.6925 -4.83675 11.709 -4.56853 11.7256 -4.30122C11.7382 -4.09772 11.7507 -3.89475 11.7633 -3.69223C11.7761 -3.48656 11.7889 -3.28134 11.8017 -3.0765C11.8379 -2.49707 11.874 -1.92061 11.9102 -1.34515C11.9274 -1.07043 11.9447 -0.79594 11.962 -0.521459C11.9628 -0.508224 11.9636 -0.494991 11.9645 -0.481757C12.0606 1.04647 12.1567 2.57471 12.2528 4.14021C12.3169 5.28358 12.4024 6.42695 12.4878 7.57032C12.4945 7.65912 12.5011 7.74792 12.5077 7.83672C12.5089 7.85226 12.5101 7.8678 12.5112 7.88333C12.5645 8.59808 12.6171 9.31282 12.6636 10.0276C12.7593 11.4952 12.8297 12.9628 12.8297 14.4304C13.0051 19.6002 9.18006 22.9084 4.12812 25.1474C4.10997 25.1554 4.09181 25.1635 4.07363 25.1715C3.60498 25.3781 3.12589 25.5756 2.63857 25.7646C-1.01484 27.1068 -5.05283 27.8525 -9.47538 27.4051C-10.2661 27.3175 -11.0568 27.3071 -11.8524 27.3436C-11.8871 27.3452 -11.9219 27.3469 -11.9566 27.3487C-12.6633 27.3847 -13.374 27.4567 -14.0921 27.5436C-14.5517 27.5991 -15.0145 27.6608 -15.4811 27.723C-16.2241 27.822 -16.9771 27.9223 -17.7436 28.0016C-18.1623 28.0665 -18.5809 28.1315 -18.9678 28.221C-19.0219 28.2336 -19.0754 28.2466 -19.1282 28.2601C-19.5647 28.3723 -19.9528 28.5219 -20.2433 28.7473C-21.0125 29.4929 -21.9739 30.5369 -21.9739 31.2826C-21.9739 32.6248 -20.2433 32.7739 -18.7051 32.6248C-18.2315 32.5965 -17.7649 32.5683 -17.3025 32.539C-17.2932 32.5384 -17.2839 32.5378 -17.2746 32.5372C-17.1971 32.5323 -17.1197 32.5274 -17.0424 32.5224C-16.8982 32.5131 -16.7544 32.5037 -16.6108 32.4941C-15.4564 32.4173 -14.3209 32.3308 -13.1625 32.2185C-12.5819 32.1623 -11.9956 32.0995 -11.3982 32.0282C-10.9205 31.9819 -10.4468 31.95 -9.97687 31.9313C-9.96228 31.9307 -9.94768 31.9301 -9.93309 31.9296C-5.88028 31.7753 -2.10157 32.603 1.67715 33.6687C2.46708 33.9138 3.25701 34.2595 3.98029 34.6749C5.01761 35.2707 5.91782 36.0097 6.48427 36.8005C8.59941 39.3358 10.7145 41.8711 11.676 44.7046C12.956 48.3448 13.9993 52.0308 15.0029 55.7118C15.1857 56.3822 15.3671 57.0523 15.5484 57.722C15.9564 59.2288 16.3637 60.7332 16.7839 62.2317C16.8132 62.3362 16.8425 62.4407 16.872 62.5451ZM20.3377 42.6212C20.2442 42.3473 20.1499 42.0747 20.0546 41.8034C18.5417 37.3863 15.4877 33.741 13.6059 31.4948C13.5516 31.43 13.4984 31.3665 13.4461 31.3041C13.228 31.018 12.9998 30.7419 12.7632 30.4755C15.6357 28.5319 18.3694 25.9093 20.0405 22.4035C21.4814 24.1526 23.0857 25.8187 24.8788 27.3738C27.2684 29.4463 29.9123 31.2514 32.8281 32.7753C31.4952 33.5699 30.2628 34.358 29.1266 35.0845C28.7086 35.3518 28.3036 35.6108 27.9114 35.8587C24.8444 37.7825 22.3242 40.0572 20.3377 42.6212Z" fill="#81ADC8"/>
<path fill-rule="evenodd" clip-rule="evenodd" d="M-7.62757 82.8318C-7.48503 83.3581 -7.34233 83.8836 -7.19551 84.4072C-7.177 84.4732 -7.15843 84.5392 -7.13978 84.6051C-7.07523 84.8334 -7.0098 85.0613 -6.94316 85.2887C-6.89539 85.4554 -6.86315 85.6221 -6.8313 85.7869C-6.7835 86.0341 -6.73655 86.2769 -6.63927 86.5087C-6.61028 86.5778 -6.57681 86.6459 -6.53753 86.7128C-6.52633 86.7319 -6.51465 86.7509 -6.50247 86.7698C-6.35558 87.0546 -5.84145 87.3964 -5.54766 87.3964C-5.25386 87.3964 -4.73973 86.9976 -4.73973 86.7128C-4.70939 86.4304 -4.70412 86.1383 -4.70838 85.8445C-4.70948 85.7685 -4.71122 85.6924 -4.71333 85.6164C-4.71629 85.5097 -4.71997 85.4032 -4.72363 85.297C-4.7311 85.0809 -4.7385 84.8666 -4.73959 84.6573C-4.73962 84.6525 -4.73964 84.6478 -4.73966 84.643C-4.73971 84.6303 -4.73973 84.6177 -4.73973 84.6051C-4.68168 83.8847 -4.62363 83.1643 -4.5293 82.4439C-4.50429 82.2529 -4.47673 82.0618 -4.44594 81.8708C-4.26068 80.9225 -3.90719 80.0466 -3.35719 79.2579C-2.81694 78.4832 -2.08708 77.7925 -1.14081 77.1997C-0.997569 77.1092 -0.854716 77.0183 -0.711969 76.9276C-0.136113 76.5615 0.438009 76.1965 1.02857 75.8566C1.53102 75.5674 2.04538 75.2963 2.58282 75.0581C3.42502 74.6849 4.32393 74.3924 5.3226 74.2375C5.37722 74.229 5.43347 74.218 5.49038 74.2047C5.51722 74.1984 5.5442 74.1916 5.57122 74.1843C5.8722 74.103 6.17875 73.9598 6.35086 73.7818C6.38098 73.7468 6.41263 73.7105 6.44512 73.6733C6.72959 73.3478 7.07781 72.9492 7.01189 72.6425C6.93844 72.3007 6.35086 71.845 5.83673 71.788C5.52317 71.7431 5.21736 71.6924 4.91907 71.6361C4.57078 71.5703 4.23275 71.497 3.90461 71.4162C3.75655 71.3798 3.6105 71.3418 3.46643 71.3024C3.06807 71.1934 2.68485 71.0732 2.31608 70.9421C1.78421 70.7531 1.28238 70.5417 0.808486 70.3093C-1.07061 69.3881 -2.51052 68.1383 -3.64283 66.6554C-3.76967 66.4893 -3.89265 66.3203 -4.01195 66.1485C-4.0478 66.0969 -4.08332 66.045 -4.11852 65.9928C-4.84039 64.9235 -5.42474 63.7496 -5.91489 62.5027C-5.97155 62.3563 -6.02456 62.2079 -6.07455 62.0581C-6.07621 62.0531 -6.07787 62.0481 -6.07952 62.0431C-6.10594 61.9636 -6.13153 61.8835 -6.15636 61.8032C-6.35262 61.1678 -6.50199 60.5094 -6.65052 59.8545C-6.65895 59.8174 -6.66737 59.7803 -6.67579 59.7432C-6.70329 59.6221 -6.73085 59.5012 -6.75877 59.3806C-6.79495 59.2243 -6.83171 59.0687 -6.86971 58.914C-6.91175 58.8379 -6.9431 58.7618 -6.96783 58.6861C-6.98221 58.6421 -6.99435 58.5983 -7.00505 58.5546C-7.02332 58.4801 -7.03742 58.4063 -7.05133 58.3334C-7.08874 58.1374 -7.12478 57.9487 -7.23695 57.7747C-7.45729 57.4898 -7.89798 57.148 -8.19177 57.205C-8.48556 57.205 -8.85279 57.6038 -9.07314 57.8886C-9.18284 58.0588 -9.16965 58.2607 -9.15594 58.4707C-9.15129 58.5419 -9.14658 58.614 -9.14658 58.6861C-9.14027 58.789 -9.13395 58.8914 -9.12763 58.9935C-9.12283 59.0713 -9.11802 59.1488 -9.11321 59.2262C-9.10833 59.3047 -9.10344 59.3831 -9.09856 59.4613C-9.08475 59.6827 -9.07093 59.9029 -9.05712 60.1227C-9.05022 60.2325 -9.04331 60.3423 -9.03641 60.452C-9.00016 61.0284 -8.96391 61.6047 -8.92766 62.1948C-8.92719 62.2025 -8.92671 62.2102 -8.92624 62.2179C-8.90176 62.6546 -8.86912 63.0914 -8.83647 63.5281C-8.83394 63.562 -8.8314 63.596 -8.82887 63.6299C-8.82843 63.6358 -8.82798 63.6418 -8.82754 63.6477C-8.76536 64.4813 -8.7059 65.3149 -8.7059 66.1485C-8.68618 66.7297 -8.79883 67.2493 -9.01684 67.715C-9.27547 68.2675 -9.68236 68.7442 -10.1924 69.1579C-10.6916 69.5628 -11.2896 69.9074 -11.9442 70.2038C-11.9795 70.2198 -12.0149 70.2356 -12.0505 70.2513C-12.2295 70.3302 -12.4125 70.4056 -12.5986 70.4778C-13.9814 70.9858 -15.5084 71.2701 -17.1796 71.109C-17.195 71.1075 -17.2104 71.106 -17.2258 71.1044C-17.5278 71.071 -17.8299 71.067 -18.1338 71.081C-18.147 71.0816 -18.1603 71.0822 -18.1736 71.0829C-18.6163 71.1055 -19.0631 71.165 -19.5198 71.2259C-19.8036 71.2637 -20.0913 71.302 -20.3841 71.3323C-20.544 71.3571 -20.7039 71.3819 -20.8516 71.4161C-20.8723 71.4209 -20.8928 71.4259 -20.9129 71.431C-21.0797 71.4739 -21.2279 71.531 -21.3389 71.6171C-21.6327 71.9019 -21.9999 72.3007 -21.9999 72.5855C-21.9999 73.0982 -21.3389 73.1552 -20.7513 73.0982C-20.5704 73.0874 -20.3922 73.0766 -20.2156 73.0654C-20.212 73.0652 -20.2085 73.065 -20.2049 73.0648C-20.1753 73.0629 -20.1457 73.061 -20.1162 73.0591C-20.0611 73.0556 -20.0062 73.052 -19.9514 73.0483C-19.2894 73.0042 -18.6436 72.9519 -17.9603 72.8703C-17.7778 72.8527 -17.5969 72.8405 -17.4174 72.8333C-17.4118 72.8331 -17.4062 72.8329 -17.4006 72.8327C-17.2459 72.8268 -17.0921 72.8246 -16.9393 72.8259C-15.564 72.8379 -14.2649 73.1306 -12.9659 73.497C-12.2314 73.7248 -11.4969 74.1805 -11.1297 74.6932C-11.0821 74.7502 -11.0346 74.8072 -10.9871 74.8642C-10.9309 74.9317 -10.8748 74.9993 -10.819 75.067C-10.7867 75.1061 -10.7545 75.1453 -10.7224 75.1845C-10.0614 75.992 -9.4518 76.8128 -9.14658 77.7124C-9.02457 78.0594 -8.90819 78.4074 -8.79626 78.7563C-8.54014 79.5546 -8.30738 80.3571 -8.08398 81.1601C-8.0719 81.2035 -8.05986 81.2469 -8.04783 81.2903C-7.91905 81.7552 -7.79315 82.2202 -7.66741 82.6847C-7.65413 82.7337 -7.64085 82.7828 -7.62757 82.8318ZM-5.3389 73.9981C-5.67553 73.4421 -6.03209 72.9459 -6.35842 72.5243C-6.14379 72.3221 -5.93513 72.1079 -5.73508 71.8814C-5.56272 72.0439 -5.38578 72.204 -5.20411 72.3616C-4.88494 72.6384 -4.55575 72.9033 -4.21643 73.1564C-4.61198 73.4224 -4.98616 73.7032 -5.3389 73.9981Z" fill="#CD4631"/>
<path fill-rule="evenodd" clip-rule="evenodd" d="M35.9613 93.2614C36.013 93.4505 36.0642 93.6396 36.1154 93.8285C36.2117 94.1842 36.3079 94.5394 36.4071 94.8931C36.4185 94.9339 36.43 94.9747 36.4415 95.0155C36.4814 95.1565 36.5218 95.2974 36.563 95.4379C36.5925 95.541 36.6125 95.644 36.6322 95.7459C36.6617 95.8986 36.6907 96.0487 36.7508 96.192C36.7688 96.2346 36.7894 96.2767 36.8137 96.3181C36.8206 96.3299 36.8279 96.3416 36.8354 96.3533C36.9262 96.5293 37.2439 96.7406 37.4255 96.7406C37.6071 96.7406 37.9248 96.4941 37.9248 96.3181C37.9436 96.1436 37.9468 95.963 37.9442 95.7814C37.9435 95.7345 37.9424 95.6875 37.9411 95.6404C37.9393 95.5745 37.937 95.5087 37.9348 95.4431C37.9302 95.3095 37.9256 95.1771 37.9249 95.0477C37.9249 95.0448 37.9249 95.0418 37.9249 95.0389C37.9248 95.031 37.9248 95.0232 37.9248 95.0155C37.9702 94.4521 38.0156 93.8888 38.1064 93.3255C38.1265 93.2229 38.1497 93.1216 38.1762 93.0217C38.3676 92.3013 38.7299 91.6549 39.2984 91.1008C39.5429 90.8625 39.8255 90.6413 40.1491 90.4386C40.2376 90.3826 40.3259 90.3265 40.4142 90.2704C40.527 90.1987 40.6397 90.1271 40.7526 90.056C41.1115 89.83 41.473 89.6095 41.8485 89.4096C42.5418 89.0404 43.2828 88.7414 44.1438 88.6078C44.1776 88.6026 44.2123 88.5958 44.2475 88.5876C44.2641 88.5837 44.2807 88.5795 44.2975 88.575C44.4835 88.5247 44.6729 88.4362 44.7793 88.3262C44.7979 88.3045 44.8175 88.2821 44.8376 88.2592C45.0134 88.0579 45.2286 87.8116 45.1878 87.622C45.1425 87.4108 44.7793 87.1292 44.4615 87.0939C44.2678 87.0662 44.0787 87.0348 43.8944 87C43.6791 86.9594 43.4702 86.9141 43.2674 86.8642C43.1759 86.8416 43.0856 86.8182 42.9966 86.7938C42.5181 86.6629 42.075 86.5057 41.664 86.3244C41.2917 86.1601 40.9458 85.9761 40.6239 85.7741C40.0899 85.439 39.622 85.0544 39.2094 84.628C38.902 84.3102 38.6252 83.9693 38.3746 83.6085C38.3525 83.5766 38.3305 83.5445 38.3088 83.5123C37.9013 82.9086 37.5647 82.2511 37.2786 81.5545C37.2514 81.4884 37.2248 81.422 37.1985 81.3553C37.1635 81.2647 37.1308 81.173 37.0999 81.0804C37.0988 81.0773 37.0978 81.0743 37.0968 81.0712C36.9514 80.6332 36.8473 80.1745 36.7439 79.7186C36.7387 79.6956 36.7335 79.6727 36.7283 79.6497C36.7113 79.5749 36.6942 79.5002 36.677 79.4256C36.6546 79.3291 36.6319 79.2329 36.6084 79.1372C36.5824 79.0902 36.5631 79.0432 36.5478 78.9964C36.5389 78.9692 36.5314 78.9421 36.5248 78.9151C36.5135 78.8691 36.5048 78.8235 36.4962 78.7784C36.473 78.6573 36.4508 78.5406 36.3814 78.4331C36.2453 78.2571 35.9729 78.0458 35.7913 78.081C35.6097 78.081 35.3828 78.3275 35.2466 78.5035C35.1788 78.6087 35.1869 78.7335 35.1954 78.8633C35.1983 78.9073 35.2012 78.9518 35.2012 78.9964C35.2051 79.06 35.209 79.1233 35.2129 79.1864C35.2159 79.2345 35.2189 79.2824 35.2218 79.3302C35.2248 79.3787 35.2279 79.4272 35.2309 79.4755C35.2394 79.6123 35.248 79.7484 35.2565 79.8843C35.2608 79.9522 35.265 80.0201 35.2693 80.088C35.292 80.4488 35.3147 80.8096 35.3374 81.1792C35.3499 81.4022 35.3658 81.6252 35.3824 81.8482C35.3859 81.8951 35.3894 81.942 35.3929 81.989C35.3944 82.0099 35.396 82.0309 35.3976 82.0519C35.3978 82.0555 35.3981 82.0592 35.3984 82.0629C35.4368 82.5781 35.4736 83.0933 35.4736 83.6085C35.4916 84.1391 35.3311 84.5866 35.0458 84.9665C34.9901 85.0407 34.9296 85.1124 34.8647 85.1816C34.5094 85.5605 34.0232 85.8653 33.4722 86.1148C33.4504 86.1247 33.4285 86.1345 33.4065 86.1442C33.2958 86.193 33.1827 86.2396 33.0677 86.2842C32.4117 86.5252 31.7032 86.6847 30.9421 86.7008C30.7026 86.7059 30.4578 86.6968 30.2079 86.6715C30.0212 86.6508 29.8346 86.6483 29.6467 86.657C29.6385 86.6573 29.6303 86.6577 29.6221 86.6581C29.3485 86.6721 29.0723 86.7089 28.7901 86.7465C28.6147 86.7699 28.4369 86.7936 28.256 86.8123C28.1571 86.8276 28.0583 86.843 27.967 86.8641C27.9542 86.8671 27.9416 86.8701 27.9291 86.8733C27.826 86.8998 27.7344 86.9351 27.6658 86.9883C27.4843 87.1644 27.2573 87.4108 27.2573 87.5868C27.2573 87.9037 27.6658 87.9389 28.029 87.9037C28.1408 87.897 28.2509 87.8904 28.3601 87.8835C28.3623 87.8833 28.3645 87.8832 28.3667 87.883C28.385 87.8819 28.4033 87.8807 28.4215 87.8795C28.4555 87.8773 28.4895 87.8751 28.5234 87.8729C28.9325 87.8456 29.3316 87.8133 29.754 87.7629C29.8667 87.7519 29.9786 87.7444 30.0895 87.74C30.0929 87.7398 30.0964 87.7397 30.0998 87.7396C30.4239 87.7272 30.7406 87.7415 31.0523 87.7755C31.6609 87.842 32.2508 87.9838 32.8407 88.1501C33.2947 88.291 33.7486 88.5726 33.9756 88.8895C34.005 88.9247 34.0343 88.9599 34.0637 88.9951C34.0984 89.0369 34.1331 89.0787 34.1676 89.1205C34.3371 89.3259 34.5024 89.5323 34.6528 89.7427C34.8255 89.9844 34.9784 90.2313 35.0948 90.4876C35.1348 90.5757 35.1705 90.6649 35.2012 90.7554C35.4492 91.4606 35.6595 92.1731 35.8579 92.8863C35.8654 92.9131 35.8728 92.9399 35.8803 92.9667C35.9075 93.065 35.9345 93.1632 35.9613 93.2614Z" fill="black"/>
</g>
<g opacity="0.2">
<path fill-rule="evenodd" clip-rule="evenodd" d="M329.128 446.545C329.109 446.613 329.09 446.682 329.07 446.75C328.901 447.347 328.73 447.944 328.555 448.539C328.43 448.976 328.346 449.412 328.263 449.844C328.137 450.491 328.015 451.127 327.76 451.733C327.684 451.914 327.596 452.092 327.494 452.268C327.464 452.318 327.434 452.367 327.402 452.417C327.017 453.163 325.671 454.057 324.902 454.057C324.133 454.057 322.787 453.013 322.787 452.268C322.708 451.528 322.694 450.764 322.705 449.994C322.708 449.796 322.712 449.596 322.718 449.397C322.726 449.118 322.735 448.839 322.745 448.561C322.764 447.995 322.784 447.434 322.787 446.886C322.787 446.874 322.787 446.861 322.787 446.849C322.787 446.816 322.787 446.783 322.787 446.75C322.754 446.341 322.721 445.932 322.687 445.523C322.523 443.546 322.336 441.569 322.018 439.591C321.993 439.466 321.968 439.341 321.941 439.216C320.918 434.458 318.237 430.414 313.365 427.362C312.99 427.125 312.616 426.888 312.242 426.65C308.877 424.511 305.534 422.386 301.685 420.973C300.927 420.694 300.149 420.444 299.348 420.226C298.414 419.972 297.448 419.763 296.444 419.607C296.301 419.585 296.154 419.556 296.005 419.522C295.934 419.505 295.864 419.487 295.793 419.468C295.005 419.255 294.202 418.88 293.752 418.414C293.673 418.323 293.59 418.228 293.505 418.13C292.76 417.278 291.849 416.235 292.021 415.432C292.214 414.537 293.752 413.344 295.098 413.195C295.919 413.077 296.719 412.944 297.5 412.797C298.373 412.632 299.22 412.449 300.044 412.249C300.066 412.243 300.087 412.238 300.109 412.233C300.114 412.232 300.118 412.231 300.123 412.229C300.74 412.078 301.343 411.917 301.933 411.746C313.761 408.322 320.378 401.013 324.598 391.859C325.046 390.888 325.466 389.896 325.863 388.886C326.012 388.502 326.151 388.114 326.281 387.722C326.286 387.709 326.29 387.696 326.294 387.683C326.838 386.046 327.245 384.34 327.634 382.635C327.686 382.407 327.738 382.18 327.789 381.953C327.811 381.856 327.833 381.759 327.856 381.661C327.928 381.344 328 381.028 328.073 380.712C328.167 380.303 328.264 379.896 328.363 379.49C328.473 379.291 328.555 379.092 328.62 378.894C328.658 378.779 328.689 378.664 328.718 378.55C328.765 378.355 328.802 378.161 328.839 377.971C328.937 377.457 329.031 376.963 329.325 376.508C329.901 375.762 331.055 374.867 331.824 375.016C332.593 375.016 333.555 376.06 334.132 376.806C334.419 377.252 334.384 377.78 334.349 378.33C334.336 378.516 334.324 378.705 334.324 378.894C334.307 379.163 334.291 379.431 334.274 379.699C334.262 379.902 334.249 380.105 334.237 380.308C334.224 380.513 334.211 380.719 334.198 380.923C334.162 381.503 334.126 382.079 334.09 382.655C334.073 382.93 334.055 383.204 334.038 383.479C334.037 383.492 334.036 383.505 334.036 383.518C333.939 385.046 333.843 386.575 333.747 388.14C333.683 389.284 333.598 390.427 333.512 391.57C333.506 391.659 333.499 391.748 333.492 391.837C333.491 391.852 333.49 391.868 333.489 391.883C333.435 392.598 333.383 393.313 333.336 394.028C333.241 395.495 333.17 396.963 333.17 398.43C332.995 403.6 336.82 406.908 341.872 409.147C341.89 409.155 341.908 409.163 341.926 409.171C342.395 409.378 342.874 409.576 343.361 409.765C347.015 411.107 351.053 411.852 355.475 411.405C356.266 411.317 357.057 411.307 357.852 411.344C357.887 411.345 357.922 411.347 357.957 411.349C358.663 411.385 359.374 411.457 360.092 411.544C360.552 411.599 361.014 411.661 361.481 411.723C362.224 411.822 362.977 411.922 363.744 412.002C364.162 412.067 364.581 412.131 364.968 412.221C365.022 412.234 365.075 412.247 365.128 412.26C365.565 412.372 365.953 412.522 366.243 412.747C367.012 413.493 367.974 414.537 367.974 415.283C367.974 416.625 366.243 416.774 364.705 416.625C364.232 416.597 363.765 416.568 363.303 416.539C363.293 416.538 363.284 416.538 363.275 416.537C363.197 416.532 363.12 416.527 363.042 416.522C362.898 416.513 362.754 416.504 362.611 416.494C361.456 416.417 360.321 416.331 359.163 416.219C358.582 416.162 357.996 416.099 357.398 416.028C356.92 415.982 356.447 415.95 355.977 415.931C355.962 415.931 355.948 415.93 355.933 415.93C351.88 415.775 348.102 416.603 344.323 417.669C343.533 417.914 342.743 418.259 342.02 418.675C340.982 419.271 340.082 420.01 339.516 420.8C337.401 423.336 335.285 425.871 334.324 428.705C333.044 432.345 332.001 436.031 330.997 439.712C330.814 440.382 330.633 441.052 330.452 441.722C330.044 443.229 329.636 444.733 329.216 446.232C329.187 446.336 329.157 446.441 329.128 446.545ZM325.662 426.621C325.756 426.347 325.85 426.075 325.945 425.803C327.458 421.386 330.512 417.741 332.394 415.495C332.448 415.43 332.502 415.366 332.554 415.304C332.772 415.018 333 414.742 333.237 414.476C330.364 412.532 327.631 409.909 325.96 406.404C324.519 408.153 322.914 409.819 321.121 411.374C318.732 413.446 316.088 415.251 313.172 416.775C314.505 417.57 315.737 418.358 316.873 419.085C317.291 419.352 317.696 419.611 318.089 419.859C321.156 421.782 323.676 424.057 325.662 426.621Z" fill="#81ADC8"/>
<path fill-rule="evenodd" clip-rule="evenodd" d="M353.628 466.832C353.485 467.358 353.342 467.884 353.196 468.407C353.177 468.473 353.158 468.539 353.14 468.605C353.075 468.833 353.01 469.061 352.943 469.289C352.895 469.455 352.863 469.622 352.831 469.787C352.783 470.034 352.737 470.277 352.639 470.509C352.61 470.578 352.577 470.646 352.538 470.713C352.526 470.732 352.515 470.751 352.502 470.77C352.356 471.055 351.841 471.396 351.548 471.396C351.254 471.396 350.74 470.998 350.74 470.713C350.709 470.43 350.704 470.138 350.708 469.844C350.709 469.769 350.711 469.692 350.713 469.616C350.716 469.51 350.72 469.403 350.724 469.297C350.731 469.081 350.738 468.867 350.74 468.657C350.74 468.653 350.74 468.648 350.74 468.643C350.74 468.63 350.74 468.618 350.74 468.605C350.682 467.885 350.624 467.164 350.529 466.444C350.504 466.253 350.477 466.062 350.446 465.871C350.261 464.922 349.907 464.047 349.357 463.258C348.817 462.483 348.087 461.792 347.141 461.2C346.998 461.109 346.855 461.018 346.712 460.928C346.136 460.562 345.562 460.197 344.971 459.857C344.469 459.567 343.955 459.296 343.417 459.058C342.575 458.685 341.676 458.392 340.677 458.238C340.623 458.229 340.567 458.218 340.51 458.205C340.483 458.198 340.456 458.192 340.429 458.184C340.128 458.103 339.821 457.96 339.649 457.782C339.619 457.747 339.587 457.711 339.555 457.673C339.27 457.348 338.922 456.949 338.988 456.642C339.062 456.301 339.649 455.845 340.163 455.788C340.477 455.743 340.783 455.692 341.081 455.636C341.429 455.57 341.767 455.497 342.095 455.416C342.243 455.38 342.39 455.342 342.534 455.302C342.932 455.193 343.315 455.073 343.684 454.942C344.216 454.753 344.718 454.542 345.192 454.309C347.071 453.388 348.511 452.138 349.643 450.655C349.77 450.489 349.893 450.32 350.012 450.148C350.048 450.097 350.083 450.045 350.119 449.993C350.84 448.923 351.425 447.75 351.915 446.503C351.972 446.356 352.025 446.208 352.075 446.058C352.076 446.053 352.078 446.048 352.08 446.043C352.106 445.964 352.132 445.884 352.156 445.803C352.353 445.168 352.502 444.509 352.651 443.855C352.659 443.817 352.667 443.78 352.676 443.743C352.703 443.622 352.731 443.501 352.759 443.381C352.795 443.224 352.832 443.069 352.87 442.914C352.912 442.838 352.943 442.762 352.968 442.686C352.982 442.642 352.994 442.598 353.005 442.555C353.023 442.48 353.037 442.406 353.051 442.333C353.089 442.137 353.125 441.949 353.237 441.775C353.457 441.49 353.898 441.148 354.192 441.205C354.486 441.205 354.853 441.604 355.073 441.889C355.183 442.059 355.17 442.261 355.156 442.471C355.151 442.542 355.147 442.614 355.147 442.686C355.14 442.789 355.134 442.891 355.128 442.994C355.123 443.071 355.118 443.149 355.113 443.226C355.108 443.305 355.103 443.383 355.099 443.461C355.085 443.683 355.071 443.903 355.057 444.123C355.05 444.233 355.043 444.342 355.036 444.452C355 445.028 354.964 445.605 354.928 446.195C354.927 446.203 354.927 446.21 354.926 446.218C354.902 446.655 354.869 447.091 354.836 447.528C354.834 447.562 354.831 447.596 354.829 447.63C354.828 447.636 354.828 447.642 354.828 447.648C354.765 448.481 354.706 449.315 354.706 450.148C354.686 450.73 354.799 451.249 355.017 451.715C355.275 452.268 355.682 452.744 356.192 453.158C356.692 453.563 357.29 453.907 357.944 454.204C357.979 454.22 358.015 454.236 358.05 454.251C358.229 454.33 358.412 454.406 358.599 454.478C359.981 454.986 361.508 455.27 363.18 455.109C363.195 455.108 363.21 455.106 363.226 455.104C363.528 455.071 363.83 455.067 364.134 455.081C364.147 455.082 364.16 455.082 364.174 455.083C364.616 455.105 365.063 455.165 365.52 455.226C365.804 455.264 366.091 455.302 366.384 455.332C366.544 455.357 366.704 455.382 366.852 455.416C366.872 455.421 366.893 455.426 366.913 455.431C367.08 455.474 367.228 455.531 367.339 455.617C367.633 455.902 368 456.301 368 456.586C368 457.098 367.339 457.155 366.751 457.098C366.57 457.087 366.392 457.077 366.216 457.065C366.212 457.065 366.208 457.065 366.205 457.065C366.175 457.063 366.146 457.061 366.116 457.059C366.061 457.056 366.006 457.052 365.951 457.048C365.289 457.004 364.644 456.952 363.96 456.87C363.778 456.853 363.597 456.84 363.417 456.833C363.412 456.833 363.406 456.833 363.401 456.833C363.246 456.827 363.092 456.825 362.939 456.826C361.564 456.838 360.265 457.131 358.966 457.497C358.231 457.725 357.497 458.181 357.13 458.693C357.082 458.75 357.035 458.807 356.987 458.864C356.931 458.932 356.875 458.999 356.819 459.067C356.787 459.106 356.754 459.145 356.722 459.184C356.061 459.992 355.452 460.813 355.147 461.712C355.025 462.059 354.908 462.407 354.796 462.756C354.54 463.555 354.307 464.357 354.084 465.16C354.072 465.203 354.06 465.247 354.048 465.29C353.919 465.755 353.793 466.22 353.667 466.685C353.654 466.734 353.641 466.783 353.628 466.832ZM351.339 457.998C351.676 457.442 352.032 456.946 352.358 456.524C352.144 456.322 351.935 456.108 351.735 455.881C351.563 456.044 351.386 456.204 351.204 456.362C350.885 456.638 350.556 456.903 350.216 457.156C350.612 457.422 350.986 457.703 351.339 457.998Z" fill="#CD4631"/>
<path fill-rule="evenodd" clip-rule="evenodd" d="M310.039 477.262C309.987 477.451 309.936 477.64 309.885 477.829C309.788 478.184 309.692 478.54 309.593 478.893C309.582 478.934 309.57 478.975 309.559 479.016C309.519 479.157 309.478 479.298 309.437 479.438C309.407 479.541 309.388 479.644 309.368 479.746C309.338 479.899 309.309 480.049 309.249 480.192C309.231 480.235 309.211 480.277 309.186 480.318C309.179 480.33 309.172 480.342 309.165 480.354C309.074 480.53 308.756 480.741 308.575 480.741C308.393 480.741 308.075 480.494 308.075 480.318C308.056 480.144 308.053 479.963 308.056 479.782C308.056 479.735 308.058 479.688 308.059 479.641C308.061 479.575 308.063 479.509 308.065 479.443C308.07 479.31 308.074 479.177 308.075 479.048C308.075 479.045 308.075 479.042 308.075 479.039C308.075 479.031 308.075 479.023 308.075 479.016C308.03 478.452 307.984 477.889 307.894 477.326C307.874 477.223 307.85 477.122 307.824 477.022C307.632 476.302 307.27 475.655 306.702 475.101C306.457 474.863 306.174 474.642 305.851 474.439C305.762 474.383 305.674 474.327 305.586 474.271C305.473 474.199 305.36 474.127 305.247 474.056C304.888 473.83 304.527 473.61 304.152 473.41C303.458 473.041 302.717 472.742 301.856 472.608C301.822 472.603 301.788 472.596 301.753 472.588C301.736 472.584 301.719 472.58 301.703 472.575C301.517 472.525 301.327 472.436 301.221 472.326C301.202 472.305 301.183 472.282 301.162 472.259C300.987 472.058 300.771 471.812 300.812 471.622C300.858 471.411 301.221 471.129 301.538 471.094C301.732 471.066 301.921 471.035 302.106 471C302.321 470.96 302.53 470.914 302.733 470.864C302.824 470.842 302.914 470.818 303.003 470.794C303.482 470.663 303.925 470.506 304.336 470.325C304.708 470.16 305.054 469.976 305.376 469.774C305.91 469.439 306.378 469.055 306.791 468.628C307.098 468.31 307.375 467.97 307.625 467.609C307.648 467.577 307.669 467.545 307.691 467.513C308.099 466.909 308.435 466.251 308.721 465.555C308.749 465.489 308.775 465.422 308.801 465.355C308.836 465.265 308.869 465.173 308.9 465.081C308.901 465.078 308.902 465.075 308.903 465.071C309.049 464.633 309.153 464.175 309.256 463.719C309.261 463.696 309.267 463.673 309.272 463.65C309.289 463.575 309.306 463.5 309.323 463.426C309.345 463.329 309.368 463.233 309.392 463.137C309.418 463.09 309.437 463.043 309.452 462.997C309.461 462.969 309.469 462.942 309.475 462.915C309.487 462.869 309.495 462.824 309.504 462.779C309.527 462.658 309.549 462.541 309.619 462.433C309.755 462.257 310.027 462.046 310.209 462.081C310.39 462.081 310.617 462.328 310.753 462.504C310.821 462.609 310.813 462.734 310.805 462.864C310.802 462.908 310.799 462.952 310.799 462.997C310.795 463.06 310.791 463.124 310.787 463.187C310.784 463.235 310.781 463.283 310.778 463.33C310.775 463.379 310.772 463.427 310.769 463.476C310.761 463.613 310.752 463.749 310.744 463.885C310.739 463.952 310.735 464.02 310.731 464.088C310.708 464.449 310.685 464.81 310.663 465.179C310.65 465.402 310.634 465.625 310.618 465.848C310.614 465.895 310.611 465.942 310.607 465.989C310.606 466.01 310.604 466.031 310.602 466.052C310.602 466.056 310.602 466.059 310.602 466.063C310.563 466.578 310.526 467.094 310.526 467.609C310.508 468.139 310.669 468.587 310.954 468.967C311.01 469.041 311.07 469.113 311.135 469.182C311.491 469.561 311.977 469.866 312.528 470.115C312.55 470.125 312.572 470.135 312.594 470.144C312.704 470.193 312.817 470.24 312.932 470.284C313.588 470.525 314.297 470.685 315.058 470.701C315.297 470.706 315.542 470.697 315.792 470.672C315.979 470.651 316.165 470.649 316.353 470.657C316.361 470.658 316.37 470.658 316.378 470.658C316.651 470.672 316.928 470.709 317.21 470.747C317.385 470.77 317.563 470.794 317.744 470.813C317.843 470.828 317.942 470.843 318.033 470.864C318.046 470.867 318.058 470.87 318.071 470.874C318.174 470.9 318.266 470.935 318.334 470.989C318.516 471.165 318.743 471.411 318.743 471.587C318.743 471.904 318.334 471.939 317.971 471.904C317.859 471.897 317.749 471.891 317.64 471.884C317.638 471.884 317.636 471.883 317.633 471.883C317.615 471.882 317.597 471.881 317.578 471.88C317.544 471.878 317.511 471.875 317.477 471.873C317.067 471.846 316.668 471.814 316.246 471.763C316.133 471.752 316.021 471.745 315.911 471.74C315.907 471.74 315.904 471.74 315.9 471.74C315.576 471.727 315.259 471.742 314.948 471.776C314.339 471.842 313.749 471.984 313.159 472.15C312.705 472.291 312.251 472.573 312.024 472.89C311.995 472.925 311.966 472.96 311.936 472.995C311.902 473.037 311.867 473.079 311.832 473.121C311.663 473.326 311.498 473.533 311.347 473.743C311.174 473.985 311.022 474.232 310.905 474.488C310.865 474.576 310.83 474.665 310.799 474.756C310.551 475.461 310.34 476.173 310.142 476.887C310.135 476.913 310.127 476.94 310.12 476.967C310.093 477.065 310.066 477.163 310.039 477.262Z" fill="black"/>
</g>
</g>
<defs>
<clipPath id="clip0_2522_6306">
<rect width="360" height="474" fill="white"/>
</clipPath>
</defs>
</svg>
