<svg width="78" height="78" viewBox="0 0 78 78" fill="none" xmlns="http://www.w3.org/2000/svg">
<path d="M32.551 26.6524L32.551 26.6524C30.9786 22.115 29.9005 17.7749 29.3601 13.9653C28.8185 10.1469 28.8225 6.89815 29.3841 4.52583C29.5631 3.77003 29.8753 2.98614 30.2377 2.3295C30.6094 1.65616 30.9967 1.18428 31.2937 0.982882C31.7436 0.678148 32.375 0.648114 33.155 1.01755C33.9364 1.38768 34.7962 2.13481 35.5717 3.23258L36.0258 2.9118L35.5717 3.23259C36.98 5.22626 38.1743 8.24995 39.0556 12.0265C39.9348 15.794 40.4941 20.2734 40.6556 25.1496L40.6556 25.1496C40.6835 25.9921 40.7154 26.7583 40.7444 27.3145C40.7589 27.5919 40.7728 27.8207 40.7854 27.9818C40.7916 28.0608 40.798 28.1312 40.8048 28.185C40.8079 28.209 40.8129 28.2456 40.8212 28.2825C40.8242 28.2958 40.8342 28.3405 40.8563 28.3918C40.8654 28.4131 40.8941 28.4779 40.9534 28.5445C41.0082 28.606 41.1901 28.7742 41.4714 28.722C41.6017 28.6979 41.6867 28.6337 41.7106 28.6153C41.7454 28.5886 41.7699 28.5632 41.7823 28.5498C41.8078 28.5222 41.826 28.4971 41.8342 28.4856C41.8527 28.4596 41.8687 28.4334 41.8797 28.415C41.9033 28.3752 41.9312 28.3245 41.9609 28.2688C42.0214 28.1554 42.1027 27.9964 42.1981 27.8055C42.3896 27.4223 42.6446 26.8977 42.9171 26.3236C45.3005 21.3027 47.9881 16.9264 50.6732 13.5687C53.3695 10.1971 56.0214 7.90515 58.3181 6.97479L58.1093 6.45947L58.3181 6.97477C59.5908 6.4591 60.5238 6.55026 61.1121 6.95455C61.7004 7.35886 62.12 8.19721 62.095 9.57025C62.0499 12.048 60.8613 15.3455 58.6806 19.0715C56.509 22.7821 53.3876 26.8602 49.5553 30.8854C49.1169 31.3457 48.7186 31.7718 48.4296 32.0879C48.2856 32.2455 48.1663 32.3784 48.0822 32.4755C48.0409 32.5232 48.0035 32.5674 47.9749 32.6038C47.9617 32.6206 47.9429 32.6449 47.9253 32.6715C47.9174 32.6833 47.9006 32.7093 47.884 32.7431C47.8759 32.7595 47.8611 32.7914 47.8486 32.8334C47.84 32.8624 47.8106 32.9647 47.8347 33.0949C47.8869 33.3762 48.109 33.4857 48.1862 33.5149C48.2696 33.5463 48.3404 33.5498 48.3635 33.5508C48.4193 33.553 48.4646 33.5463 48.4782 33.5443C48.5155 33.5388 48.5515 33.5304 48.575 33.5246C48.6277 33.5117 48.6957 33.4925 48.7717 33.4699C48.9265 33.4239 49.1451 33.3549 49.4092 33.2689C49.9389 33.0966 50.6655 32.8517 51.462 32.5757C57.1745 30.596 62.4935 29.4231 66.8483 29.0905C71.24 28.7551 74.5247 29.2846 76.288 30.5653C76.9515 31.0473 77.2613 31.5437 77.3446 32.0137C77.4279 32.4842 77.3028 33.0326 76.8851 33.6558C76.0335 34.9261 74.0785 36.3291 71.0519 37.5824C68.9811 38.44 65.6841 39.2378 62.0452 39.8193C58.4145 40.3995 54.4855 40.7578 51.1665 40.752L51.1665 40.752C50.8173 40.7514 50.4965 40.7593 50.2595 40.7731C50.1433 40.7798 50.0356 40.7886 49.9513 40.8006C49.9136 40.8059 49.8559 40.8151 49.7983 40.8325C49.7754 40.8394 49.7098 40.8597 49.6397 40.905C49.6079 40.9255 49.3218 41.1148 49.3897 41.4808C49.4096 41.5881 49.4559 41.6622 49.4768 41.6931C49.5015 41.7296 49.5256 41.7561 49.5401 41.771C49.569 41.8009 49.5958 41.8222 49.6091 41.8324C49.6379 41.8547 49.6668 41.8733 49.6863 41.8856C49.7287 41.9121 49.7815 41.9422 49.838 41.9732C49.9532 42.0365 50.1138 42.1202 50.3055 42.2173C50.6902 42.4123 51.2161 42.6695 51.791 42.9423C57.8226 45.8058 62.9992 49.2031 66.5381 52.4095C68.309 54.014 69.6519 55.5546 70.4902 56.9404C71.3365 58.3394 71.6213 59.5007 71.4262 60.387C71.3262 60.8412 71.137 61.1821 70.8757 61.4361C70.6125 61.6918 70.2466 61.888 69.7498 62.0032C68.7372 62.238 67.2523 62.1192 65.265 61.5607L65.1146 62.0959L65.265 61.5607C60.5524 60.2362 53.5743 55.6312 47.2284 49.5814C46.7679 49.1424 46.3397 48.7436 46.02 48.4542C45.8608 48.3101 45.7253 48.1902 45.6249 48.1052C45.5758 48.0637 45.5287 48.0251 45.4888 47.9951C45.4704 47.9812 45.4426 47.9609 45.4115 47.9419C45.3972 47.9332 45.3677 47.9158 45.3294 47.8995C45.3102 47.8913 45.2769 47.8782 45.2339 47.8683C45.1976 47.8598 45.1117 47.8431 45.0044 47.863C44.6384 47.9309 44.5642 48.2659 44.5565 48.3029C44.5393 48.3846 44.5439 48.4531 44.5457 48.477C44.5501 48.537 44.5622 48.5942 44.5707 48.6312C44.5898 48.7141 44.6202 48.8179 44.6556 48.9288C44.7277 49.155 44.8353 49.4573 44.9611 49.7831L44.9611 49.7831C46.1565 52.8795 47.2306 56.6761 47.9907 60.2736C48.7526 63.8793 49.19 67.2433 49.1319 69.484C49.0686 71.9236 48.728 73.8474 48.1764 75.1885C47.6211 76.5386 46.9034 77.1894 46.1398 77.331C45.3762 77.4725 44.4729 77.1224 43.4705 76.0611C42.4747 75.007 41.467 73.3332 40.5333 71.0784C39.6757 69.0075 38.878 65.7103 38.2964 62.0712C37.7162 58.4403 37.3578 54.5111 37.3635 51.1919L37.3635 51.1919C37.3641 50.8426 37.3562 50.5218 37.3424 50.2848C37.3357 50.1686 37.3269 50.0609 37.315 49.9766C37.3096 49.939 37.3004 49.8812 37.283 49.8237C37.2761 49.8007 37.2558 49.7352 37.2106 49.6651C37.19 49.6333 37.0007 49.3471 36.6347 49.415C36.5274 49.4349 36.4532 49.4813 36.4224 49.5021C36.3858 49.5269 36.3593 49.551 36.3443 49.5655C36.3144 49.5945 36.2932 49.6213 36.2829 49.6346C36.2607 49.6635 36.2421 49.6923 36.2298 49.7119C36.2033 49.7542 36.1732 49.8071 36.1423 49.8636C36.079 49.9788 35.9955 50.1394 35.8985 50.331C35.7039 50.7157 35.4471 51.2416 35.1747 51.8164C32.7978 56.8317 30.1116 61.2072 27.4254 64.5659C24.7281 67.9386 22.0725 70.2333 19.7723 71.1652C18.4996 71.6809 17.5666 71.5897 16.9783 71.1854C16.3899 70.7811 15.9703 69.9427 15.9954 68.5697L15.4395 68.5596L15.9954 68.5697C16.0404 66.092 17.2291 62.7944 19.4097 59.0685C21.5813 55.3579 24.7028 51.2798 28.5351 47.2546C28.974 46.7937 29.3727 46.3651 29.6619 46.0452C29.806 45.8858 29.9259 45.7502 30.0108 45.6497C30.0524 45.6005 30.0909 45.5534 30.1209 45.5135C30.1348 45.4951 30.1551 45.4673 30.174 45.4362C30.1827 45.4219 30.2001 45.3924 30.2164 45.3542C30.2245 45.335 30.2376 45.3017 30.2476 45.2587C30.256 45.2224 30.2727 45.1366 30.2528 45.0294C30.1849 44.6632 29.8497 44.5891 29.8128 44.5814C29.7312 44.5643 29.6627 44.5688 29.6388 44.5706C29.5788 44.575 29.5216 44.5871 29.4846 44.5956C29.4016 44.6147 29.2978 44.6451 29.187 44.6805C28.9607 44.7526 28.6584 44.8603 28.3327 44.986C25.2365 46.1814 21.4402 47.2555 17.8428 48.0156C14.2374 48.7774 10.8736 49.2147 8.63299 49.1566C5.35824 49.0717 3.03018 48.4628 1.77979 47.5823C1.16638 47.1504 0.852974 46.6833 0.762103 46.2142C0.671323 45.7455 0.78253 45.1711 1.22917 44.4833C2.41605 42.6555 5.29255 40.9835 9.51255 39.7221C13.6971 38.4713 19.0829 37.6592 25.1255 37.4592C25.968 37.4313 26.7341 37.3994 27.2903 37.3704C27.5677 37.3559 27.7965 37.342 27.9575 37.3294C28.0365 37.3232 28.1069 37.3168 28.1607 37.31C28.1848 37.307 28.2214 37.3019 28.2582 37.2937C28.2716 37.2907 28.3162 37.2806 28.3675 37.2586C28.3888 37.2494 28.4537 37.2208 28.5202 37.1615C28.5818 37.1066 28.7499 36.9247 28.6978 36.6434C28.6736 36.5132 28.6094 36.4282 28.591 36.4042C28.5643 36.3695 28.539 36.345 28.5256 36.3326C28.498 36.307 28.4729 36.2888 28.4613 36.2806C28.4353 36.2621 28.4091 36.2461 28.3907 36.2352C28.351 36.2115 28.3002 36.1836 28.2446 36.1539C28.1312 36.0934 27.9722 36.0121 27.7812 35.9167C27.3981 35.7252 26.8735 35.4702 26.2994 35.1976C21.2787 32.814 16.9027 30.1262 13.5451 27.4408C10.1736 24.7444 7.88171 22.0922 6.95134 19.7954L6.95132 19.7954C6.43565 18.5226 6.52678 17.5895 6.93105 17.0012C7.33531 16.4128 8.17359 15.9932 9.54653 16.0183L9.54657 16.0183C12.0241 16.0634 15.3215 17.2522 19.0473 19.433C22.7577 21.6048 26.8357 24.7265 30.8608 28.5591C31.321 28.9974 31.7471 29.3957 32.0632 29.6847C32.2208 29.8288 32.3537 29.9481 32.4508 30.0323C32.4985 30.0736 32.5427 30.1109 32.579 30.1396C32.5958 30.1528 32.6202 30.1715 32.6468 30.1892C32.6586 30.197 32.6845 30.2139 32.7183 30.2305C32.7347 30.2386 32.7666 30.2535 32.8086 30.2659C32.8376 30.2745 32.94 30.304 33.0703 30.2798C33.3516 30.2277 33.4611 30.0054 33.4902 29.9283C33.5217 29.8449 33.5252 29.7741 33.5261 29.751C33.5283 29.6952 33.5217 29.6499 33.5197 29.6363C33.5142 29.599 33.5057 29.563 33.5 29.5395C33.487 29.4868 33.4678 29.4188 33.4452 29.3428C33.3992 29.188 33.3302 28.9694 33.2443 28.7053C33.0719 28.1756 32.827 27.4489 32.551 26.6524Z" fill="#212121" stroke="#989DA5" stroke-width="1.11199"/>
</svg>
