<svg width="18" height="17" viewBox="0 0 18 17" fill="none" xmlns="http://www.w3.org/2000/svg">
<path d="M14.9969 13.322H1.49691C1.23355 13.322 0.980973 13.2174 0.794749 13.0312C0.608526 12.8449 0.503906 12.5924 0.503906 12.329V2.868C0.503906 2.60464 0.608526 2.35207 0.794749 2.16584C0.980973 1.97962 1.23355 1.875 1.49691 1.875H10.8379V2.6H1.49691C1.42583 2.6 1.35766 2.62824 1.3074 2.6785C1.25714 2.72876 1.22891 2.79692 1.22891 2.868V12.325C1.22891 12.3961 1.25714 12.4642 1.3074 12.5145C1.35766 12.5648 1.42583 12.593 1.49691 12.593H14.9969C15.068 12.593 15.1362 12.5648 15.1864 12.5145C15.2367 12.4642 15.2649 12.3961 15.2649 12.325V4.843H15.9899V12.329C15.9899 12.5924 15.8853 12.8449 15.6991 13.0312C15.5128 13.2174 15.2603 13.322 14.9969 13.322Z" fill="#1B2124" stroke="#1B2124" stroke-width="0.4"/>
<path d="M15.6262 10.25H0.865234V10.975H15.6262V10.25Z" fill="#1B2124" stroke="#1B2124" stroke-width="0.4"/>
<path d="M5.59745 15.783L5.31845 15.112L5.45945 15.445L5.31445 15.112C5.68956 14.9343 5.9875 14.6266 6.153 14.2459C6.3185 13.8653 6.34033 13.4375 6.21445 13.042L6.91445 12.875C7.08259 13.437 7.04189 14.0409 6.79987 14.5753C6.55784 15.1097 6.1308 15.5386 5.59745 15.783ZM11.1765 15.783C10.645 15.5387 10.2195 15.111 9.97777 14.5784C9.73607 14.0457 9.69442 13.4438 9.86045 12.883L10.5855 13.05C10.4581 13.4445 10.4784 13.8719 10.6424 14.2526C10.8065 14.6334 11.1032 14.9416 11.4775 15.12L11.1765 15.783Z" fill="#1B2124" stroke="#1B2124" stroke-width="0.4"/>
<path d="M12.7676 15.8113H3.72756C3.63142 15.8113 3.53922 15.7731 3.47124 15.7051C3.40325 15.6372 3.36506 15.545 3.36506 15.4488C3.36506 15.3527 3.40325 15.2605 3.47124 15.1925C3.53922 15.1245 3.63142 15.0863 3.72756 15.0863H12.7686C12.8647 15.0863 12.9569 15.1245 13.0249 15.1925C13.0929 15.2605 13.1311 15.3527 13.1311 15.4488C13.1311 15.545 13.0929 15.6372 13.0249 15.7051C12.9569 15.7731 12.8647 15.8113 12.7686 15.8113H12.7676ZM5.42356 7.18431C5.09881 7.18431 4.78134 7.08801 4.51132 6.90759C4.24129 6.72716 4.03083 6.47071 3.90655 6.17068C3.78227 5.87064 3.74976 5.54049 3.81311 5.22197C3.87647 4.90346 4.03286 4.61088 4.26249 4.38124C4.49213 4.1516 4.78471 3.99522 5.10322 3.93186C5.42174 3.86851 5.75189 3.90102 6.05193 4.0253C6.35197 4.14958 6.60841 4.36004 6.78884 4.63007C6.96926 4.90009 7.06556 5.21756 7.06556 5.54231C7.06556 5.9778 6.89257 6.39545 6.58463 6.70338C6.2767 7.01132 5.85905 7.18431 5.42356 7.18431ZM5.42356 4.62531C5.2422 4.62531 5.0649 4.67909 4.9141 4.77985C4.7633 4.88062 4.64577 5.02383 4.57636 5.19139C4.50696 5.35895 4.4888 5.54333 4.52418 5.72121C4.55957 5.89909 4.6469 6.06249 4.77515 6.19073C4.90339 6.31897 5.06678 6.40631 5.24467 6.44169C5.42255 6.47708 5.60692 6.45892 5.77448 6.38951C5.94204 6.3201 6.08526 6.20257 6.18602 6.05177C6.28678 5.90097 6.34056 5.72368 6.34056 5.54231C6.34056 5.42189 6.31684 5.30265 6.27076 5.19139C6.22468 5.08014 6.15713 4.97905 6.07198 4.8939C5.98683 4.80874 5.88574 4.7412 5.77448 4.69512C5.66323 4.64903 5.54399 4.62531 5.42356 4.62531ZM8.37656 10.9723H2.47656V10.6103C2.50101 9.84355 2.82278 9.11637 3.37382 8.58263C3.92485 8.04888 4.66191 7.75044 5.42906 7.75044C6.19621 7.75044 6.93328 8.04888 7.48431 8.58263C8.03534 9.11637 8.35712 9.84355 8.38156 10.6103L8.37656 10.9723ZM3.22556 10.2473H7.62556C7.5405 9.72515 7.27249 9.25027 6.86945 8.90757C6.4664 8.56487 5.95461 8.3767 5.42556 8.3767C4.89652 8.3767 4.38472 8.56487 3.98168 8.90757C3.57864 9.25027 3.31062 9.72515 3.22556 10.2473ZM11.9616 6.57131L11.7336 6.47131C11.6685 6.43625 11.6145 6.38386 11.5774 6.31997C11.5404 6.25607 11.5217 6.18316 11.5236 6.10931V5.20331H11.1506C10.9718 5.20226 10.8007 5.13064 10.6744 5.00403C10.5482 4.87743 10.4771 4.70609 10.4766 4.52731V0.869312C10.4766 0.690556 10.5476 0.519122 10.674 0.392722C10.8004 0.266323 10.9718 0.195312 11.1506 0.195312H16.8236C17.0023 0.195312 17.1738 0.266323 17.3002 0.392722C17.4266 0.519122 17.4976 0.690556 17.4976 0.869312V4.53531C17.4965 4.71374 17.4252 4.88457 17.299 5.01074C17.1728 5.13691 17.002 5.20826 16.8236 5.20931H13.8916L11.9616 6.57131ZM11.2006 4.48331H12.2626V5.46531L13.6686 4.47231H16.7766V0.920313H11.2016L11.2006 4.48331Z" fill="#1B2124" stroke="#1B2124" stroke-width="0.4"/>
</svg>
