<svg width="18" height="16" viewBox="0 0 18 16" fill="none" xmlns="http://www.w3.org/2000/svg">
<path d="M1 15H17M2.23077 1V15M10.8462 1V15M15.7692 4.5V15M4.69231 3.91667H5.30769M4.69231 6.25H5.30769M4.69231 8.58333H5.30769M7.76923 3.91667H8.38462M7.76923 6.25H8.38462M7.76923 8.58333H8.38462M4.69231 15V12.375C4.69231 11.8918 5.10558 11.5 5.61539 11.5H7.46154C7.97134 11.5 8.38462 11.8918 8.38462 12.375V15M1.61538 1H11.4615M10.8462 4.5H16.3846M13.3077 7.41667H13.3138V7.4225H13.3077V7.41667ZM13.3077 9.75H13.3138V9.75583H13.3077V9.75ZM13.3077 12.0833H13.3138V12.0892H13.3077V12.0833Z" stroke="#1B2124" stroke-width="1.2" stroke-linecap="round" stroke-linejoin="round"/>
</svg>
