<svg width="48" height="48" viewBox="0 0 48 48" fill="none" xmlns="http://www.w3.org/2000/svg">
<path d="M5.99808 9.01884C5.34241 9.01621 4.69268 9.14307 4.08617 9.39216C3.47966 9.64125 2.92831 10.0077 2.46375 10.4704C1.99919 10.9331 1.63058 11.4829 1.37906 12.0884C1.12754 12.694 0.998072 13.3432 0.998077 13.9988V23.9988C0.994053 25.1525 1.39069 26.2718 2.12023 27.1654C2.84978 28.0591 3.86698 28.6718 4.99808 28.8988V31.9988C5.00208 32.3788 5.21808 32.7248 5.55808 32.8988C5.69408 32.9608 5.84608 32.9968 5.99808 32.9988C6.21513 33.0031 6.42702 32.9325 6.59808 32.7988L11.6581 28.9988H19.0181V33.9988C19.0181 35.3215 19.5421 36.5902 20.4755 37.5273C21.4088 38.4644 22.6755 38.9935 23.9981 38.9988H36.3381L41.3981 42.7988C41.569 42.9328 41.781 43.0035 41.9981 42.9988C42.1502 42.9969 42.3001 42.9628 42.4381 42.8988C42.6049 42.8145 42.7454 42.686 42.8442 42.5273C42.9429 42.3686 42.9962 42.1858 42.9981 41.9988V38.8788C44.1275 38.656 45.1443 38.0473 45.8741 37.1569C46.6039 36.2666 47.0013 35.1501 46.9981 33.9988V21.9988C47.0034 21.3407 46.8777 20.6882 46.6283 20.0791C46.3789 19.4701 46.0109 18.9168 45.5455 18.4514C45.0801 17.9861 44.5268 17.618 43.9178 17.3686C43.3088 17.1192 42.6562 16.9935 41.9981 16.9988H26.9981V13.9988C26.9981 13.3432 26.8686 12.694 26.6171 12.0884C26.3656 11.4829 25.997 10.9331 25.5324 10.4704C25.0679 10.0077 24.5165 9.64125 23.91 9.39216C23.3035 9.14307 22.6537 9.01621 21.9981 9.01884H5.99808Z" fill="#1B2124"/>
<path d="M6.00007 11.0213H22.0001C22.3931 11.0187 22.7827 11.0938 23.1466 11.2424C23.5105 11.391 23.8413 11.61 24.1202 11.887C24.399 12.164 24.6203 12.4934 24.7713 12.8563C24.9223 13.2191 25.0001 13.6083 25.0001 14.0013V17.0013H24.0001C23.3444 17.0013 22.6952 17.1308 22.0897 17.3823C21.4842 17.6338 20.9343 18.0024 20.4716 18.467C20.0089 18.9315 19.6425 19.4829 19.3934 20.0894C19.1443 20.6959 19.0174 21.3456 19.0201 22.0013V27.0013H11.3601C11.1462 27.0154 10.9396 27.0843 10.7601 27.2013L7.02007 30.0013V28.0013C7.01483 27.7343 6.90506 27.4799 6.71434 27.293C6.52361 27.106 6.26716 27.0013 6.00007 27.0013C5.60536 27.004 5.21406 26.9282 4.84888 26.7784C4.4837 26.6285 4.15193 26.4077 3.87282 26.1286C3.59372 25.8494 3.37284 25.5177 3.22301 25.1525C3.07319 24.7873 2.99741 24.396 3.00007 24.0013V14.0013C3.00006 13.6083 3.0778 13.2191 3.2288 12.8563C3.37981 12.4934 3.60111 12.164 3.87995 11.887C4.15879 11.61 4.48967 11.391 4.85353 11.2424C5.21739 11.0938 5.60705 11.0187 6.00007 11.0213Z" fill="#FCECDB"/>
<path d="M7.96164 15.0002C7.69643 15.0058 7.44428 15.1165 7.26069 15.308C7.07709 15.4994 6.97707 15.756 6.98264 16.0212C6.98821 16.2864 7.09891 16.5386 7.29039 16.7222C7.48186 16.9058 7.73843 17.0058 8.00364 17.0002H18.0036C18.2689 17.0002 18.5232 16.8949 18.7107 16.7073C18.8983 16.5198 19.0036 16.2654 19.0036 16.0002C19.0036 15.735 18.8983 15.4807 18.7107 15.2931C18.5232 15.1056 18.2689 15.0002 18.0036 15.0002H8.00364C7.98964 14.9999 7.97564 14.9999 7.96164 15.0002Z" fill="#543D11"/>
<path d="M24.003 19.001H42.003C42.3977 18.9984 42.789 19.0742 43.1542 19.224C43.5194 19.3738 43.8512 19.5947 44.1303 19.8738C44.4094 20.1529 44.6302 20.4847 44.7801 20.8499C44.9299 21.215 45.0057 21.6063 45.003 22.001V34.001C45.003 34.7967 44.6869 35.5598 44.1243 36.1224C43.5617 36.685 42.7987 37.001 42.003 37.001C41.7378 37.001 41.4834 37.1064 41.2959 37.2939C41.1084 37.4815 41.003 37.7358 41.003 38.001V40.001L37.263 37.201C37.0893 37.0725 36.8792 37.0025 36.663 37.001H24.003C23.61 37.0011 23.2208 36.9233 22.858 36.7723C22.4951 36.6213 22.1657 36.4 21.8887 36.1212C21.6118 35.8423 21.3927 35.5114 21.2441 35.1476C21.0955 34.7837 21.0204 34.3941 21.023 34.001V22.001C21.0204 21.608 21.0955 21.2184 21.2441 20.8545C21.3927 20.4906 21.6118 20.1598 21.8887 19.8809C22.1657 19.6021 22.4951 19.3808 22.858 19.2298C23.2208 19.0788 23.61 19.001 24.003 19.001Z" fill="#F7E0B4"/>
<path d="M7.99805 21.0188C7.73283 21.0188 7.47848 21.1242 7.29094 21.3117C7.1034 21.4992 6.99805 21.7536 6.99805 22.0188C6.99805 22.284 7.1034 22.5384 7.29094 22.7259C7.47848 22.9134 7.73283 23.0188 7.99805 23.0188H13.998C14.2633 23.0188 14.5176 22.9134 14.7052 22.7259C14.8927 22.5384 14.998 22.284 14.998 22.0188C14.998 21.7536 14.8927 21.4992 14.7052 21.3117C14.5176 21.1242 14.2633 21.0188 13.998 21.0188H7.99805ZM25.956 22.9988C25.6908 23.0044 25.4387 23.1151 25.2551 23.3065C25.0715 23.498 24.9715 23.7546 24.977 24.0198C24.9826 24.285 25.0933 24.5372 25.2848 24.7208C25.4763 24.9044 25.7328 25.0044 25.998 24.9988H39.998C40.2633 24.9988 40.5176 24.8934 40.7052 24.7059C40.8927 24.5184 40.998 24.264 40.998 23.9988C40.998 23.7336 40.8927 23.4792 40.7052 23.2917C40.5176 23.1042 40.2633 22.9988 39.998 22.9988H25.998C25.984 22.9985 25.97 22.9985 25.956 22.9988ZM25.956 26.9988C25.6908 27.0044 25.4387 27.1151 25.2551 27.3065C25.0715 27.498 24.9715 27.7546 24.977 28.0198C24.9826 28.285 25.0933 28.5372 25.2848 28.7208C25.4763 28.9044 25.7328 29.0044 25.998 28.9988H39.998C40.2633 28.9988 40.5176 28.8934 40.7052 28.7059C40.8927 28.5184 40.998 28.264 40.998 27.9988C40.998 27.7336 40.8927 27.4792 40.7052 27.2917C40.5176 27.1042 40.2633 26.9988 39.998 26.9988H25.998C25.984 26.9985 25.97 26.9985 25.956 26.9988ZM25.956 30.9988C25.6908 31.0044 25.4387 31.1151 25.2551 31.3065C25.0715 31.498 24.9715 31.7546 24.977 32.0198C24.9826 32.285 25.0933 32.5372 25.2848 32.7208C25.4763 32.9044 25.7328 33.0044 25.998 32.9988H39.998C40.2633 32.9988 40.5176 32.8934 40.7052 32.7059C40.8927 32.5184 40.998 32.264 40.998 31.9988C40.998 31.7336 40.8927 31.4792 40.7052 31.2917C40.5176 31.1042 40.2633 30.9988 39.998 30.9988H25.998C25.984 30.9985 25.97 30.9985 25.956 30.9988Z" fill="#543D11"/>
</svg>
