<svg width="1166" height="496" viewBox="0 0 1166 496" fill="none" xmlns="http://www.w3.org/2000/svg">
<path opacity="0.34" d="M308.224 406.984L307.409 406.405L308.224 406.985C305.851 410.321 299.103 419.662 293.226 427.744C260.62 472.579 217.093 541.323 189.628 591.364C89.5858 773.642 28.6805 957.152 8.02233 1138.49C2.79597 1184.36 1.75105 1202.5 1.37975 1253.8C-0.200667 1472.01 77.8269 1638.79 212.557 1706.33C249.966 1725.09 285.232 1734.76 329.486 1738.38C364.786 1741.28 380.167 1741.09 410.607 1737.38C511.929 1725.04 619.109 1677.22 729.602 1594.96C761.359 1571.31 776.282 1558.9 811.824 1526.55C889.98 1455.43 959.708 1373.73 1029.79 1271.14C1050.43 1240.93 1099.16 1159.51 1117.44 1124.69C1212.16 944.277 1266.23 773.787 1287.02 590.006C1292.49 541.606 1293.39 452.598 1288.84 408.079L1289.84 407.978L1288.84 408.079C1279.12 312.745 1258.09 238.998 1222.35 174.723C1172.65 85.348 1093.82 25.5957 1001.76 7.43904C991.829 5.4793 973.83 3.62505 955.831 2.42399C937.829 1.22282 919.929 0.68188 910.192 1.32781C808.729 8.05568 708.483 46.7241 596.404 122.457C540.45 160.265 468.041 223.195 413.952 281.038C378.422 319.031 328.287 378.757 308.224 406.984Z" stroke="#B5BBC5" stroke-width="2"/>
</svg>
