<svg width="203" height="5" viewBox="0 0 203 5" fill="none" xmlns="http://www.w3.org/2000/svg">
<path d="M4.41881 2.50981C6.02702 2.51516 7.63621 2.48244 9.24737 2.46459C9.90169 2.45745 10.556 2.44496 11.2094 2.43306L19.8485 2.28253C23.2942 2.22264 26.7402 2.15878 30.1866 2.09095L44.9522 1.8018C46.0805 1.77978 47.2088 1.76491 48.3371 1.74646L56.9398 1.60427L65.5445 1.46267C66.6669 1.44423 67.7903 1.42043 68.9127 1.40734L82.6416 1.25562L91.0827 1.16221C92.1834 1.14972 93.2881 1.13187 94.3888 1.12592C98.812 1.1037 103.235 1.0803 107.658 1.05571L120.755 0.986698C121.907 0.980748 123.061 0.983726 124.212 0.981941L132.762 0.970039C137.193 0.964089 141.624 0.95814 146.055 0.952191C147.504 0.952191 148.955 0.955758 150.403 0.956948L159.505 0.96825H160.258C153.426 1.00078 146.596 1.0343 139.767 1.0688L131.211 1.11283C129.98 1.11938 128.747 1.12057 127.519 1.13187C123.392 1.17154 119.265 1.2112 115.14 1.25086L100.831 1.38592C100.03 1.39366 99.2282 1.40972 98.428 1.42281L90.8088 1.54597C85.6576 1.62887 80.5059 1.71216 75.3534 1.79585C74.5907 1.80835 73.8299 1.82738 73.0672 1.84523L65.5189 2.02789C61.0116 2.13696 56.5046 2.24604 51.9979 2.35512C50.7553 2.38546 49.5137 2.4283 48.273 2.46519L39.6151 2.72102C35.9467 2.8293 32.2783 2.93779 28.6099 3.04647L13.2975 3.5153L9.62479 3.62775C7.43026 3.69498 5.24262 3.79255 3.05301 3.87704C2.82144 3.88596 2.62436 3.93653 2.62436 4.02756C2.62436 4.11859 2.82144 4.17392 3.05301 4.17749L5.4535 4.21379C5.35796 4.27864 5.3026 4.36148 5.29682 4.4482C5.29682 4.73438 6.01223 5.01759 6.86659 4.99915C13.125 4.8623 19.3815 4.71356 25.6448 4.60884L41.9584 4.33635L59.9917 4.03471L65.6697 3.93951C66.2156 3.93058 66.7635 3.91809 67.3094 3.91333C76.9948 3.82289 86.6795 3.73365 96.3636 3.64559L111.891 3.50281C113.762 3.48575 115.632 3.47167 117.501 3.46057L147.22 3.29754L159.953 3.22614C163.576 3.20591 167.202 3.19699 170.824 3.14939L179.803 3.0304C181.297 3.01077 182.793 2.99827 184.286 2.96496C187.683 2.88999 191.08 2.81304 194.478 2.73411L194.47 2.73828C194.381 2.78405 194.319 2.84612 194.293 2.91513C194.267 2.98414 194.279 3.05635 194.327 3.12084C194.472 3.26736 194.705 3.37409 194.978 3.41832C195.328 3.48946 195.703 3.50664 196.068 3.4683C196.809 3.36517 197.546 3.25966 198.281 3.15177L198.234 3.15892L198.398 3.13452L198.587 3.10656L198.518 3.11667L199.693 2.94294C200.103 2.88344 200.513 2.82395 200.921 2.75969C201.365 2.69187 201.791 2.60916 202.22 2.52884C202.704 2.43841 203 2.24028 203 2.05287C202.997 2.00004 202.976 1.94812 202.94 1.90019C202.903 1.85225 202.85 1.80928 202.785 1.77384C202.523 1.63142 202.194 1.54252 201.843 1.51978C201.464 1.49658 201.085 1.47874 200.704 1.46029C200.621 1.45672 200.535 1.45494 200.448 1.45494C200.19 1.45494 199.922 1.46743 199.675 1.47397C199.098 1.48825 198.525 1.518 197.948 1.53347L196.537 1.56917L192.736 1.66555C192.409 1.67388 192.081 1.68043 191.75 1.68816C191.858 1.64837 191.945 1.59211 192.005 1.52514C192.06 1.48063 192.094 1.42771 192.103 1.37223C192.117 1.33475 192.132 1.29667 192.147 1.25919C192.145 1.20922 192.121 1.16048 192.077 1.11818L192.175 1.10271C192.387 1.06241 192.582 0.993906 192.745 0.902214C192.813 0.867761 192.868 0.824674 192.906 0.775996C192.943 0.727318 192.963 0.674229 192.963 0.620491C192.963 0.566754 192.943 0.513674 192.906 0.464996C192.868 0.416317 192.813 0.373231 192.745 0.338778L192.496 0.225733C192.278 0.152782 192.04 0.104208 191.794 0.0823481C191.294 0.0220424 190.785 -0.00528447 190.276 0.000841789C189.853 0.000841789 189.427 0.0115488 189.008 0.0133337L187.181 0.0198793C186.319 0.0228541 185.458 0.0270185 184.595 0.0288034L177.764 0.0412954C175.622 0.0456584 173.48 0.0466529 171.338 0.0442731C169.392 0.0442731 167.445 0.0442731 165.499 0.0442731C157.738 0.0561724 149.978 0.0603402 142.218 0.0883036L124.761 0.147795C122.16 0.157314 119.559 0.171597 116.958 0.190636L99.4657 0.32034L94.4775 0.357225C93.5128 0.36496 92.549 0.382216 91.5843 0.39471L74.2961 0.624359L69.0191 0.695162C68.0337 0.707656 67.0483 0.730862 66.0628 0.749305L48.8909 1.07297C45.9346 1.1285 42.9807 1.18978 40.029 1.25681L24.8584 1.59238C20.4772 1.68876 16.0941 1.77086 11.7129 1.86249L9.62971 1.90473C8.50831 1.92793 7.38394 1.9434 6.26155 1.96125C5.26627 1.97672 4.26508 1.98683 3.26586 1.97731C3.1878 1.92202 3.08885 1.87889 2.97737 1.85156C2.86588 1.82422 2.74515 1.81348 2.62534 1.82024C1.98186 1.83809 1.33838 1.86249 0.695884 1.88688C0.568103 1.88048 0.439699 1.89345 0.322332 1.92462C0.204965 1.95579 0.102356 2.00417 0.0238272 2.06537C-0.074715 2.19091 0.141092 2.33489 0.510625 2.36642C0.789499 2.38963 1.06739 2.41402 1.34824 2.43663C1.62908 2.45923 1.91387 2.46459 2.19176 2.47351C2.94068 2.50207 3.67974 2.50743 4.41881 2.50981ZM181.479 1.65781H184.301C184.401 1.7394 184.531 1.80565 184.681 1.85118C184.317 1.86011 183.953 1.86844 183.589 1.8732L181.533 1.89997L172.553 2.01896C171.183 2.03681 169.813 2.06298 168.442 2.07072L162.019 2.10642L147.336 2.18793C137.838 2.24187 128.34 2.29463 118.841 2.3462C112.042 2.38427 105.242 2.45864 98.4428 2.52111L67.7036 2.80729C65.649 2.82633 63.5954 2.87215 61.5427 2.90665L44.1008 3.19997L26.9722 3.48793L25.3866 3.5147C26.9258 3.47107 28.4647 3.42843 30.0033 3.38679L46.1248 2.95424L51.7555 2.80372C52.7232 2.77814 53.6929 2.76148 54.6615 2.74065L71.4255 2.38367C72.5174 2.35987 73.6112 2.32953 74.704 2.31466L79.4271 2.2504L96.7124 2.01242L100.515 1.96065C100.849 1.95649 101.183 1.9559 101.517 1.95352L104.188 1.93448L121.509 1.81072C124.169 1.79168 126.83 1.76967 129.491 1.76193C138.076 1.73774 146.66 1.71473 155.245 1.69292C163.987 1.68062 172.732 1.66892 181.479 1.65781Z" fill="#C58F27"/>
</svg>
