<svg width="48" height="48" viewBox="0 0 48 48" fill="none" xmlns="http://www.w3.org/2000/svg">
<path d="M42.9899 21.9599L42.9599 22.7399L43.5899 23.1899C43.7699 23.3399 43.7399 23.6099 43.4999 23.6699L42.7799 23.8799L42.5399 24.5999C42.4799 24.8099 42.1799 24.8699 42.0599 24.6599L41.6099 24.0299H40.8299C40.5899 24.0299 40.4699 23.7599 40.6199 23.5799L41.0999 22.9799L40.8599 22.2599C40.7999 22.0499 41.0099 21.8399 41.2199 21.8999L41.9399 22.1699L42.5699 21.7199C42.7199 21.5999 42.9899 21.7199 42.9899 21.9599Z" fill="#A7B0B7"/>
<path d="M21.7798 0.810091V1.44009L22.2898 1.83009C22.4398 1.95009 22.4098 2.19009 22.2298 2.25009L21.6298 2.43009L21.4198 3.03009C21.3598 3.21009 21.1198 3.24009 20.9998 3.09009L20.6398 2.55009H19.9798C19.7998 2.55009 19.6798 2.34009 19.7998 2.19009L20.1898 1.68009L19.9798 1.08009C19.9198 0.900091 20.0998 0.720091 20.2798 0.780091L20.8798 0.990091L21.3898 0.630091C21.5698 0.510091 21.7798 0.630091 21.7798 0.810091Z" fill="#EFD299"/>
<path d="M29.3701 45.4199L23.3701 41.2199L17.3701 45.4199V24.4199H29.3701V45.4199Z" fill="#7A5818"/>
<path d="M29.3702 46.02C29.2502 46.02 29.1302 45.99 29.0402 45.9L23.3702 41.94L17.7002 45.9C17.5202 46.02 17.2802 46.05 17.0702 45.93C16.8602 45.84 16.7402 45.63 16.7402 45.39V24.39C16.7402 24.06 17.0102 23.79 17.3402 23.79H29.3402C29.6702 23.79 29.9402 24.06 29.9402 24.39V45.39C29.9402 45.6 29.8202 45.81 29.6102 45.93C29.5502 45.99 29.4602 46.02 29.3702 46.02ZM23.3702 40.62C23.4902 40.62 23.6102 40.65 23.7002 40.74L28.7702 44.28V25.02H17.9702V44.28L23.0402 40.74C23.1302 40.65 23.2502 40.62 23.3702 40.62Z" fill="#543D11"/>
<path opacity="0.1" d="M17.3701 35.88L18.8701 35.97L23.3701 38.85L27.8701 35.97L29.3701 35.88V24H17.3701V35.88Z" fill="black"/>
<path d="M24.0001 5.6399L27.3001 7.7399C27.4801 7.8599 27.6601 7.9199 27.8701 7.9199L31.8001 8.1299C32.2801 8.1599 32.6701 8.4599 32.8501 8.8799L34.2601 12.5099C34.3501 12.6899 34.4701 12.8699 34.6201 13.0199L37.6501 15.4799C38.0101 15.7799 38.1601 16.2599 38.0401 16.7099L37.0501 20.4599C36.9901 20.6699 36.9901 20.8799 37.0501 21.0899L38.1001 24.8999C38.2201 25.3499 38.0701 25.8299 37.7101 26.1299L34.6801 28.5899C34.5301 28.7099 34.3801 28.8899 34.3201 29.0999L32.9101 32.7299C32.7301 33.1799 32.3401 33.4799 31.8601 33.4799L27.9001 33.6899C27.6901 33.6899 27.4801 33.7799 27.3301 33.8699L24.0301 35.9699C23.6401 36.2099 23.1301 36.2099 22.7401 35.9699L19.4401 33.8699C19.2601 33.7499 19.0801 33.6899 18.8701 33.6899L14.9401 33.4799C14.4601 33.4499 14.0701 33.1499 13.8901 32.7299L12.4501 29.0999C12.3601 28.9199 12.2401 28.7399 12.0901 28.5899L9.06008 26.1299C8.70008 25.8299 8.55008 25.3499 8.67008 24.8999L9.66008 21.1499C9.72008 20.9399 9.72008 20.7299 9.66008 20.5199L8.67008 16.7699C8.55008 16.3199 8.70008 15.8399 9.06008 15.5399L12.0901 13.0799C12.2401 12.9599 12.3901 12.7799 12.4501 12.5699L13.8601 8.9399C14.0401 8.4899 14.4301 8.1899 14.9101 8.1899L18.8401 7.9799C19.0501 7.9799 19.2601 7.8899 19.4101 7.7999L22.7101 5.6999C23.1001 5.3699 23.6101 5.3699 24.0001 5.6399Z" fill="#EFD299"/>
<path d="M23.3698 36.7799C23.0398 36.7799 22.6798 36.6899 22.4098 36.5099L19.1098 34.4099C19.0198 34.3499 18.9298 34.3199 18.8098 34.3199L14.8798 34.1099C14.1898 34.0799 13.5598 33.6299 13.2898 32.9699L11.8798 29.3399C11.8498 29.2499 11.7898 29.1599 11.6998 29.0999L8.66984 26.6399C8.12984 26.1899 7.88984 25.4699 8.06984 24.7799L9.05984 21.0299C9.08984 20.9399 9.08984 20.8199 9.05984 20.7299L8.06984 16.9799C7.88984 16.2899 8.12984 15.5699 8.66984 15.1199L11.6998 12.5699C11.7898 12.5099 11.8498 12.4199 11.8798 12.3299L13.2898 8.69993C13.5598 8.03993 14.1598 7.58993 14.8798 7.55993L18.8098 7.34993C18.8998 7.34993 19.0198 7.31993 19.1098 7.25993L22.4098 5.15993C23.0098 4.76993 23.7598 4.76993 24.3598 5.15993L27.6598 7.25993C27.7498 7.31993 27.8398 7.34993 27.9598 7.34993L31.8898 7.55993C32.5798 7.58993 33.2098 8.03993 33.4798 8.69993L34.8898 12.3299C34.9198 12.4199 34.9798 12.5099 35.0698 12.5699L38.0998 15.0299C38.6398 15.4799 38.8798 16.1999 38.6998 16.8899L37.7098 20.6399C37.6798 20.7299 37.6798 20.8499 37.7098 20.9399L38.6998 24.6899C38.8798 25.3799 38.6398 26.0999 38.0998 26.5499L35.0698 29.0099C34.9798 29.0699 34.9198 29.1599 34.8898 29.2499L33.4798 32.8799C33.2098 33.5399 32.6098 33.9899 31.8898 34.0199L27.9598 34.2299C27.8698 34.2299 27.7498 34.2599 27.6598 34.3199L24.3598 36.4199C24.0298 36.6899 23.6998 36.7799 23.3698 36.7799ZM23.3698 6.02993C23.2498 6.02993 23.1298 6.05993 23.0398 6.11993L19.7398 8.21993C19.4698 8.39993 19.1698 8.48993 18.8698 8.48993L14.9398 8.69993C14.6998 8.69993 14.4898 8.84993 14.3998 9.08993L12.9898 12.7199C12.8698 13.0199 12.6898 13.2599 12.4498 13.4699L9.41984 15.9299C9.23984 16.0799 9.14984 16.3199 9.20984 16.5599L10.1998 20.3099C10.2898 20.6099 10.2898 20.9399 10.1998 21.2399L9.20984 24.9899C9.14984 25.2299 9.23984 25.4699 9.41984 25.6199L12.4498 28.0799C12.6898 28.2899 12.8698 28.5299 12.9898 28.8299L14.3998 32.4599C14.4898 32.6699 14.6998 32.8199 14.9398 32.8499L18.8698 33.0599C19.1698 33.0899 19.4698 33.1799 19.7398 33.3299L23.0398 35.4299C23.2498 35.5499 23.4898 35.5499 23.6998 35.4299L26.9998 33.3299C27.2698 33.1499 27.5698 33.0599 27.8698 33.0599L31.7998 32.8499C32.0398 32.8499 32.2498 32.6999 32.3398 32.4599L33.7498 28.8299C33.8698 28.5299 34.0498 28.2899 34.2898 28.0799L37.3198 25.6199C37.4998 25.4699 37.5898 25.2299 37.5298 24.9899L36.5398 21.2399C36.4498 20.9399 36.4498 20.6099 36.5398 20.3099L37.5298 16.5599C37.5898 16.3199 37.4998 16.0799 37.3198 15.9299L34.2598 13.4999C34.0198 13.2899 33.8398 13.0499 33.7198 12.7499L32.3098 9.11993C32.2198 8.90993 32.0098 8.75993 31.7698 8.72993L27.8398 8.51993C27.5398 8.48993 27.2398 8.39993 26.9698 8.24993L23.6698 6.14993C23.5798 6.05993 23.4898 6.02993 23.3698 6.02993Z" fill="#543D11"/>
<path opacity="0.1" d="M23.37 33.42C30.3288 33.42 35.97 27.7788 35.97 20.82C35.97 13.8612 30.3288 8.21997 23.37 8.21997C16.4112 8.21997 10.77 13.8612 10.77 20.82C10.77 27.7788 16.4112 33.42 23.37 33.42Z" fill="black"/>
<path d="M23.3698 31.62C29.3345 31.62 34.1698 26.7847 34.1698 20.82C34.1698 14.8553 29.3345 10.02 23.3698 10.02C17.4051 10.02 12.5698 14.8553 12.5698 20.82C12.5698 26.7847 17.4051 31.62 23.3698 31.62Z" fill="white"/>
<path d="M23.3702 32.2199C17.0702 32.2199 11.9702 27.1199 11.9702 20.8199C11.9702 14.5199 17.0702 9.41992 23.3702 9.41992C29.6702 9.41992 34.7702 14.5199 34.7702 20.8199C34.7702 27.1199 29.6402 32.2199 23.3702 32.2199ZM23.3702 10.6199C17.7602 10.6199 13.1702 15.2099 13.1702 20.8199C13.1702 26.4299 17.7602 31.0199 23.3702 31.0199C28.9802 31.0199 33.5702 26.4299 33.5702 20.8199C33.5702 15.2099 28.9802 10.6199 23.3702 10.6199Z" fill="#543D11"/>
<path opacity="0.1" d="M29.0099 12.3301C29.6099 13.6501 29.9699 15.0901 29.9699 16.6201C29.9699 22.2601 25.4099 26.8201 19.7699 26.8201C17.6699 26.8201 15.7499 26.1901 14.1299 25.1101C15.7499 28.5901 19.2899 31.0201 23.3699 31.0201C29.0099 31.0201 33.5699 26.4601 33.5699 20.8201C33.5699 17.2801 31.7399 14.1601 29.0099 12.3301Z" fill="black"/>
<path d="M23.3698 14.8201L25.2598 18.5701L29.4598 19.1701L26.3998 22.0801L27.1198 26.2201L23.3698 24.2701L19.6198 26.2201L20.3398 22.0801L17.2798 19.1701L21.4798 18.5701L23.3698 14.8201Z" fill="#FFE4AA"/>
<path d="M27.1198 26.82C27.0298 26.82 26.9398 26.79 26.8498 26.76L23.3698 24.96L19.8898 26.76C19.6798 26.85 19.4398 26.85 19.2598 26.7C19.0798 26.58 18.9898 26.34 19.0198 26.1L19.6798 22.29L16.8598 19.59C16.6798 19.44 16.6198 19.2 16.7098 18.96C16.7998 18.72 16.9798 18.57 17.1898 18.54L21.0898 17.97L22.8298 14.49C23.0398 14.07 23.6998 14.07 23.9098 14.49L25.6498 17.97L29.5498 18.54C29.7898 18.57 29.9698 18.72 30.0298 18.96C30.0898 19.2 30.0298 19.41 29.8798 19.59L27.0598 22.29L27.7198 26.1C27.7498 26.31 27.6598 26.55 27.4798 26.7C27.3598 26.79 27.2398 26.82 27.1198 26.82ZM23.3698 23.67C23.4598 23.67 23.5498 23.7 23.6398 23.73L26.3098 25.11L25.8298 22.2C25.7998 21.99 25.8598 21.81 26.0098 21.66L28.1698 19.59L25.1998 19.17C25.0198 19.14 24.8398 19.02 24.7498 18.84L23.3998 16.17L22.0498 18.84C21.9598 19.02 21.7798 19.14 21.5998 19.17L18.5998 19.59L20.7598 21.66C20.9098 21.81 20.9698 21.99 20.9398 22.2L20.3998 25.14L23.0698 23.76C23.1898 23.7 23.2798 23.67 23.3698 23.67Z" fill="#543D11"/>
<path d="M38.5501 11.64C38.9477 11.64 39.2701 11.3176 39.2701 10.92C39.2701 10.5223 38.9477 10.2 38.5501 10.2C38.1524 10.2 37.8301 10.5223 37.8301 10.92C37.8301 11.3176 38.1524 11.64 38.5501 11.64Z" stroke="#A7B0B7" stroke-width="2" stroke-miterlimit="10"/>
<path d="M3.06021 19.86C3.18021 19.74 3.36022 19.74 3.48022 19.86L4.74022 21.12C4.86022 21.24 4.86022 21.42 4.74022 21.54C4.62022 21.66 4.44021 21.66 4.32021 21.54L3.06021 20.28C2.94021 20.16 2.94021 19.95 3.06021 19.86Z" fill="#A7B0B7"/>
<path d="M3.06021 21.54C2.94021 21.42 2.94021 21.24 3.06021 21.12L4.32021 19.86C4.44021 19.74 4.62022 19.74 4.74022 19.86C4.86022 19.98 4.86022 20.16 4.74022 20.28L3.48022 21.54C3.36022 21.66 3.18021 21.66 3.06021 21.54Z" fill="#A7B0B7"/>
<path d="M9.02996 10.7699C9.34476 10.7699 9.59996 10.5147 9.59996 10.1999C9.59996 9.88508 9.34476 9.62988 9.02996 9.62988C8.71516 9.62988 8.45996 9.88508 8.45996 10.1999C8.45996 10.5147 8.71516 10.7699 9.02996 10.7699Z" fill="#A7B0B7"/>
<path d="M43.53 14.67C43.8448 14.67 44.1 14.4148 44.1 14.1C44.1 13.7852 43.8448 13.53 43.53 13.53C43.2152 13.53 42.96 13.7852 42.96 14.1C42.96 14.4148 43.2152 14.67 43.53 14.67Z" fill="#A7B0B7"/>
<path d="M30.3298 3.56993C30.6446 3.56993 30.8998 3.31473 30.8998 2.99993C30.8998 2.68513 30.6446 2.42993 30.3298 2.42993C30.015 2.42993 29.7598 2.68513 29.7598 2.99993C29.7598 3.31473 30.015 3.56993 30.3298 3.56993Z" fill="#A7B0B7"/>
</svg>
