<svg width="380" height="272" viewBox="0 0 380 272" fill="none" xmlns="http://www.w3.org/2000/svg">
<g clip-path="url(#clip0_279_4030)">
<path opacity="0.5" d="M380 0H0V272H380V0Z" fill="white"/>
<path d="M172.031 11.5736C217.944 9.16643 259.961 21.9368 288.094 43.8056C332.785 58.7928 364.461 89.76 367.27 126.997C371.423 182.335 310.27 230.588 230.674 234.763C208.851 235.906 187.91 233.621 168.924 228.562C167.919 228.63 166.902 228.698 165.884 228.752C86.2737 232.927 18.3894 191.447 14.2094 136.122C11.8344 104.502 30.7665 75.208 62.2522 55.1208C86.9387 30.7904 126.445 13.9536 172.031 11.5736Z" fill="#D5F0FF"/>
<path fill-rule="evenodd" clip-rule="evenodd" d="M78.9857 98.8306C58.9543 88.8618 18.8236 70.4882 18.8643 72.0794C22.0943 72.8818 64.4371 92.3434 78.9586 103.808L78.9857 98.8306Z" fill="#4FBD9D"/>
<path fill-rule="evenodd" clip-rule="evenodd" d="M12.54 69.6045C14.1958 69.4413 15.8243 68.2445 17.6565 68.9109C19.5022 69.5773 20.7779 71.0869 21.1308 72.7461C19.7872 73.7933 17.8465 74.1061 16.0143 73.4397C14.1686 72.7733 13.7343 70.9373 12.54 69.6045ZM20.5879 79.1381C21.1986 78.0909 21.2122 76.6221 22.4065 75.8333C23.6008 75.0445 25.0258 74.9357 26.1522 75.4525C26.1793 76.6901 25.5279 77.9685 24.3472 78.7573C23.1393 79.5325 21.8772 79.0021 20.5879 79.1381ZM22.5286 68.8157C23.1665 69.4277 24.1979 69.6589 24.5643 70.6381C24.9308 71.6173 24.7543 72.6373 24.225 73.3445C23.3565 73.1677 22.5558 72.5013 22.2029 71.5357C21.8229 70.5565 22.4065 69.7541 22.5286 68.8157ZM30.0472 68.6933C29.8572 70.2437 28.7036 71.7533 29.3008 73.4941C29.8979 75.2349 31.2822 76.4589 32.8293 76.8125C33.82 75.5749 34.1593 73.7661 33.5622 72.0117C32.965 70.2709 31.255 69.8493 30.0472 68.6933ZM27.93 85.3805C28.8122 83.8845 28.8258 81.7765 30.5222 80.6341C32.2322 79.5053 34.2815 79.3557 35.8965 80.0901C35.9372 81.8581 35.0008 83.6941 33.3043 84.8365C31.5943 85.9653 29.7893 85.1901 27.93 85.3805ZM39.6422 69.1557C39.1943 71.3453 37.3758 73.3581 38.0272 75.9149C38.6786 78.4717 40.4972 80.3893 42.6686 81.0829C44.2429 79.4237 44.935 76.8805 44.2836 74.3237C43.6322 71.7669 41.2436 70.9373 39.6422 69.1557ZM34.5529 94.5469C36.005 92.1125 36.005 88.6445 38.8008 86.8085C41.5965 84.9589 44.935 84.7141 47.5815 85.9245C47.6493 88.8213 46.1293 91.8269 43.3336 93.6765C40.5243 95.5125 37.5793 94.2477 34.5529 94.5469ZM53.1322 68.7341C52.1686 71.9981 49.1286 74.8269 49.78 78.7981C50.4315 82.7693 52.9558 85.9109 56.1586 87.2709C58.7643 84.9589 60.1622 81.1781 59.5108 77.2069C58.8593 73.2357 55.3308 71.6581 53.1322 68.7341ZM42.9808 104.76C45.4643 101.456 46.0208 96.4645 50.3636 94.2341C54.6929 92.0037 59.565 92.2077 63.2022 94.3565C62.8358 98.5589 60.1622 102.653 55.8329 104.883C51.49 107.113 47.4186 104.801 42.9808 104.76ZM83.4643 97.2533C68.1015 71.1141 36.1543 20.5221 35.0143 22.3581C38.0815 25.6629 71.7386 79.1109 79.7729 102.87L83.4643 97.2533Z" fill="#4FBD9D"/>
<path fill-rule="evenodd" clip-rule="evenodd" d="M29.667 14.8781C31.662 15.9117 34.3898 15.7485 35.9913 17.8837C37.5791 20.0189 37.9184 22.6573 37.1041 24.8061C34.8241 24.9965 32.3813 23.9221 30.7798 21.8005C29.192 19.6653 30.047 17.2717 29.667 14.8781ZM31.7706 31.6333C33.2363 30.9125 34.3356 29.2396 36.2627 29.2261C38.2034 29.2125 39.8863 30.1645 40.782 31.5653C39.8998 32.9933 38.217 33.9588 36.2898 33.9725C34.3627 33.986 33.3313 32.4493 31.7706 31.6333ZM41.5827 21.3925C41.8541 22.5485 42.8584 23.5957 42.5598 24.9557C42.2477 26.3293 41.3113 27.3629 40.1713 27.7709C39.3163 26.9141 38.8956 25.5676 39.2077 24.194C39.5063 22.8341 40.7548 22.3581 41.5827 21.3925ZM50.2006 26.8053C48.857 28.4237 46.4277 29.2805 45.8306 31.7013C45.2198 34.1221 45.8848 36.5293 47.3641 38.0933C49.4134 37.4269 51.137 35.6181 51.7477 33.1973C52.3448 30.7765 50.7298 29.0085 50.2006 26.8053ZM35.5027 44.1724C37.6063 43.1388 39.167 40.7316 41.9491 40.7181C44.7177 40.7045 47.147 42.0509 48.4498 44.0773C47.1877 46.1173 44.772 47.5181 42.0034 47.5317C39.2213 47.5452 37.742 45.3284 35.5027 44.1724ZM60.732 34.4485C58.6148 36.5972 55.0591 37.5357 53.9191 40.9221C52.7656 44.2948 53.4306 47.8172 55.3713 50.2244C58.3706 49.5037 61.0441 47.1373 62.1977 43.7509C63.3377 40.3645 61.2477 37.6716 60.732 34.4485ZM36.222 59.4725C39.6556 57.7724 42.2206 53.8693 46.7534 53.842C51.2863 53.8013 55.2491 56.0317 57.3663 59.3364C55.3034 62.6684 51.3541 64.9396 46.8348 64.9804C42.302 65.0076 39.8863 61.3764 36.222 59.4725ZM76.3527 43.9549C72.8377 46.9469 67.3277 47.8988 65.1291 52.89C62.9306 57.8812 63.4734 63.3212 66.1063 67.2244C70.7613 66.5308 75.1313 63.2805 77.3298 58.2892C79.5284 53.298 76.692 48.9053 76.3527 43.9549ZM38.2577 77.3021C43.5098 75.3981 47.8256 70.1484 54.3941 70.8284C60.9491 71.5084 66.337 75.3437 68.8613 80.4708C65.3463 84.9725 59.2934 87.6244 52.7248 86.9444C46.1698 86.2644 43.252 80.6341 38.2577 77.3021Z" fill="#4FBD9D"/>
<path fill-rule="evenodd" clip-rule="evenodd" d="M88.9745 98.3959C84.8487 71.8759 75.0366 19.8287 73.5166 20.9575C74.9687 24.6839 85.2423 79.6415 84.1023 101.81L88.9745 98.3959Z" fill="#4FBD9D"/>
<path fill-rule="evenodd" clip-rule="evenodd" d="M71.5488 13.0557C72.8517 14.5653 75.1453 15.3269 75.7695 17.5981C76.3803 19.8693 75.8103 22.1541 74.4396 23.6501C72.4988 23.0653 70.8431 21.3789 70.2188 19.1077C69.5946 16.8365 71.0874 15.1501 71.5488 13.0557ZM67.8167 27.5261C69.2688 27.4037 70.7074 26.3973 72.2953 27.0093C73.8967 27.6349 74.9824 28.9677 75.2538 30.4229C74.0596 31.3069 72.3631 31.5517 70.7753 30.9397C69.1874 30.3141 68.8346 28.7093 67.8167 27.5261ZM79.2303 22.3037C79.081 23.3509 79.556 24.5341 78.8638 25.5541C78.1717 26.5877 77.0588 27.1317 75.9867 27.0909C75.566 26.1117 75.661 24.8741 76.3531 23.8405C77.0453 22.8205 78.2395 22.8341 79.2303 22.3037ZM84.5503 29.5797C82.9081 30.4637 80.6417 30.3821 79.366 32.1773C78.0767 33.9725 77.8324 36.1621 78.5517 37.9301C80.4517 38.0525 82.4603 37.1277 83.7495 35.3461C85.0253 33.5509 84.2653 31.5653 84.5503 29.5797ZM66.7988 39.0453C68.8753 38.8821 70.9381 37.4269 73.2317 38.3109C75.5253 39.2085 77.0724 41.1125 77.4796 43.2069C75.7831 44.4717 73.3403 44.8389 71.0467 43.9413C68.7667 43.0437 68.2646 40.7317 66.7988 39.0453ZM90.7253 39.3037C88.2824 40.3781 85.0524 39.9973 83.0167 42.3909C80.9674 44.7981 80.3703 47.8989 81.1846 50.5101C83.8853 50.9045 86.8574 49.8165 88.8931 47.4229C90.9424 45.0293 90.101 42.1189 90.7253 39.3037ZM62.4288 51.8701C65.8081 51.5981 69.1874 49.2181 72.9331 50.6733C76.6653 52.1285 79.2167 55.2565 79.8681 58.6701C77.086 60.7373 73.1096 61.3221 69.3638 59.8669C65.6181 58.4117 64.8038 54.6309 62.4288 51.8701ZM100.47 52.2373C96.6153 53.5565 91.7567 52.5365 88.3367 55.9093C84.9031 59.2957 83.5867 63.9469 84.4688 68.0269C88.5267 68.9789 93.1817 67.7277 96.6153 64.3549C100.035 60.9549 99.1395 56.4125 100.47 52.2373ZM58.2896 67.1973C63.2296 67.3469 68.4953 64.4365 73.666 67.1565C78.8367 69.8629 82.026 74.7725 82.4195 79.8181C78.0631 82.3749 72.2274 82.5653 67.0431 79.8725C61.8724 77.1661 61.3024 71.5765 58.2896 67.1973Z" fill="#4FBD9D"/>
<path fill-rule="evenodd" clip-rule="evenodd" d="M287.172 90.8752C289.18 68.5576 291.732 24.412 290.266 25.024C290.687 28.3288 287.932 74.936 282.544 92.6568L287.172 90.8752Z" fill="#4FBD9D"/>
<path fill-rule="evenodd" clip-rule="evenodd" d="M290.266 18.2237C291.026 19.7061 292.722 20.7941 292.763 22.7525C292.804 24.7109 291.867 26.4517 290.456 27.3901C289.004 26.5197 288 24.8197 287.959 22.8613C287.918 20.9029 289.465 19.8285 290.266 18.2237ZM284.322 29.1853C285.516 29.3893 286.887 28.8453 288.054 29.6885C289.221 30.5181 289.832 31.8101 289.764 33.0477C288.624 33.5237 287.199 33.3877 286.032 32.5581C284.865 31.7285 284.905 30.3549 284.322 29.1853ZM294.622 27.2677C294.283 28.0837 294.446 29.1445 293.672 29.8245C292.899 30.5181 291.881 30.7357 291.026 30.4909C290.877 29.6069 291.202 28.6277 291.976 27.9341C292.75 27.2541 293.7 27.4989 294.622 27.2677ZM297.459 34.2445C295.952 34.6253 294.134 34.1085 292.722 35.2917C291.325 36.4885 290.687 38.2157 290.904 39.7933C292.41 40.2693 294.229 39.9293 295.627 38.7461C297.052 37.5493 296.835 35.7949 297.459 34.2445ZM281.187 38.3245C282.897 38.6101 284.865 37.8485 286.534 39.0317C288.203 40.2149 289.085 42.0781 288.99 43.8597C287.362 44.5397 285.312 44.3357 283.643 43.1525C281.96 41.9557 282.028 39.9837 281.187 38.3245ZM300.499 43.3837C298.3 43.7645 295.762 42.7989 293.632 44.3221C291.487 45.8589 290.375 48.2525 290.51 50.5237C292.627 51.3941 295.247 51.1085 297.391 49.5853C299.522 48.0485 299.427 45.5325 300.499 43.3837ZM275.039 47.8173C277.835 48.2797 281.051 47.0421 283.779 48.9733C286.507 50.9045 287.945 53.9509 287.782 56.8477C285.109 57.9629 281.77 57.6229 279.042 55.6917C276.315 53.7605 276.423 50.5509 275.039 47.8173ZM305.792 55.8277C302.399 56.1133 298.68 54.3045 295.22 56.3445C291.759 58.3845 289.75 61.8797 289.642 65.3613C292.736 66.9661 296.753 66.8845 300.214 64.8445C303.675 62.8045 303.865 58.9421 305.792 55.8277ZM268.606 59.4045C272.582 60.5197 277.427 59.2413 281.078 62.4781C284.715 65.7149 286.303 70.3389 285.625 74.5005C281.58 75.6837 276.803 74.6637 273.166 71.4269C269.502 68.1901 270.167 63.5661 268.606 59.4045ZM290.266 94.4925C309.008 70.6789 344.484 22.5077 342.367 22.1133C340.399 26.1797 302.887 76.9893 283.697 93.0917L290.266 94.4925Z" fill="#4FBD9D"/>
<path fill-rule="evenodd" clip-rule="evenodd" d="M347.375 14.4024C347.144 16.6328 348.27 19.1352 346.872 21.3928C345.475 23.6504 343.127 24.9288 340.833 24.9424C339.829 22.8752 339.937 20.2096 341.335 17.952C342.747 15.6808 345.285 15.6264 347.375 14.4024ZM332.555 22.4264C333.762 23.528 335.703 23.9496 336.422 25.7448C337.128 27.5536 336.857 29.4712 335.88 30.8176C334.237 30.5184 332.731 29.2944 332.012 27.4992C331.292 25.704 332.365 24.1808 332.555 22.4264ZM345.637 27.88C344.66 28.56 344.05 29.8656 342.665 30.0832C341.281 30.2872 339.965 29.784 339.177 28.8728C339.652 27.7576 340.765 26.8872 342.15 26.6832C343.534 26.4656 344.43 27.472 345.637 27.88ZM343.724 37.8896C341.729 37.2096 340.046 35.2648 337.59 35.5776C335.12 35.8904 333.125 37.3728 332.202 39.3312C333.559 41.004 335.866 41.956 338.336 41.6432C340.806 41.3304 341.865 39.1952 343.724 37.8896ZM322.254 30.464C323.977 32.0552 326.773 32.64 327.805 35.2376C328.822 37.8216 328.442 40.5824 327.031 42.5272C324.67 42.092 322.498 40.3376 321.48 37.7536C320.449 35.156 321.982 32.9664 322.254 30.464ZM340.426 50.5104C337.657 49.3136 335.5 46.3352 331.944 46.4848C328.388 46.6344 325.348 48.5248 323.815 51.204C325.565 53.7472 328.741 55.3792 332.31 55.2296C335.866 55.08 337.617 52.1424 340.426 50.5104ZM308.275 36.6792C311.098 39.2768 315.658 40.256 317.327 44.472C318.997 48.688 318.372 53.2032 316.065 56.372C312.211 55.6512 308.669 52.7952 307 48.5792C305.344 44.3632 307.841 40.7864 308.275 36.6792ZM337.25 68.5304C333.206 66.3408 330.315 61.5264 324.873 61.2816C319.445 61.0368 314.572 63.512 311.899 67.388C314.22 71.4816 318.847 74.392 324.276 74.6368C329.705 74.8816 332.772 70.6384 337.25 68.5304ZM292.437 45.0432C296.115 49.2592 302.562 51.3944 304.312 57.7592C306.063 64.124 304.448 70.5432 300.594 74.7592C295.125 73.1 290.47 68.408 288.719 62.0432C286.968 55.6784 291.135 50.9184 292.437 45.0432Z" fill="#4FBD9D"/>
<path fill-rule="evenodd" clip-rule="evenodd" d="M291.189 100.042C314.355 86.5781 359.223 58.5621 357.608 57.5421C354.676 60.2485 307.271 89.7605 286.249 96.7237L291.189 100.042Z" fill="#4FBD9D"/>
<path fill-rule="evenodd" clip-rule="evenodd" d="M364.244 52.8496C363.321 54.6176 363.443 57.0384 361.557 58.4392C359.67 59.84 357.336 60.1256 355.45 59.3912C355.3 57.3648 356.25 55.2024 358.137 53.8016C360.023 52.4008 362.14 53.176 364.244 52.8496ZM349.437 54.604C350.075 55.9096 351.541 56.8888 351.541 58.6024C351.541 60.316 350.699 61.812 349.451 62.6008C348.202 61.812 347.347 60.316 347.347 58.6024C347.347 56.8888 348.718 55.9912 349.437 54.604ZM358.435 63.376C357.404 63.6072 356.481 64.4912 355.273 64.2056C354.065 63.9336 353.156 63.0904 352.803 62.0704C353.563 61.3224 354.744 60.9552 355.952 61.2408C357.159 61.5264 357.58 62.6416 358.435 63.376ZM353.59 70.9784C352.165 69.768 351.419 67.6192 349.302 67.0752C347.171 66.5176 345.04 67.0888 343.656 68.3944C344.239 70.2168 345.814 71.7536 347.944 72.3112C350.075 72.8552 351.636 71.4408 353.59 70.9784ZM338.35 57.8272C339.259 59.704 341.362 61.1048 341.362 63.5664C341.362 66.028 340.155 68.1768 338.35 69.3056C336.558 68.1768 335.337 66.028 335.337 63.5664C335.35 61.1184 337.318 59.8128 338.35 57.8272ZM346.777 80.2672C344.891 78.3768 344.077 75.2216 341.104 74.188C338.132 73.1544 335.024 73.712 332.894 75.4256C333.504 78.0776 335.594 80.4712 338.567 81.5048C341.539 82.552 343.941 80.7024 346.777 80.2672ZM324.832 58.3984C326.312 61.4584 329.745 63.7568 329.745 67.7688C329.745 71.7944 327.764 75.2896 324.819 77.1392C321.887 75.2896 319.906 71.7808 319.906 67.7688C319.919 63.7432 323.136 61.6216 324.832 58.3984ZM338.295 94.0576C335.676 90.9296 334.862 86.0336 330.478 84.048C326.081 82.0624 321.277 82.5112 317.816 84.8232C318.399 88.9576 321.249 92.8472 325.633 94.8328C330.017 96.8184 333.925 94.3296 338.295 94.0576ZM309.076 60.0848C310.718 64.7496 315.332 68.612 314.694 74.4328C314.057 80.24 310.637 85 306.104 87.2032C302.154 84.0616 299.847 78.676 300.485 72.8688C301.123 67.048 306.104 64.4912 309.076 60.0848Z" fill="#4FBD9D"/>
<path d="M190.733 260.712C285.915 260.712 363.076 255.628 363.076 249.356C363.076 243.084 285.915 238 190.733 238C95.55 238 18.3892 243.084 18.3892 249.356C18.3892 255.628 95.55 260.712 190.733 260.712Z" fill="#DFE6FF"/>
<path fill-rule="evenodd" clip-rule="evenodd" d="M52.6434 61.1046H328.836C330.369 61.1046 331.604 62.3694 331.604 63.9062V244.813C331.604 246.35 330.369 247.615 328.836 247.615H52.6434C51.1098 247.615 49.8477 246.35 49.8477 244.813V63.9062C49.8477 62.3694 51.1098 61.1046 52.6434 61.1046Z" fill="url(#paint0_linear_279_4030)"/>
<path fill-rule="evenodd" clip-rule="evenodd" d="M54.1499 60.0576C102.166 39.9296 142.256 47.9944 189.484 61.8664V242.393C142.256 228.548 102.166 220.47 54.1499 240.584V60.0576Z" fill="white"/>
<path d="M171.855 80.036C171.733 80.036 171.611 80.0088 171.475 79.968C144.685 69.8496 108.558 60.3976 66.5813 77.3432C66.0384 77.5608 65.4141 77.3024 65.197 76.7584C64.9799 76.2144 65.2377 75.5888 65.7806 75.3712C84.0884 67.9728 102.328 64.9672 121.532 66.1504C137.383 67.1296 153.479 70.8832 172.208 77.9688C172.751 78.1728 173.036 78.7848 172.832 79.3424C172.683 79.7776 172.276 80.036 171.855 80.036Z" fill="#8DAFDB"/>
<path d="M172.452 98.3416C172.33 98.3416 172.208 98.3144 172.072 98.2736C145.282 88.1552 109.155 78.7032 67.1785 95.6488C66.6356 95.8664 66.0113 95.608 65.7942 95.064C65.577 94.52 65.8349 93.8944 66.3777 93.6768C84.6992 86.2784 102.939 83.2728 122.143 84.456C137.994 85.4352 154.09 89.1888 172.818 96.2744C173.361 96.4784 173.646 97.0904 173.443 97.648C173.28 98.0696 172.873 98.3416 172.452 98.3416Z" fill="#8DAFDB"/>
<path d="M173.008 115.409C172.886 115.409 172.75 115.382 172.628 115.341C145.852 105.209 109.738 95.7436 67.7483 112.716C67.2054 112.934 66.5811 112.676 66.364 112.132C66.1469 111.588 66.4047 110.962 66.9476 110.744C85.269 103.346 103.509 100.327 122.699 101.51C138.55 102.489 154.646 106.256 173.375 113.342C173.918 113.546 174.203 114.158 173.985 114.716C173.836 115.151 173.429 115.409 173.008 115.409Z" fill="#8DAFDB"/>
<path d="M173.633 133.715C173.511 133.715 173.388 133.688 173.253 133.647C146.449 123.515 110.308 114.063 68.3591 131.022C67.8163 131.24 67.192 130.982 66.9748 130.438C66.7577 129.894 67.0156 129.268 67.5584 129.05C85.8663 121.652 104.093 118.633 123.31 119.83C139.148 120.809 155.257 124.576 173.986 131.648C174.528 131.852 174.813 132.464 174.61 133.022C174.461 133.457 174.053 133.715 173.633 133.715Z" fill="#8DAFDB"/>
<path d="M173.918 149.736C173.796 149.736 173.674 149.709 173.538 149.668C146.748 139.55 110.621 130.098 68.6443 147.043C68.1014 147.261 67.4771 147.002 67.26 146.458C67.0429 145.914 67.3007 145.289 67.8436 145.071C86.1514 137.673 104.378 134.667 123.595 135.85C139.446 136.83 155.542 140.583 174.271 147.669C174.814 147.873 175.099 148.485 174.895 149.042C174.746 149.478 174.352 149.736 173.918 149.736Z" fill="#8DAFDB"/>
<path d="M174.515 168.028C174.393 168.028 174.271 168.001 174.135 167.96C147.345 157.842 111.218 148.39 69.2415 165.335C68.6986 165.553 68.0743 165.294 67.8572 164.75C67.64 164.206 67.8979 163.581 68.4407 163.363C86.7486 155.965 104.989 152.959 124.192 154.142C140.044 155.122 156.139 158.875 174.868 165.961C175.411 166.165 175.696 166.777 175.492 167.334C175.343 167.77 174.949 168.028 174.515 168.028Z" fill="#8DAFDB"/>
<path d="M175.071 185.11C174.949 185.11 174.827 185.082 174.691 185.042C147.888 174.91 111.747 165.458 69.7976 182.417C69.2547 182.634 68.6305 182.376 68.4133 181.832C68.1962 181.288 68.454 180.662 68.9969 180.445C87.3047 173.046 105.531 170.027 124.748 171.224C140.586 172.203 156.695 175.97 175.424 183.042C175.967 183.246 176.252 183.858 176.048 184.416C175.913 184.851 175.505 185.11 175.071 185.11Z" fill="#8DAFDB"/>
<path d="M175.669 203.415C175.546 203.415 175.424 203.388 175.289 203.347C148.499 193.215 112.358 183.763 70.4221 200.722C69.8793 200.94 69.255 200.682 69.0378 200.138C68.8207 199.594 69.0785 198.968 69.6214 198.75C87.9293 191.352 106.156 188.333 125.359 189.53C141.184 190.509 157.293 194.276 176.035 201.348C176.578 201.552 176.863 202.164 176.659 202.722C176.51 203.143 176.103 203.415 175.669 203.415Z" fill="#8DAFDB"/>
<path d="M176.646 222.565C176.523 222.565 176.388 222.537 176.266 222.497C149.489 212.365 113.376 202.899 71.3992 219.872C70.8563 220.089 70.232 219.831 70.0149 219.287C69.7977 218.743 70.0556 218.117 70.5984 217.9C88.9063 210.501 107.133 207.482 126.336 208.665C142.174 209.645 158.283 213.412 177.012 220.497C177.555 220.701 177.84 221.313 177.623 221.871C177.473 222.293 177.08 222.565 176.646 222.565Z" fill="#8DAFDB"/>
<path fill-rule="evenodd" clip-rule="evenodd" d="M327.329 60.0576C279.313 39.9296 239.223 47.9944 191.968 61.8664V242.393C239.223 228.548 279.3 220.47 327.329 240.584V60.0576Z" fill="white"/>
<path d="M209.638 80.0365C209.203 80.0365 208.81 79.7781 208.647 79.3429C208.443 78.7989 208.715 78.1869 209.271 77.9693C228 70.8837 244.109 67.1301 259.947 66.1509C279.151 64.9541 297.391 67.9733 315.698 75.3717C316.241 75.5893 316.499 76.2149 316.282 76.7589C316.065 77.3029 315.441 77.5613 314.898 77.3437C272.908 60.3981 236.794 69.8365 210.004 79.9685C209.882 80.0229 209.76 80.0365 209.638 80.0365Z" fill="#8DAFDB"/>
<path d="M209.014 98.3421C208.579 98.3421 208.186 98.0837 208.023 97.6485C207.819 97.1045 208.091 96.4925 208.647 96.2749C227.376 89.2029 243.485 85.4357 259.323 84.4565C278.54 83.2597 296.767 86.2789 315.074 93.6773C315.617 93.8949 315.875 94.5205 315.658 95.0645C315.441 95.6085 314.817 95.8669 314.274 95.6493C272.297 78.7037 236.17 88.1421 209.38 98.2741C209.258 98.3149 209.136 98.3421 209.014 98.3421Z" fill="#8DAFDB"/>
<path d="M208.457 115.41C208.023 115.41 207.629 115.152 207.467 114.717C207.263 114.173 207.534 113.561 208.077 113.343C226.806 106.258 242.902 102.49 258.753 101.511C277.957 100.314 296.197 103.334 314.504 110.746C315.047 110.963 315.305 111.589 315.088 112.133C314.871 112.677 314.247 112.935 313.704 112.718C271.714 95.7448 235.6 105.197 208.824 115.342C208.702 115.397 208.579 115.41 208.457 115.41Z" fill="#8DAFDB"/>
<path d="M207.86 133.716C207.426 133.716 207.032 133.458 206.869 133.023C206.666 132.479 206.937 131.867 207.493 131.649C226.236 124.563 242.331 120.81 258.169 119.831C277.386 118.634 295.613 121.653 313.921 129.051C314.463 129.269 314.721 129.895 314.504 130.439C314.287 130.983 313.663 131.241 313.12 131.023C271.171 114.064 235.03 123.516 208.226 133.648C208.104 133.689 207.982 133.716 207.86 133.716Z" fill="#8DAFDB"/>
<path d="M207.562 149.736C207.127 149.736 206.734 149.478 206.571 149.043C206.367 148.499 206.639 147.887 207.195 147.669C225.924 140.597 242.033 136.83 257.871 135.851C277.074 134.654 295.314 137.673 313.622 145.072C314.165 145.289 314.423 145.915 314.206 146.459C313.989 147.003 313.364 147.261 312.822 147.044C270.845 130.098 234.718 139.536 207.928 149.668C207.819 149.709 207.684 149.736 207.562 149.736Z" fill="#8DAFDB"/>
<path d="M206.964 168.028C206.53 168.028 206.137 167.77 205.974 167.335C205.77 166.791 206.042 166.179 206.598 165.961C225.327 158.876 241.422 155.122 257.274 154.143C276.477 152.946 294.704 155.965 313.012 163.364C313.554 163.581 313.812 164.207 313.595 164.751C313.378 165.295 312.754 165.553 312.211 165.336C270.248 148.39 234.121 157.828 207.344 167.96C207.222 168.015 207.087 168.028 206.964 168.028Z" fill="#8DAFDB"/>
<path d="M206.408 185.11C205.973 185.11 205.58 184.851 205.417 184.416C205.213 183.872 205.485 183.26 206.041 183.043C224.783 175.957 240.879 172.203 256.717 171.224C275.921 170.027 294.161 173.047 312.455 180.445C312.998 180.663 313.256 181.288 313.038 181.832C312.821 182.376 312.197 182.635 311.654 182.417C269.718 165.458 233.578 174.91 206.788 185.042C206.652 185.083 206.53 185.11 206.408 185.11Z" fill="#8DAFDB"/>
<path d="M205.784 203.415C205.349 203.415 204.956 203.157 204.793 202.722C204.589 202.178 204.861 201.566 205.417 201.348C224.159 194.263 240.255 190.509 256.093 189.53C275.31 188.333 293.537 191.352 311.844 198.751C312.387 198.968 312.645 199.594 312.428 200.138C312.211 200.682 311.587 200.94 311.044 200.723C269.094 183.763 232.954 193.215 206.15 203.347C206.042 203.388 205.906 203.415 205.784 203.415Z" fill="#8DAFDB"/>
<path d="M204.82 222.564C204.386 222.564 203.992 222.306 203.829 221.871C203.626 221.327 203.897 220.715 204.44 220.497C223.169 213.412 239.264 209.644 255.116 208.665C274.319 207.468 292.559 210.488 310.867 217.9C311.41 218.117 311.668 218.743 311.451 219.287C311.234 219.831 310.609 220.089 310.066 219.872C268.076 202.899 231.963 212.351 205.186 222.496C205.064 222.537 204.942 222.564 204.82 222.564Z" fill="#8DAFDB"/>
<path fill-rule="evenodd" clip-rule="evenodd" d="M200.341 59.4454V120.496L195.849 116.253L191.968 119.938V61.8526C194.777 61.023 197.573 60.2342 200.341 59.4454Z" fill="#E9708A"/>
<path fill-rule="evenodd" clip-rule="evenodd" d="M193.705 155.149L187.381 155.34L186.566 162.888H194.356L193.705 155.149Z" fill="#F69768"/>
<path fill-rule="evenodd" clip-rule="evenodd" d="M203.395 252.186C204.481 253.029 209.611 252.553 208.783 255.898C207.181 256.782 205.051 257.068 203.463 257.952C201.793 258.36 199.866 258.36 198.251 257.762C197.722 255.898 197.844 254.402 198.631 252.539L203.395 252.186ZM178.356 252.498C176.754 253.736 172.506 253.015 173.307 256.211C174.895 257.095 177.039 257.381 178.627 258.265C180.296 258.673 182.223 258.673 183.838 258.074C184.368 256.211 184.246 254.715 183.458 252.852L178.356 252.498Z" fill="#15489D"/>
<path fill-rule="evenodd" clip-rule="evenodd" d="M172.194 167.675L164.635 169.158L150.358 164.792L149.625 166.859C153.805 169.294 160.061 173.904 162.179 174.149C163.183 174.611 168.476 173.646 173.619 172.721L172.194 167.675Z" fill="#F69768"/>
<path fill-rule="evenodd" clip-rule="evenodd" d="M151.077 165.771L150.656 164.615C150.249 163.758 150.073 161.949 149.448 162.044C149.041 162.14 149.557 163.241 149.191 163.704C148.105 164.22 146.368 161.337 145.526 161.813C144.251 162.493 143.911 164.37 144.97 165.268C145.499 165.784 147.738 166.043 149.666 166.655L151.077 165.771ZM207.805 167.471L215.365 168.953L229.642 164.588L230.375 166.641C226.195 169.076 219.938 173.686 217.821 173.931C216.817 174.393 211.524 173.428 206.38 172.503L207.805 167.471Z" fill="#F69768"/>
<path fill-rule="evenodd" clip-rule="evenodd" d="M228.923 165.567L229.344 164.411C229.751 163.554 229.927 161.745 230.551 161.84C230.959 161.922 230.443 163.037 230.809 163.5C231.895 164.016 233.632 161.133 234.474 161.609C235.749 162.289 236.089 164.166 235.03 165.064C234.501 165.58 232.261 165.839 230.334 166.451L228.923 165.567Z" fill="#F69768"/>
<path fill-rule="evenodd" clip-rule="evenodd" d="M179.129 201.783C176.428 216.879 178.613 235.579 178.355 252.484C180.282 253.45 182.291 253.436 183.445 252.851L186.471 227.718L190.325 211.086L195.74 227.338L198.631 252.307C199.079 254.157 202.987 252.892 203.449 252.117C202.933 235.348 204.996 217.287 201.915 201.81H179.129V201.783Z" fill="#1BB89E"/>
<path fill-rule="evenodd" clip-rule="evenodd" d="M190.556 159.379H190.461H190.366C187.231 159.406 184.531 160.045 181.599 160.875L169.412 167.933C169.643 170.504 170.104 172.435 171.706 173.917C174.624 173.781 177.677 173.06 180.446 173.496C181.816 186.334 179.292 194.725 178.152 203.456L188.86 204.612H189.321L190.475 204.83L191.398 204.612H191.859L203.001 203.987C201.861 195.256 199.106 186.334 200.491 173.496C203.246 173.074 206.313 173.781 209.217 173.917C210.832 172.421 211.294 170.504 211.511 167.933L199.337 160.875C196.406 160.045 193.691 159.406 190.556 159.379Z" fill="#15489D"/>
<path fill-rule="evenodd" clip-rule="evenodd" d="M187.231 156.373C186.512 157.012 183.581 154.836 183.581 151.926C183.581 148.431 183.499 149.75 182.807 146.432C182.196 143.548 183.594 146.595 184.164 143.14C184.639 140.216 186.349 139.319 188.833 140.121C189.932 140.475 194.112 139.278 194.343 139.632C196.27 142.692 198.292 140.883 198.292 144.8C198.292 146.513 198.319 150.212 197.261 151.287C196.148 152.429 198.482 154.959 195.008 156.536C194.845 157.298 186.593 156.944 187.231 156.373Z" fill="#1B174F"/>
<path fill-rule="evenodd" clip-rule="evenodd" d="M62.4286 192.957H102.424C103.659 192.957 104.676 193.977 104.676 195.214V249.9C104.676 251.138 103.659 252.158 102.424 252.158H62.4286C61.1936 252.158 60.1758 251.138 60.1758 249.9V195.214C60.1758 193.977 61.1936 192.957 62.4286 192.957Z" fill="#8DAFDC"/>
<path fill-rule="evenodd" clip-rule="evenodd" d="M62.632 195.228H102.206C102.518 195.228 102.776 195.487 102.776 195.8V205.986C102.776 206.299 102.518 206.557 102.206 206.557H62.632C62.3199 206.557 62.062 206.299 62.062 205.986V195.8C62.062 195.487 62.3199 195.228 62.632 195.228Z" fill="#D5EFFB"/>
<path d="M62.605 217.015H70.775C70.9514 217.015 71.0872 216.879 71.0872 216.702V211.045C71.0872 210.868 70.9514 210.732 70.775 210.732H62.605C62.4286 210.732 62.2793 210.882 62.2793 211.045V216.702C62.2793 216.879 62.4286 217.015 62.605 217.015ZM73.1229 217.124H81.2929C81.4693 217.124 81.605 216.974 81.605 216.798V211.14C81.605 210.963 81.4557 210.814 81.2929 210.814H73.1229C72.9464 210.814 72.7972 210.963 72.7972 211.14V216.798C72.8107 216.988 72.9464 217.124 73.1229 217.124ZM83.5457 217.355H91.7157C91.8922 217.355 92.0414 217.206 92.0414 217.029V211.371C92.0414 211.194 91.8922 211.058 91.7157 211.058H83.5457C83.3693 211.058 83.22 211.194 83.22 211.371V217.029C83.2336 217.206 83.3693 217.355 83.5457 217.355ZM94.0772 217.45H102.247C102.424 217.45 102.573 217.301 102.573 217.138V211.48C102.573 211.303 102.424 211.154 102.247 211.154H94.0772C93.9007 211.154 93.7514 211.303 93.7514 211.48V217.138C93.7514 217.314 93.9007 217.45 94.0772 217.45Z" fill="#E9708A"/>
<path d="M62.605 224.808H70.775C70.9514 224.808 71.0872 224.658 71.0872 224.482V218.824C71.0872 218.647 70.9514 218.498 70.775 218.498H62.605C62.4286 218.498 62.2793 218.647 62.2793 218.824V224.482C62.2793 224.658 62.4286 224.808 62.605 224.808ZM73.1229 224.917H81.2929C81.4693 224.917 81.605 224.767 81.605 224.604V218.946C81.605 218.77 81.4557 218.634 81.2929 218.634H73.1229C72.9464 218.634 72.7972 218.783 72.7972 218.946V224.604C72.8107 224.767 72.9464 224.917 73.1229 224.917ZM83.5457 225.134H91.7157C91.8922 225.134 92.0414 224.985 92.0414 224.822V219.164C92.0414 218.987 91.8922 218.851 91.7157 218.851H83.5457C83.3693 218.851 83.22 219.001 83.22 219.164V224.822C83.2336 224.985 83.3693 225.134 83.5457 225.134Z" fill="white"/>
<path d="M94.0772 225.243H102.247C102.424 225.243 102.573 225.093 102.573 224.917V219.259C102.573 219.082 102.424 218.946 102.247 218.946H94.0772C93.9008 218.946 93.7515 219.096 93.7515 219.259V224.917C93.7515 225.093 93.9008 225.243 94.0772 225.243Z" fill="#4B76BA"/>
<path d="M62.605 232.655H70.775C70.9514 232.655 71.0872 232.506 71.0872 232.342V226.685C71.0872 226.508 70.9514 226.372 70.775 226.372H62.605C62.4286 226.372 62.2793 226.522 62.2793 226.685V232.342C62.2793 232.519 62.4286 232.655 62.605 232.655ZM73.1229 232.764H81.2929C81.4693 232.764 81.605 232.614 81.605 232.438V226.78C81.605 226.603 81.4557 226.454 81.2929 226.454H73.1229C72.9464 226.454 72.7972 226.603 72.7972 226.78V232.438C72.8107 232.628 72.9464 232.764 73.1229 232.764ZM83.5457 232.995H91.7157C91.8922 232.995 92.0414 232.846 92.0414 232.669V227.011C92.0414 226.834 91.8922 226.698 91.7157 226.698H83.5457C83.3693 226.698 83.22 226.848 83.22 227.011V232.669C83.2336 232.846 83.3693 232.995 83.5457 232.995Z" fill="white"/>
<path d="M94.0772 233.09H102.247C102.424 233.09 102.573 232.941 102.573 232.778V227.12C102.573 226.943 102.424 226.794 102.247 226.794H94.0772C93.9008 226.794 93.7515 226.943 93.7515 227.12V232.778C93.7515 232.954 93.9008 233.09 94.0772 233.09Z" fill="#4B76BA"/>
<path d="M62.605 240.516H70.775C70.9514 240.516 71.0872 240.366 71.0872 240.19V234.532C71.0872 234.355 70.9514 234.206 70.775 234.206H62.605C62.4286 234.206 62.2793 234.355 62.2793 234.532V240.19C62.2793 240.366 62.4286 240.516 62.605 240.516ZM73.1229 240.625H81.2929C81.4693 240.625 81.605 240.489 81.605 240.312V234.654C81.605 234.478 81.4557 234.342 81.2929 234.342H73.1229C72.9464 234.342 72.7972 234.491 72.7972 234.654V240.312C72.8107 240.475 72.9464 240.625 73.1229 240.625ZM83.5457 240.842H91.7157C91.8922 240.842 92.0414 240.693 92.0414 240.53V234.872C92.0414 234.695 91.8922 234.546 91.7157 234.546H83.5457C83.3693 234.546 83.22 234.695 83.22 234.872V240.53C83.2336 240.706 83.3693 240.842 83.5457 240.842Z" fill="white"/>
<path d="M94.0772 240.951H102.247C102.424 240.951 102.573 240.801 102.573 240.638V234.981C102.573 234.804 102.424 234.668 102.247 234.668H94.0772C93.9007 234.668 93.7514 234.817 93.7514 234.981V240.638C93.7514 240.815 93.9007 240.951 94.0772 240.951ZM62.605 248.363H70.775C70.9514 248.363 71.0872 248.213 71.0872 248.05V242.393C71.0872 242.216 70.9514 242.08 70.775 242.08H62.605C62.4286 242.08 62.2793 242.229 62.2793 242.393V248.05C62.2793 248.213 62.4286 248.363 62.605 248.363Z" fill="#4B76BA"/>
<path d="M73.1231 248.472H81.2931C81.4695 248.472 81.6052 248.323 81.6052 248.16V242.502C81.6052 242.325 81.4559 242.176 81.2931 242.176H73.1231C72.9466 242.176 72.7974 242.325 72.7974 242.502V248.16C72.8109 248.336 72.9466 248.472 73.1231 248.472Z" fill="white"/>
<path d="M83.5459 248.69H91.7159C91.8924 248.69 92.0416 248.54 92.0416 248.364V242.706C92.0416 242.529 91.8924 242.38 91.7159 242.38H83.5459C83.3695 242.38 83.2202 242.529 83.2202 242.706V248.364C83.2338 248.554 83.3695 248.69 83.5459 248.69ZM94.0774 248.799H102.247C102.424 248.799 102.573 248.649 102.573 248.486V242.829C102.573 242.652 102.424 242.516 102.247 242.516H94.0774C93.9009 242.516 93.7516 242.665 93.7516 242.829V248.486C93.7516 248.663 93.9009 248.799 94.0774 248.799Z" fill="#4B76BA"/>
<path d="M67.3686 223.435H66.9207V220.606C66.8121 220.701 66.6764 220.81 66.5 220.905C66.3236 221 66.1743 221.082 66.0386 221.136V220.715C66.2829 220.592 66.5 220.456 66.69 220.293C66.88 220.13 67.0021 219.967 67.0836 219.817H67.3686V223.435Z" fill="#4B76BA"/>
<path d="M78.4023 223.108V223.53H76.0273C76.0273 223.421 76.0409 223.326 76.0816 223.217C76.1359 223.054 76.2445 222.89 76.3666 222.741C76.5023 222.578 76.6923 222.401 76.9502 222.197C77.3438 221.87 77.6016 221.626 77.7373 221.435C77.8731 221.245 77.9409 221.068 77.9409 220.905C77.9409 220.728 77.8731 220.578 77.7509 220.456C77.6288 220.334 77.4659 220.279 77.2623 220.279C77.0452 220.279 76.8823 220.347 76.7466 220.47C76.6245 220.592 76.5566 220.769 76.5566 221L76.1088 220.959C76.1359 220.619 76.2581 220.361 76.4616 220.184C76.6652 220.007 76.9366 219.912 77.2759 219.912C77.6152 219.912 77.9002 220.007 78.0902 220.198C78.2938 220.388 78.3888 220.633 78.3888 220.905C78.3888 221.054 78.3616 221.19 78.2938 221.326C78.2395 221.462 78.1309 221.612 77.9952 221.762C77.8595 221.911 77.6288 222.129 77.3166 222.401C77.0452 222.618 76.8823 222.782 76.8009 222.85C76.7195 222.931 76.6652 223.013 76.6109 223.094H78.4023V223.108Z" fill="#4B76BA"/>
<path d="M86.4502 222.795L86.8981 222.741C86.9523 222.986 87.0338 223.176 87.1559 223.285C87.2781 223.394 87.4273 223.448 87.6038 223.448C87.8073 223.448 87.9838 223.38 88.1331 223.23C88.2823 223.081 88.3502 222.904 88.3502 222.7C88.3502 222.496 88.2823 222.333 88.1466 222.197C88.0109 222.061 87.8481 221.993 87.6445 221.993C87.5631 221.993 87.4545 222.006 87.3323 222.047L87.3866 221.653C87.4138 221.653 87.4409 221.653 87.4545 221.653C87.6445 221.653 87.8073 221.598 87.9566 221.503C88.1059 221.408 88.1873 221.258 88.1873 221.054C88.1873 220.891 88.133 220.755 88.0245 220.646C87.9159 220.538 87.7666 220.483 87.6038 220.483C87.4273 220.483 87.2916 220.538 87.1695 220.646C87.0609 220.755 86.9795 220.918 86.9523 221.136L86.5045 221.054C86.5588 220.755 86.6809 220.524 86.8709 220.361C87.0609 220.198 87.3052 220.116 87.5902 220.116C87.7802 220.116 87.9702 220.157 88.1331 220.238C88.2959 220.32 88.4181 220.442 88.5131 220.578C88.5945 220.728 88.6488 220.878 88.6488 221.041C88.6488 221.19 88.6081 221.34 88.5266 221.462C88.4452 221.585 88.323 221.694 88.1602 221.762C88.3773 221.816 88.5402 221.911 88.6623 222.074C88.7845 222.224 88.8388 222.428 88.8388 222.659C88.8388 222.972 88.7302 223.244 88.4995 223.462C88.2688 223.679 87.9838 223.788 87.6309 223.788C87.3188 223.788 87.0473 223.693 86.8438 223.502C86.5995 223.339 86.4773 223.094 86.4502 222.795Z" fill="#4B76BA"/>
<path d="M67.0158 231.254V230.384H65.4551V229.976L67.0972 227.637H67.4637V229.976H67.9522V230.384H67.4637V231.254H67.0158ZM67.0158 229.989V228.357L65.8894 229.989H67.0158Z" fill="#4B76BA"/>
<path d="M76.0273 230.357L76.4888 230.316C76.5295 230.548 76.5973 230.711 76.7331 230.833C76.8552 230.942 77.0045 231.01 77.1809 231.01C77.3981 231.01 77.5745 230.928 77.7238 230.765C77.8731 230.602 77.9409 230.398 77.9409 230.126C77.9409 229.868 77.8731 229.677 77.7238 229.528C77.5881 229.378 77.3981 229.31 77.1673 229.31C77.0316 229.31 76.8959 229.337 76.7873 229.405C76.6788 229.473 76.5838 229.555 76.5159 229.664L76.0952 229.609L76.4481 227.76H78.2395V228.181H76.8145L76.6245 229.147C76.8416 228.997 77.0723 228.916 77.3031 228.916C77.6152 228.916 77.8866 229.024 78.1038 229.242C78.3209 229.46 78.4295 229.745 78.4295 230.085C78.4295 230.412 78.3345 230.697 78.1445 230.928C77.9138 231.214 77.6016 231.364 77.1945 231.364C76.8688 231.364 76.5973 231.268 76.3938 231.092C76.1766 230.915 76.0545 230.67 76.0273 230.357Z" fill="#4B76BA"/>
<path d="M88.7437 228.848L88.3094 228.888C88.2687 228.712 88.2144 228.589 88.1465 228.508C88.0244 228.385 87.8751 228.317 87.6987 228.317C87.563 228.317 87.4408 228.358 87.3322 228.44C87.1965 228.535 87.0879 228.684 87.0065 228.888C86.9251 229.079 86.8844 229.364 86.8844 229.718C86.993 229.555 87.1151 229.432 87.2779 229.351C87.4272 229.269 87.5901 229.228 87.7665 229.228C88.0651 229.228 88.3094 229.337 88.513 229.555C88.7165 229.772 88.8251 230.058 88.8251 230.398C88.8251 230.629 88.7708 230.833 88.6758 231.024C88.5808 231.214 88.4451 231.364 88.2687 231.472C88.0922 231.581 87.9022 231.622 87.6851 231.622C87.3187 231.622 87.0201 231.486 86.7894 231.214C86.5587 230.942 86.4365 230.493 86.4365 229.868C86.4365 229.174 86.5587 228.657 86.8165 228.344C87.0472 228.072 87.3458 227.936 87.7258 227.936C88.0108 227.936 88.2415 228.018 88.4179 228.181C88.5944 228.344 88.703 228.562 88.7437 228.848ZM86.9387 230.398C86.9387 230.548 86.9658 230.697 87.0337 230.833C87.1015 230.969 87.1829 231.078 87.3051 231.146C87.4272 231.214 87.5494 231.255 87.6715 231.255C87.8615 231.255 88.0244 231.173 88.1465 231.024C88.2822 230.874 88.3501 230.67 88.3501 230.412C88.3501 230.167 88.2822 229.963 88.1465 229.827C88.0108 229.677 87.8479 229.609 87.6444 229.609C87.4408 229.609 87.2779 229.677 87.1422 229.827C87.0065 229.976 86.9387 230.167 86.9387 230.398Z" fill="#4B76BA"/>
<path d="M65.5229 236.001V235.579H67.8572V235.919C67.6265 236.164 67.3958 236.49 67.1787 236.898C66.948 237.306 66.7851 237.714 66.663 238.149C66.568 238.449 66.5137 238.775 66.5001 239.142H66.0522C66.0522 238.857 66.1065 238.517 66.2151 238.109C66.3237 237.701 66.4729 237.32 66.6765 236.953C66.8801 236.585 67.0837 236.259 67.3144 236.014H65.5229V236.001Z" fill="#4B76BA"/>
<path d="M76.7059 237.279C76.5159 237.211 76.3802 237.116 76.2988 236.994C76.2038 236.871 76.1631 236.722 76.1631 236.545C76.1631 236.286 76.2581 236.055 76.4481 235.878C76.6381 235.702 76.8823 235.606 77.1945 235.606C77.5066 235.606 77.7645 235.702 77.9545 235.878C78.1445 236.055 78.2395 236.286 78.2395 236.545C78.2395 236.708 78.1988 236.858 78.1038 236.98C78.0223 237.102 77.8866 237.198 77.7102 237.266C77.9273 237.334 78.1038 237.456 78.2123 237.619C78.3345 237.782 78.3888 237.973 78.3888 238.19C78.3888 238.503 78.2802 238.762 78.0631 238.966C77.8459 239.17 77.5609 239.278 77.2081 239.278C76.8552 239.278 76.5702 239.17 76.3531 238.966C76.1359 238.748 76.0273 238.49 76.0273 238.177C76.0273 237.946 76.0816 237.742 76.2038 237.592C76.3123 237.442 76.4888 237.334 76.7059 237.279ZM76.4752 238.19C76.4752 238.313 76.5023 238.435 76.5702 238.558C76.6245 238.68 76.7195 238.762 76.8416 238.83C76.9638 238.898 77.0859 238.925 77.2216 238.925C77.4388 238.925 77.6016 238.857 77.7509 238.721C77.8866 238.585 77.9545 238.408 77.9545 238.204C77.9545 237.986 77.8866 237.81 77.7373 237.674C77.6016 237.538 77.4252 237.47 77.2081 237.47C77.0045 237.47 76.8281 237.538 76.6923 237.674C76.5431 237.823 76.4752 237.986 76.4752 238.19ZM76.6245 236.531C76.6245 236.708 76.6788 236.844 76.7873 236.953C76.8959 237.062 77.0452 237.116 77.2081 237.116C77.3845 237.116 77.5202 237.062 77.6288 236.953C77.7373 236.844 77.7916 236.708 77.7916 236.558C77.7916 236.395 77.7373 236.259 77.6288 236.15C77.5202 236.042 77.3709 235.987 77.2081 235.987C77.0452 235.987 76.8959 236.042 76.7873 236.15C76.6788 236.246 76.6245 236.382 76.6245 236.531Z" fill="#4B76BA"/>
<path d="M86.5179 238.612L86.9387 238.571C86.9794 238.775 87.0472 238.911 87.1422 239.006C87.2372 239.102 87.3729 239.142 87.5358 239.142C87.6715 239.142 87.7937 239.115 87.8887 239.047C87.9972 238.979 88.0787 238.898 88.1465 238.802C88.2144 238.694 88.2687 238.558 88.3094 238.381C88.3501 238.204 88.3772 238.027 88.3772 237.837C88.3772 237.823 88.3772 237.782 88.3772 237.742C88.2822 237.878 88.1737 238 88.0108 238.082C87.8615 238.163 87.6987 238.218 87.5087 238.218C87.2101 238.218 86.9522 238.109 86.7487 237.891C86.5451 237.674 86.4365 237.388 86.4365 237.034C86.4365 236.667 86.5451 236.368 86.7622 236.15C86.9794 235.933 87.2508 235.81 87.5765 235.81C87.8072 235.81 88.0244 235.878 88.2144 236.001C88.4044 236.123 88.5537 236.314 88.6622 236.545C88.7572 236.776 88.8115 237.116 88.8115 237.565C88.8115 238.027 88.7572 238.394 88.6622 238.666C88.5672 238.938 88.4179 239.142 88.2144 239.292C88.0108 239.428 87.7801 239.51 87.5222 239.51C87.2372 239.51 87.0065 239.428 86.8301 239.278C86.6537 239.115 86.5587 238.898 86.5179 238.612ZM88.3229 237.021C88.3229 236.762 88.2551 236.558 88.1194 236.409C87.9837 236.259 87.8208 236.191 87.6308 236.191C87.4408 236.191 87.2644 236.273 87.1151 236.436C86.9658 236.599 86.8979 236.803 86.8979 237.062C86.8979 237.293 86.9658 237.483 87.1015 237.619C87.2372 237.769 87.4137 237.837 87.6172 237.837C87.8208 237.837 87.9837 237.769 88.1194 237.619C88.2551 237.47 88.3229 237.279 88.3229 237.021Z" fill="#4B76BA"/>
<path d="M76.0273 245.276C76.0273 244.854 76.0681 244.501 76.1631 244.242C76.2445 243.984 76.3802 243.78 76.5566 243.644C76.7331 243.508 76.9502 243.426 77.2081 243.426C77.3981 243.426 77.5745 243.467 77.7102 243.549C77.8595 243.63 77.9816 243.739 78.0766 243.889C78.1716 244.038 78.2395 244.215 78.2938 244.419C78.3481 244.637 78.3752 244.909 78.3752 245.276C78.3752 245.698 78.3345 246.038 78.2395 246.296C78.1581 246.554 78.0223 246.758 77.8459 246.894C77.6695 247.03 77.4523 247.112 77.1945 247.112C76.8416 247.112 76.5702 246.99 76.3802 246.731C76.1495 246.446 76.0273 245.956 76.0273 245.276ZM76.4752 245.276C76.4752 245.874 76.5431 246.269 76.6788 246.459C76.8145 246.65 76.9909 246.758 77.1945 246.758C77.3981 246.758 77.5745 246.663 77.7102 246.459C77.8459 246.269 77.9138 245.874 77.9138 245.276C77.9138 244.678 77.8459 244.283 77.7102 244.093C77.5745 243.902 77.3981 243.794 77.1945 243.794C76.9909 243.794 76.8281 243.875 76.7059 244.052C76.5566 244.283 76.4752 244.691 76.4752 245.276Z" fill="#4B76BA"/>
<path fill-rule="evenodd" clip-rule="evenodd" d="M181.152 80.8389H131.874C130.435 80.8389 129.268 82.0085 129.268 83.4501V112.024C129.268 113.465 130.435 114.635 131.874 114.635H166.983L176.103 123.91C176.768 124.549 177.338 124.372 177.352 124.087V114.635H181.138C182.577 114.635 183.744 113.465 183.744 112.024V83.4501C183.771 82.0085 182.59 80.8389 181.152 80.8389Z" fill="#7D80BC"/>
<path fill-rule="evenodd" clip-rule="evenodd" d="M183.025 79.2744H133.747C132.308 79.2744 131.141 80.4576 131.141 81.8856V110.459C131.141 111.901 132.308 113.07 133.747 113.07H168.856L177.976 122.346C178.641 122.985 179.211 122.808 179.225 122.522V113.07H183.011C184.45 113.07 185.617 111.901 185.617 110.459V81.8856C185.644 80.444 184.463 79.2744 183.025 79.2744Z" fill="#DBCDE4"/>
<path fill-rule="evenodd" clip-rule="evenodd" d="M170.932 99.0892C172.547 99.0892 173.85 97.7836 173.85 96.1652C173.85 94.5604 172.547 93.2412 170.932 93.2412C169.331 93.2412 168.015 94.5604 168.015 96.1652C168.015 97.7836 169.317 99.0892 170.932 99.0892ZM158.596 99.0892C160.211 99.0892 161.514 97.7836 161.514 96.1652C161.514 94.5604 160.211 93.2412 158.596 93.2412C156.995 93.2412 155.678 94.5604 155.678 96.1652C155.678 97.7836 156.995 99.0892 158.596 99.0892ZM145.852 99.0892C147.467 99.0892 148.77 97.7836 148.77 96.1652C148.77 94.5604 147.467 93.2412 145.852 93.2412C144.251 93.2412 142.935 94.5604 142.935 96.1652C142.935 97.7836 144.251 99.0892 145.852 99.0892Z" fill="white"/>
<path fill-rule="evenodd" clip-rule="evenodd" d="M264.073 185.531C265.091 184.715 265.661 183.206 265.43 181.587C265.213 179.955 264.25 178.663 263.055 178.146C262.825 179.139 261.467 180.472 261.698 182.104C261.915 183.722 262.865 185.028 264.073 185.531ZM270.859 188.686C270.791 189.992 269.895 191.325 268.443 192.086C266.991 192.848 265.376 192.821 264.263 192.141C264.942 191.379 265.227 189.502 266.679 188.741C268.131 187.979 269.746 188.006 270.859 188.686ZM276.695 191.665C277.753 190.917 278.418 189.434 278.296 187.802C278.16 186.17 277.292 184.81 276.125 184.226C275.826 185.205 274.401 186.456 274.523 188.088C274.645 189.72 275.541 191.08 276.695 191.665Z" fill="#D1D2E8"/>
<path fill-rule="evenodd" clip-rule="evenodd" d="M279.409 170.095C279.626 171.469 280.725 172.788 282.354 173.441C283.982 174.08 285.679 173.876 286.778 173.033C285.977 172.298 285.462 170.34 283.833 169.687C282.218 169.034 280.508 169.252 279.409 170.095ZM273.546 173.89C272.338 173.21 271.469 171.727 271.415 169.973C271.374 168.232 272.148 166.695 273.315 165.947C273.736 166.954 275.392 168.123 275.432 169.864C275.5 171.618 274.713 173.155 273.546 173.89Z" fill="#AAABD5"/>
<path fill-rule="evenodd" clip-rule="evenodd" d="M272.962 179.737C274.333 179.492 275.636 178.363 276.247 176.731C276.857 175.099 276.627 173.386 275.758 172.298C275.039 173.114 273.084 173.658 272.474 175.303C271.863 176.949 272.094 178.649 272.962 179.737Z" fill="#AAABD5"/>
<path fill-rule="evenodd" clip-rule="evenodd" d="M283.575 192.753C282.395 192.209 281.485 190.876 281.309 189.244C281.146 187.612 281.757 186.116 282.802 185.341C283.263 186.252 284.892 187.218 285.068 188.85C285.245 190.468 284.62 191.964 283.575 192.753Z" fill="#D1D2E8"/>
<path fill-rule="evenodd" clip-rule="evenodd" d="M277.4 199.797C287.117 199.797 295.057 191.855 295.057 182.104C295.057 172.366 287.131 164.41 277.4 164.41C267.669 164.41 259.744 172.353 259.744 182.104C259.744 191.855 267.669 199.797 277.4 199.797Z" fill="url(#paint1_linear_279_4030)"/>
<path fill-rule="evenodd" clip-rule="evenodd" d="M277.4 164.41C284.661 164.41 290.904 168.817 293.618 175.1L261.386 189.557C260.327 187.285 259.744 184.769 259.744 182.104C259.744 172.339 267.642 164.41 277.4 164.41Z" fill="url(#paint2_linear_279_4030)"/>
<path fill-rule="evenodd" clip-rule="evenodd" d="M277.4 198.995C286.683 198.995 294.256 191.406 294.256 182.104C294.256 172.802 286.683 165.213 277.4 165.213C268.117 165.213 260.544 172.802 260.544 182.104C260.544 191.406 268.117 198.995 277.4 198.995Z" fill="url(#paint3_linear_279_4030)"/>
<path fill-rule="evenodd" clip-rule="evenodd" d="M277.4 165.213C285.95 165.213 293.021 171.605 294.107 179.874L261.047 186.225C260.707 184.906 260.544 183.532 260.544 182.104C260.544 172.774 268.09 165.213 277.4 165.213Z" fill="url(#paint4_linear_279_4030)"/>
<path fill-rule="evenodd" clip-rule="evenodd" d="M277.4 196.058C285.068 196.058 291.311 189.788 291.311 182.104C291.311 174.42 285.054 168.164 277.4 168.164C269.732 168.164 263.476 174.434 263.476 182.104C263.476 189.788 269.732 196.058 277.4 196.058Z" fill="#1B3D6C"/>
<path fill-rule="evenodd" clip-rule="evenodd" d="M277.4 168.164C285.082 168.164 291.311 174.406 291.311 182.104C291.311 183.586 291.08 185.014 290.646 186.361L264.06 178.092C265.797 172.339 271.103 168.164 277.4 168.164Z" fill="#132C4F"/>
<path fill-rule="evenodd" clip-rule="evenodd" d="M277.4 195.201C284.593 195.201 290.469 189.312 290.469 182.104C290.469 174.896 284.593 169.007 277.4 169.007C270.193 169.007 264.331 174.896 264.331 182.104C264.331 189.325 270.193 195.201 277.4 195.201Z" fill="#C5DFE0"/>
<path fill-rule="evenodd" clip-rule="evenodd" d="M276.681 194.385C283.331 194.385 288.746 188.959 288.746 182.295C288.746 175.644 283.331 170.204 276.681 170.204C270.044 170.204 264.616 175.631 264.616 182.295C264.616 188.945 270.031 194.385 276.681 194.385Z" fill="#E6E9F2"/>
<path fill-rule="evenodd" clip-rule="evenodd" d="M277.4 169.401C277.576 169.401 277.726 169.551 277.726 169.728V171.115C277.726 171.292 277.576 171.441 277.4 171.441C277.223 171.441 277.074 171.292 277.074 171.115V169.728C277.074 169.551 277.223 169.401 277.4 169.401ZM277.4 192.78C277.576 192.78 277.726 192.929 277.726 193.106V194.507C277.726 194.684 277.576 194.833 277.4 194.833C277.223 194.833 277.074 194.684 277.074 194.507V193.106C277.074 192.916 277.223 192.78 277.4 192.78ZM268.429 173.114C268.551 172.992 268.755 172.992 268.877 173.114L269.854 174.093C269.976 174.216 269.976 174.42 269.854 174.542C269.732 174.665 269.528 174.665 269.406 174.542L268.429 173.563C268.307 173.454 268.307 173.25 268.429 173.114ZM284.932 189.652C285.054 189.529 285.258 189.529 285.38 189.652L286.357 190.631C286.479 190.753 286.479 190.957 286.357 191.08C286.235 191.202 286.031 191.202 285.909 191.08L284.932 190.101C284.796 189.978 284.796 189.774 284.932 189.652ZM286.371 173.114C286.248 172.992 286.045 172.992 285.923 173.114L284.946 174.093C284.823 174.216 284.823 174.42 284.946 174.542C285.068 174.665 285.271 174.665 285.393 174.542L286.371 173.563C286.493 173.454 286.493 173.25 286.371 173.114ZM269.868 189.652C269.746 189.529 269.542 189.529 269.42 189.652L268.443 190.631C268.321 190.753 268.321 190.957 268.443 191.08C268.565 191.202 268.768 191.202 268.891 191.08L269.868 190.101C269.99 189.978 269.99 189.774 269.868 189.652ZM264.724 182.104C264.724 181.927 264.873 181.777 265.05 181.777H266.448C266.624 181.777 266.773 181.927 266.773 182.104C266.773 182.281 266.624 182.43 266.448 182.43H265.05C264.86 182.43 264.724 182.281 264.724 182.104ZM288.04 182.104C288.04 181.927 288.189 181.777 288.366 181.777H289.75C289.926 181.777 290.076 181.927 290.076 182.104C290.076 182.281 289.926 182.43 289.75 182.43H288.366C288.189 182.43 288.04 182.281 288.04 182.104Z" fill="#11132F"/>
<path fill-rule="evenodd" clip-rule="evenodd" d="M277.4 172.746C277.522 172.746 277.617 172.841 277.617 172.964V181.477C277.617 181.6 277.522 181.695 277.4 181.695C277.278 181.695 277.183 181.6 277.183 181.477V172.964C277.183 172.841 277.278 172.746 277.4 172.746Z" fill="#4B76BA"/>
<path d="M277.4 181.804C277.224 181.804 277.074 181.654 277.074 181.478V172.964C277.074 172.787 277.21 172.638 277.4 172.638C277.576 172.638 277.726 172.787 277.726 172.964V181.478C277.726 181.654 277.576 181.804 277.4 181.804ZM277.4 172.855C277.332 172.855 277.291 172.896 277.291 172.964V181.478C277.291 181.532 277.332 181.586 277.4 181.586C277.454 181.586 277.509 181.532 277.509 181.478V172.964C277.509 172.91 277.454 172.855 277.4 172.855Z" fill="#4B76BA"/>
<path fill-rule="evenodd" clip-rule="evenodd" d="M270.587 182.103C270.587 181.981 270.682 181.886 270.804 181.886H276.64C276.762 181.886 276.857 181.981 276.857 182.103C276.857 182.226 276.762 182.321 276.64 182.321H270.804C270.695 182.321 270.587 182.226 270.587 182.103Z" fill="#4B76BA"/>
<path d="M276.64 182.43H270.804C270.628 182.43 270.479 182.281 270.479 182.104C270.479 181.927 270.628 181.777 270.804 181.777H276.64C276.816 181.777 276.966 181.927 276.966 182.104C276.952 182.281 276.816 182.43 276.64 182.43ZM270.804 181.995C270.75 181.995 270.696 182.049 270.696 182.104C270.696 182.158 270.75 182.213 270.804 182.213H276.64C276.694 182.213 276.749 182.158 276.749 182.104C276.749 182.049 276.694 181.995 276.64 181.995H270.804Z" fill="#4B76BA"/>
<path fill-rule="evenodd" clip-rule="evenodd" d="M277.4 183.178C277.984 183.178 278.472 182.689 278.472 182.104C278.472 181.519 277.997 181.029 277.4 181.029C276.817 181.029 276.328 181.505 276.328 182.104C276.328 182.689 276.817 183.178 277.4 183.178Z" fill="#15489D"/>
<path fill-rule="evenodd" clip-rule="evenodd" d="M130.829 39.331V41.031L135.28 41.2214L135.877 40.3782L160.387 45.4374L189.946 51.5438L219.504 45.4374L244.123 40.3646L244.72 41.2214L249.171 41.0174V39.331L248.941 39.3174L219.504 33.211L189.946 27.1182L160.387 33.211L130.829 39.331Z" fill="#15489D"/>
<path fill-rule="evenodd" clip-rule="evenodd" d="M189.946 28.8182L219.504 34.9246L249.063 41.031L219.504 47.151L189.946 53.2438L160.387 47.151L130.829 41.031L160.387 34.9246L189.946 28.8182Z" fill="#4B76BA"/>
<path fill-rule="evenodd" clip-rule="evenodd" d="M190.692 35.4961V35.5233C200.722 35.7409 210.439 37.1961 221.323 41.6433L224.078 67.9321H223.712C212.135 64.1105 201.617 62.8185 190.814 62.6009V62.5873C190.516 62.5873 190.244 62.5873 189.959 62.5873C189.661 62.5873 189.389 62.5873 189.104 62.5873V62.6009C178.288 62.8185 167.784 64.1105 156.207 67.9321H155.841L158.596 41.6433C169.467 37.1961 179.197 35.7273 189.227 35.5233V35.4961C189.471 35.5097 189.729 35.5097 189.973 35.5097C190.19 35.5097 190.434 35.5097 190.692 35.4961Z" fill="#15489D"/>
<path fill-rule="evenodd" clip-rule="evenodd" d="M229.601 35.2238L215.84 32.463C220.373 32.8166 224.892 33.1566 229.425 33.4966C231.094 33.6326 231.203 34.4758 231.203 35.319L231.311 56.6166H229.927L229.601 35.2238Z" fill="#E9708A"/>
<path fill-rule="evenodd" clip-rule="evenodd" d="M230.579 62.587C229.317 61.3086 228.489 59.1598 228.489 56.7118C228.489 54.2502 229.33 52.0742 230.619 50.7958C231.882 52.0742 232.709 54.223 232.709 56.6574C232.709 59.1326 231.868 61.3086 230.579 62.587Z" fill="#E9708A"/>
<path fill-rule="evenodd" clip-rule="evenodd" d="M230.063 50.0342H231.122C231.583 50.0342 231.963 50.415 231.963 50.8774C231.963 51.3534 231.583 51.7206 231.122 51.7206H230.063C229.602 51.7206 229.222 51.3534 229.222 50.8774C229.222 50.4286 229.602 50.0342 230.063 50.0342Z" fill="#AF96C6"/>
<path fill-rule="evenodd" clip-rule="evenodd" d="M88.3231 124.059C99.9538 124.059 109.386 133.511 109.386 145.166C109.386 156.821 99.9538 166.273 88.3231 166.273C76.6924 166.273 67.2603 156.821 67.2603 145.166C67.2603 133.511 76.6924 124.059 88.3231 124.059ZM88.3231 132.056C95.5567 132.056 101.406 137.931 101.406 145.166C101.406 152.415 95.5431 158.276 88.3231 158.276C81.0895 158.276 75.2403 152.401 75.2403 145.166C75.2403 137.917 81.1031 132.056 88.3231 132.056Z" fill="#4B76BA"/>
<path d="M88.323 166.559C85.4458 166.559 82.6501 165.988 80.0172 164.873C77.4794 163.798 75.1994 162.248 73.2315 160.29C71.2772 158.331 69.7301 156.033 68.658 153.49C67.5451 150.851 66.9751 148.05 66.9751 145.166C66.9751 142.283 67.5451 139.482 68.658 136.843C69.7301 134.3 71.2772 132.015 73.2315 130.043C75.1858 128.085 77.4794 126.534 80.0172 125.46C82.6501 124.345 85.4458 123.774 88.323 123.774C91.2001 123.774 93.9958 124.345 96.6287 125.46C99.1665 126.534 101.447 128.085 103.414 130.043C105.369 132.002 106.916 134.3 107.988 136.843C109.101 139.482 109.671 142.283 109.671 145.166C109.671 148.05 109.101 150.851 107.988 153.49C106.916 156.033 105.369 158.318 103.414 160.29C101.46 162.248 99.1665 163.798 96.6287 164.873C94.0094 165.988 91.2137 166.559 88.323 166.559ZM88.323 124.345C76.8551 124.345 67.5315 133.688 67.5315 145.18C67.5315 156.658 76.8551 166.002 88.323 166.002C99.7772 166.002 109.101 156.658 109.101 145.18C109.114 133.688 99.7908 124.345 88.323 124.345ZM88.323 158.562C84.7537 158.562 81.4015 157.175 78.8772 154.632C76.353 152.102 74.9687 148.743 74.9687 145.166C74.9687 141.59 76.353 138.23 78.8772 135.701C81.4015 133.171 84.7537 131.784 88.323 131.784C91.8922 131.784 95.2444 133.171 97.7687 135.701C100.293 138.23 101.691 141.59 101.691 145.166C101.691 148.743 100.307 152.102 97.7687 154.632C95.258 157.175 91.8922 158.562 88.323 158.562ZM88.323 132.328C81.2658 132.328 75.5115 138.081 75.5115 145.166C75.5115 152.238 81.2522 158.005 88.323 158.005C95.3801 158.005 101.134 152.252 101.134 145.166C101.134 138.094 95.3937 132.328 88.323 132.328Z" fill="white"/>
<path fill-rule="evenodd" clip-rule="evenodd" d="M100.822 149.096L108.422 151.49C105.667 160.289 97.5245 166.273 88.3231 166.273C76.6924 166.273 67.2603 156.821 67.2603 145.166C67.2603 133.511 76.6924 124.059 88.3231 124.059V132.056C81.0895 132.056 75.2403 137.931 75.2403 145.166C75.2403 152.415 81.1031 158.276 88.3231 158.276C94.186 158.29 99.1531 154.414 100.822 149.096Z" fill="#E9708A"/>
<path d="M88.323 166.559C85.4458 166.559 82.6501 165.988 80.0172 164.873C77.4794 163.798 75.1994 162.248 73.2315 160.29C71.2772 158.331 69.7301 156.033 68.658 153.49C67.5451 150.851 66.9751 148.05 66.9751 145.166C66.9751 142.283 67.5451 139.482 68.658 136.843C69.7301 134.3 71.2772 132.015 73.2315 130.043C75.1858 128.085 77.4794 126.534 80.0172 125.46C82.6501 124.345 85.4458 123.774 88.323 123.774H88.608V132.328H88.323C81.2658 132.328 75.5115 138.081 75.5115 145.166C75.5115 152.238 81.2522 158.005 88.323 158.005C93.9551 158.005 98.868 154.387 100.551 149.015L100.632 148.743L108.775 151.3L108.694 151.572C108.002 153.762 106.984 155.815 105.64 157.678C104.337 159.487 102.763 161.078 100.958 162.411C99.153 163.744 97.1715 164.764 95.0544 165.471C92.883 166.192 90.6165 166.559 88.323 166.559ZM88.0515 124.345C76.7194 124.494 67.5451 133.783 67.5451 145.166C67.5451 156.645 76.8687 165.988 88.3365 165.988C97.3751 165.988 105.274 160.249 108.083 151.667L101.012 149.437C100.157 151.994 98.5015 154.278 96.3301 155.897C94.0094 157.638 91.2408 158.549 88.3501 158.549C84.7808 158.549 81.4287 157.162 78.9044 154.618C76.3801 152.089 74.9958 148.73 74.9958 145.153C74.9958 141.576 76.3801 138.217 78.9044 135.687C81.3608 133.226 84.618 131.838 88.0787 131.77V124.345H88.0515Z" fill="white"/>
<path fill-rule="evenodd" clip-rule="evenodd" d="M75.7018 141.712L68.0068 139.604C70.504 130.424 78.8233 124.046 88.3233 124.046V132.056C82.284 132.056 77.2083 136.15 75.7018 141.712Z" fill="#FBB445"/>
<path d="M75.8918 142.052L67.6675 139.808L67.7353 139.536C68.3596 137.251 69.3503 135.102 70.6668 133.144C71.9561 131.24 73.5439 129.567 75.3761 128.166C77.2082 126.766 79.2303 125.678 81.4153 124.93C83.6411 124.168 85.9753 123.774 88.3368 123.774H88.6218V132.328H88.3368C82.5689 132.328 77.4932 136.218 75.9732 141.78L75.8918 142.052ZM68.3461 139.414L75.4982 141.372C76.2853 138.693 77.9275 136.299 80.1396 134.572C82.4196 132.79 85.1475 131.825 88.0382 131.77V124.331C78.9046 124.467 70.8703 130.614 68.3461 139.414Z" fill="white"/>
<path fill-rule="evenodd" clip-rule="evenodd" d="M300.404 91.9088L297.92 90.9296C297.459 90.7528 297.16 90.2904 297.187 89.8008C297.255 88.4136 297.092 86.9992 296.712 85.612C296.576 85.136 296.766 84.6328 297.174 84.3472L299.372 82.8376C299.861 82.4976 300.024 81.8448 299.725 81.328L299.359 80.6752L299.304 80.58L298.938 79.9272C298.653 79.4104 298.015 79.1928 297.472 79.424L295.029 80.4984C294.581 80.7024 294.052 80.58 293.713 80.2264C292.749 79.1656 291.636 78.2816 290.415 77.6016C289.981 77.3568 289.75 76.8672 289.845 76.3776L290.334 73.7528C290.442 73.168 290.089 72.5968 289.519 72.4336L288.8 72.2296L288.691 72.2024L287.972 71.9984C287.402 71.8352 286.791 72.1344 286.574 72.692L285.611 75.1808C285.434 75.6432 284.973 75.9424 284.484 75.9152C283.1 75.8472 281.675 76.0104 280.304 76.3912C279.829 76.5272 279.327 76.3368 279.042 75.9288L277.536 73.7256C277.196 73.236 276.545 73.0728 276.029 73.372L275.378 73.7392L275.269 73.7936L274.618 74.1608C274.102 74.4464 273.885 75.0856 274.116 75.6296L275.527 78.8528C274.184 79.9272 273.098 81.2464 272.284 82.688C272.039 83.1232 271.551 83.3544 271.062 83.2592L268.443 82.7696C267.859 82.6608 267.289 83.0144 267.126 83.5856L266.923 84.3064L266.882 84.4288L266.679 85.1496C266.516 85.7208 266.814 86.3328 267.371 86.5504L269.854 87.5296C270.316 87.7064 270.614 88.1688 270.587 88.6584C270.519 90.0456 270.682 91.46 271.062 92.8472C271.198 93.3232 271.008 93.8264 270.601 94.112L268.402 95.6216C267.914 95.9616 267.751 96.6144 268.049 97.1312L268.416 97.784L268.47 97.8792L268.836 98.532C269.121 99.0488 269.759 99.2664 270.302 99.0352L272.745 97.9608C273.193 97.7568 273.722 97.8792 274.061 98.2328C275.025 99.2936 276.138 100.178 277.359 100.858C277.794 101.102 278.024 101.592 277.929 102.082L277.441 104.706C277.332 105.291 277.685 105.862 278.255 106.026L278.974 106.23L279.083 106.257L279.802 106.461C280.372 106.624 280.983 106.325 281.2 105.767L282.177 103.278C282.354 102.816 282.815 102.517 283.304 102.544C284.688 102.612 286.099 102.449 287.484 102.068C287.959 101.932 288.461 102.122 288.746 102.53L290.252 104.734C290.591 105.223 291.243 105.386 291.759 105.087L292.41 104.72L292.505 104.666L293.156 104.298C293.672 104.013 293.889 103.374 293.659 102.83L292.586 100.382C292.383 99.9328 292.505 99.4024 292.858 99.0624C293.916 98.0968 294.799 96.9816 295.477 95.7576C295.721 95.3224 296.21 95.0912 296.699 95.1864L299.318 95.676C299.901 95.7848 300.471 95.4312 300.634 94.86L300.838 94.1392L300.865 94.0304L301.069 93.3096C301.245 92.7248 300.946 92.1264 300.404 91.9088ZM285.964 92.9288C283.914 94.0712 281.322 93.3232 280.196 91.2696C279.056 89.216 279.802 86.6184 281.851 85.476C283.901 84.3336 286.493 85.0816 287.633 87.1352C288.759 89.1888 288.013 91.7864 285.964 92.9288Z" fill="#4B76BA"/>
<path fill-rule="evenodd" clip-rule="evenodd" d="M290.062 81.6269L289.438 82.3749C290.293 83.0685 291.026 83.9253 291.582 84.9453C293.93 89.2021 292.41 94.5605 288.162 96.9133C284.796 98.7765 280.739 98.2053 278.038 95.7573L277.414 96.5053C280.413 99.1981 284.919 99.8373 288.651 97.7701C293.36 95.1589 295.07 89.2021 292.451 84.4829C291.813 83.3405 290.999 82.3885 290.062 81.6269Z" fill="#243E8F"/>
<path fill-rule="evenodd" clip-rule="evenodd" d="M279.164 80.6477C283.874 78.0229 289.818 79.7365 292.424 84.4557C295.043 89.1749 293.333 95.1317 288.624 97.7429C283.914 100.368 277.97 98.6541 275.364 93.9349C272.759 89.2157 274.455 83.2589 279.164 80.6477ZM279.639 81.5045C283.887 79.1517 289.234 80.6885 291.582 84.9317C293.93 89.1885 292.41 94.5469 288.162 96.8997C283.914 99.2525 278.567 97.7157 276.219 93.4725C273.858 89.2157 275.391 83.8573 279.639 81.5045Z" fill="white"/>
<path fill-rule="evenodd" clip-rule="evenodd" d="M345.854 250.988L332.825 231.961L330.288 223.148L337.277 221.122L337.304 221.108L344.293 219.096L346.831 227.922L345.895 250.974L345.854 250.988Z" fill="#FCCA99"/>
<path fill-rule="evenodd" clip-rule="evenodd" d="M344.796 220.81L316.622 122.754C315.495 118.891 311.451 116.634 307.583 117.749C303.715 118.864 301.476 122.93 302.589 126.806L330.763 224.862C331.876 228.711 335.934 230.982 339.802 229.867C343.656 228.738 345.895 224.658 344.796 220.81Z" fill="#F59698"/>
<path fill-rule="evenodd" clip-rule="evenodd" d="M346.818 227.827L317.843 127.024L303.824 131.077L332.785 231.88L346.818 227.827Z" fill="#FFCC13"/>
<path fill-rule="evenodd" clip-rule="evenodd" d="M319.594 133.13L317.843 127.024L303.824 131.077L305.561 137.183L319.594 133.13Z" fill="#CDCAE5"/>
<path fill-rule="evenodd" clip-rule="evenodd" d="M342.814 246.541L345.461 245.779L345.488 245.766L346.112 245.589L345.895 250.974L345.854 250.988L342.814 246.541Z" fill="#253D8E"/>
<path fill-rule="evenodd" clip-rule="evenodd" d="M339.095 241.128L333.653 222.17L330.288 223.149L332.825 231.962L339.095 241.128Z" fill="#F69668"/>
<path fill-rule="evenodd" clip-rule="evenodd" d="M335.866 229.881L304.231 119.816C302.575 121.638 301.856 124.263 302.589 126.793L330.763 224.849C331.496 227.378 333.491 229.214 335.866 229.881Z" fill="#F06666"/>
<path fill-rule="evenodd" clip-rule="evenodd" d="M336.164 230.901L307.189 130.098L303.824 131.077L332.785 231.88L336.164 230.901Z" fill="#F89E1C"/>
<path fill-rule="evenodd" clip-rule="evenodd" d="M308.94 136.218L307.189 130.098L303.824 131.077L305.561 137.183L308.94 136.218Z" fill="#9494C8"/>
<path d="M349.437 116.756L350.401 122.196L355.829 123.162L350.401 124.127L349.437 129.567L348.487 124.127L343.059 123.162L348.487 122.196L349.437 116.756Z" fill="white"/>
<path d="M131.141 20.835L132.009 25.7718L136.949 26.6558L132.009 27.5262L131.141 32.4766L130.272 27.5262L125.332 26.6558L130.272 25.7718L131.141 20.835Z" fill="white"/>
<path d="M30.3188 121.856L31.201 126.807L36.1274 127.677L31.201 128.548L30.3188 133.498L29.4503 128.548L24.5103 127.677L29.4503 126.807L30.3188 121.856Z" fill="white"/>
</g>
<defs>
<linearGradient id="paint0_linear_279_4030" x1="49.8524" y1="154.359" x2="331.608" y2="154.359" gradientUnits="userSpaceOnUse">
<stop stop-color="#4B76BA"/>
<stop offset="0.503" stop-color="#8DAFDB"/>
<stop offset="1" stop-color="#4B76BA"/>
</linearGradient>
<linearGradient id="paint1_linear_279_4030" x1="259.744" y1="182.106" x2="295.052" y2="182.106" gradientUnits="userSpaceOnUse">
<stop stop-color="#282560"/>
<stop offset="1" stop-color="#1B75BA"/>
</linearGradient>
<linearGradient id="paint2_linear_279_4030" x1="259.744" y1="176.989" x2="293.615" y2="176.989" gradientUnits="userSpaceOnUse">
<stop stop-color="#28AAE1"/>
<stop offset="1" stop-color="#2A3B8E"/>
</linearGradient>
<linearGradient id="paint3_linear_279_4030" x1="260.547" y1="182.104" x2="294.255" y2="182.104" gradientUnits="userSpaceOnUse">
<stop stop-color="#26A7DF"/>
<stop offset="1" stop-color="#2A3B8E"/>
</linearGradient>
<linearGradient id="paint4_linear_279_4030" x1="260.547" y1="175.718" x2="294.106" y2="175.718" gradientUnits="userSpaceOnUse">
<stop stop-color="#1B75BA"/>
<stop offset="1" stop-color="#2A3B8E"/>
</linearGradient>
<clipPath id="clip0_279_4030">
<rect width="380" height="272" fill="white"/>
</clipPath>
</defs>
</svg>
