<svg width="386" height="274" viewBox="0 0 386 274" fill="none" xmlns="http://www.w3.org/2000/svg">
<path fill-rule="evenodd" clip-rule="evenodd" d="M193 257.161C237.651 257.161 278.774 257.818 311.38 258.938C391.193 213.313 363.575 124.375 334.911 74.0785C295.029 4.07195 200.762 -21.0886 161.78 34.7561C108.855 110.603 57.8043 84.1281 30.2348 141.725C2.6653 199.297 44.5427 254.509 74.5942 258.962C107.225 257.843 148.324 257.161 193 257.161ZM123.042 63.0069C102.602 78.5558 68.8272 90.6008 57.5853 74.0785C49.1904 61.7173 59.532 38.5521 79.7528 20.9835C99.9737 3.41495 127.057 -7.19432 141.802 5.7266C159.347 21.0808 138.785 51.035 123.042 63.0069Z" fill="#E9EEF8"/>
<path fill-rule="evenodd" clip-rule="evenodd" d="M193 257.162C299.044 257.162 385.013 260.933 385.013 265.581C385.013 270.229 299.044 274 193 274C86.956 274 0.986816 270.229 0.986816 265.581C0.986816 260.933 86.956 257.162 193 257.162Z" fill="#D2DEEC"/>
<path fill-rule="evenodd" clip-rule="evenodd" d="M254.904 25.047C302.864 35.7292 333.378 79.8453 336.371 101.137C337.588 109.872 335.325 89.4326 310.87 70.8177C289.019 54.1738 271.986 51.1078 245.973 49.0882C227.602 47.6768 208.354 45.4138 209.717 34.4396C210.788 25.7526 223.952 18.1363 254.904 25.047ZM129.515 7.1864C137.764 7.67306 142.801 14.462 143.141 22.273C143.287 25.6066 140.684 16.8953 131.534 15.703C125.865 14.9487 125.013 16.6277 122.969 14.2917C120.925 11.9557 122.847 6.79706 129.515 7.1864Z" fill="white"/>
<path fill-rule="evenodd" clip-rule="evenodd" d="M69.2899 237.792C67.0999 235.043 64.0096 232.78 63.1092 229.397C62.0386 225.407 64.3989 221.197 63.8149 217.085C63.0849 211.926 58.1209 208.568 55.42 204.115C52.7676 199.76 54.0086 198.275 53.7653 193.19C53.4003 185.5 47.098 175.816 38.7031 178.419C30.1864 181.072 31.5734 188.98 33.0821 194.942C34.1528 199.176 33.4471 199.808 32.4251 204.042C31.1598 209.177 27.1205 214.14 28.8238 219.153C29.8701 222.243 32.9118 224.336 34.0068 227.426C35.2477 230.906 33.7391 234.702 33.1551 238.352C31.9384 246.066 33.6904 252.465 39.2871 258.816C39.8954 259.4 40.5037 259.911 41.1607 260.422C48.996 259.984 57.8289 259.571 67.4892 259.206L67.5622 259.133C72.6965 253.536 74.2295 243.949 69.2899 237.792Z" fill="#D2DEEC"/>
<path fill-rule="evenodd" clip-rule="evenodd" d="M42.5964 185.354C42.4748 185.014 42.0854 184.843 41.7204 184.965C41.3798 185.087 41.2094 185.476 41.3311 185.841C41.9881 187.593 42.5478 189.394 43.0344 191.292C42.8398 191.121 42.6451 190.951 42.4261 190.781C41.5014 190.051 40.4794 189.394 39.3115 188.858C38.9708 188.688 38.5815 188.834 38.4111 189.175C38.2651 189.515 38.3868 189.905 38.7275 190.075C39.7981 190.586 40.7471 191.17 41.5744 191.827C42.3531 192.46 43.0344 193.165 43.6184 193.944C44.4701 198.056 45.0541 202.485 45.5408 207.133C44.7621 205.916 43.9348 204.821 43.0344 203.872C41.5014 202.193 39.7981 200.903 37.9245 199.979C37.5838 199.808 37.1945 199.954 37.0241 200.271C36.8538 200.611 36.9998 201.001 37.3161 201.171C39.0195 202.023 40.6011 203.215 42.0368 204.772C43.4481 206.33 44.7378 208.203 45.8814 210.442L46.0031 211.707C46.2951 214.481 46.5871 217.328 46.9277 220.248C46.9277 220.272 46.9277 220.297 46.9277 220.321C47.2927 223.363 47.7064 226.477 48.2417 229.616C46.7817 227.378 45.2244 225.382 43.5454 223.655C41.0878 221.124 38.3868 219.153 35.4668 217.742C35.1262 217.571 34.7368 217.717 34.5665 218.058C34.3962 218.399 34.5422 218.788 34.8828 218.958C37.6811 220.297 40.2361 222.17 42.5964 224.604C44.9324 227.013 47.0494 229.957 48.9474 233.437C49.7747 237.622 50.8211 241.88 52.2324 246.187V246.212C52.9137 248.329 53.6924 250.446 54.5684 252.587C52.5244 250.835 50.3587 249.326 48.0714 248.061C44.8838 246.285 41.4528 244.971 37.8028 244.119C37.4378 244.046 37.0728 244.265 36.9998 244.63C36.9268 244.995 37.1458 245.36 37.5108 245.433C41.0634 246.26 44.3728 247.526 47.4387 249.229C50.4804 250.932 53.303 253.049 55.8824 255.629C56.4907 256.943 57.1234 258.281 57.8047 259.619L59.289 259.546C56.9044 254.972 55.0307 250.397 53.5707 245.871C53.3274 242.586 53.7167 239.301 54.7387 236.016C55.785 232.682 57.4883 229.349 59.873 226.015C60.092 225.723 60.019 225.285 59.7027 225.066C59.4107 224.847 58.9727 224.92 58.7537 225.236C56.296 228.692 54.544 232.147 53.449 235.602C52.8407 237.573 52.427 239.544 52.2567 241.515C50.2371 234.215 49.1177 227.086 48.2904 220.272C49.0691 217.377 49.9694 214.943 50.9427 212.948C51.9161 210.953 52.9624 209.42 54.106 208.349C54.3737 208.106 54.398 207.668 54.1304 207.4C53.887 207.133 53.449 207.108 53.1814 207.376C51.916 208.568 50.7724 210.223 49.7261 212.364C49.0691 213.678 48.4607 215.211 47.9011 216.914C47.7064 215.114 47.5117 213.337 47.3414 211.61L47.1954 210.247C47.1954 210.223 47.1954 210.198 47.1954 210.174C46.2951 200.903 45.3218 192.508 42.5964 185.354Z" fill="white"/>
<path fill-rule="evenodd" clip-rule="evenodd" d="M46.7576 241.418C44.4216 240.153 41.5989 239.496 39.9686 237.403C38.0463 234.921 38.4356 231.295 36.8053 228.619C34.7613 225.236 30.3083 224.385 27.1207 222.073C23.9817 219.81 24.4197 218.423 22.7407 214.943C20.2101 209.712 12.9588 204.821 7.87314 209.103C2.71451 213.459 6.04815 218.569 8.84647 222.292C10.8418 224.944 10.5498 225.553 11.0851 228.838C11.7421 232.78 10.3795 237.452 13.0561 240.445C14.7108 242.294 17.4361 242.854 19.1151 244.679C21.0131 246.747 21.0861 249.813 21.7674 252.538C22.6677 256.139 24.2494 259.059 26.7314 261.395C33.4473 260.884 41.3556 260.422 50.2616 259.984C50.9429 259.011 51.5025 257.94 51.8919 256.821C53.7899 251.37 52.0135 244.241 46.7576 241.418Z" fill="#C4DEF3"/>
<path fill-rule="evenodd" clip-rule="evenodd" d="M12.618 212.778C12.4234 212.583 12.107 212.559 11.888 212.754C11.6934 212.948 11.669 213.265 11.8637 213.484C12.837 214.506 13.7617 215.601 14.662 216.793C14.4674 216.72 14.297 216.671 14.1024 216.622C13.2507 216.379 12.326 216.233 11.3527 216.209C11.0607 216.209 10.8417 216.428 10.8174 216.696C10.8174 216.988 11.0364 217.206 11.304 217.231C12.2044 217.255 13.0317 217.401 13.8104 217.62C14.5404 217.839 15.2217 218.107 15.8787 218.496C17.7037 221.1 19.407 224.02 21.1347 227.11C20.2343 226.502 19.334 225.991 18.4337 225.577C16.8763 224.871 15.2947 224.458 13.713 224.385C13.421 224.36 13.202 224.579 13.1777 224.871C13.1534 225.163 13.3724 225.382 13.6644 225.407C15.1 225.48 16.56 225.869 18.02 226.526C19.48 227.183 20.9157 228.132 22.3757 229.349L22.838 230.2C23.86 232.05 24.9063 233.948 26.0256 235.87C26.0256 235.894 26.05 235.919 26.05 235.919C27.1936 237.938 28.4103 239.958 29.7243 242.002C28.0453 240.858 26.3663 239.958 24.6873 239.252C22.2297 238.23 19.772 237.646 17.3143 237.525C17.0223 237.5 16.8034 237.719 16.779 238.011C16.7547 238.303 16.9737 238.522 17.2657 238.547C19.6017 238.644 21.962 239.204 24.298 240.201C26.634 241.175 28.9943 242.61 31.3546 244.46C33.1796 247.136 35.1749 249.789 37.4136 252.368C38.5086 253.633 39.6765 254.874 40.9175 256.115C38.9709 255.507 37.0242 255.093 35.0532 254.874C32.3036 254.582 29.5296 254.68 26.7313 255.166C26.4636 255.215 26.269 255.483 26.3176 255.75C26.3663 256.018 26.634 256.213 26.9016 256.164C29.6026 255.677 32.3036 255.58 34.9316 255.872C37.5596 256.14 40.1389 256.797 42.7182 257.819C43.5942 258.646 44.5188 259.449 45.4678 260.228L46.9765 260.155C43.6429 257.502 40.7472 254.655 38.1922 251.711C37.0486 249.497 36.3429 247.088 36.0996 244.508C35.8319 241.88 36.0509 239.058 36.7079 236.016C36.7566 235.748 36.5862 235.481 36.3186 235.408C36.0509 235.359 35.7832 235.529 35.7102 235.797C35.0289 238.936 34.8099 241.856 35.0776 244.606C35.2236 246.163 35.5399 247.647 36.0022 249.083C32.4253 244.606 29.5296 239.958 26.9503 235.456C26.6583 233.218 26.5366 231.247 26.634 229.568C26.7313 227.889 26.999 226.526 27.4856 225.431C27.6073 225.163 27.4856 224.871 27.218 224.75C26.9503 224.628 26.6583 224.75 26.5366 225.017C26.0013 226.21 25.7093 227.718 25.612 229.519C25.5633 230.638 25.5876 231.879 25.685 233.218C25.0036 232.025 24.371 230.833 23.714 229.689L23.203 228.789C23.203 228.765 23.1786 228.765 23.1786 228.74C19.7963 222.535 16.633 216.963 12.618 212.778Z" fill="white"/>
<path fill-rule="evenodd" clip-rule="evenodd" d="M308.193 235.188C310.578 232.195 313.936 229.713 314.933 226.015C316.101 221.659 313.522 217.06 314.179 212.583C314.982 206.962 320.408 203.312 323.353 198.445C326.224 193.676 324.886 192.07 325.153 186.522C325.543 178.151 332.429 167.567 341.578 170.389C350.874 173.285 349.365 181.923 347.735 188.42C346.567 193.043 347.321 193.725 348.465 198.348C349.827 203.945 354.256 209.371 352.407 214.846C351.263 218.228 347.954 220.516 346.761 223.874C345.399 227.669 347.053 231.806 347.686 235.797C349.024 244.216 347.102 251.2 340.994 258.135C340.264 258.84 339.486 259.473 338.683 260.081C330.239 259.643 320.798 259.254 310.554 258.913C310.408 258.767 310.262 258.621 310.14 258.475C304.495 252.392 302.84 241.904 308.193 235.188Z" fill="#D2DEEC"/>
<path fill-rule="evenodd" clip-rule="evenodd" d="M337.344 177.957C337.49 177.567 337.904 177.397 338.293 177.543C338.683 177.689 338.853 178.103 338.707 178.492C337.977 180.39 337.369 182.385 336.858 184.454C337.077 184.259 337.296 184.089 337.515 183.894C338.512 183.091 339.656 182.385 340.921 181.801C341.286 181.631 341.724 181.777 341.895 182.142C342.065 182.507 341.919 182.945 341.554 183.115C340.386 183.675 339.364 184.308 338.439 185.038C337.588 185.719 336.833 186.498 336.201 187.349C335.252 191.827 334.643 196.669 334.084 201.755C334.935 200.441 335.836 199.248 336.809 198.202C338.488 196.377 340.337 194.966 342.381 193.944C342.746 193.773 343.184 193.919 343.355 194.284C343.525 194.649 343.379 195.087 343.014 195.258C341.14 196.182 339.437 197.496 337.88 199.2C336.322 200.879 334.935 202.947 333.694 205.38L333.548 206.767C333.232 209.809 332.916 212.899 332.526 216.087C332.526 216.111 332.526 216.16 332.526 216.184C332.137 219.493 331.675 222.9 331.091 226.331C332.672 223.873 334.376 221.708 336.225 219.834C338.902 217.084 341.846 214.919 345.058 213.386C345.423 213.215 345.861 213.361 346.031 213.726C346.202 214.091 346.056 214.529 345.691 214.7C342.649 216.16 339.851 218.228 337.296 220.856C334.741 223.484 332.429 226.696 330.361 230.492C329.46 235.067 328.317 239.714 326.784 244.411V244.435C326.029 246.747 325.202 249.058 324.253 251.394C326.467 249.496 328.828 247.842 331.334 246.455C334.814 244.508 338.561 243.097 342.552 242.172C342.941 242.075 343.355 242.318 343.428 242.732C343.525 243.121 343.282 243.51 342.868 243.608C338.999 244.508 335.398 245.895 332.04 247.744C328.73 249.594 325.64 251.905 322.817 254.728C322.112 256.285 321.382 257.818 320.579 259.376L318.948 259.303C321.625 254.193 323.718 249.107 325.348 244.07C325.616 240.493 325.202 236.892 324.083 233.315C322.939 229.689 321.09 226.039 318.486 222.389C318.243 222.048 318.34 221.61 318.656 221.367C318.997 221.124 319.435 221.221 319.678 221.537C322.355 225.309 324.277 229.081 325.47 232.852C326.151 234.994 326.589 237.135 326.784 239.301C328.998 231.344 330.215 223.557 331.115 216.135C330.263 212.996 329.29 210.32 328.219 208.154C327.173 205.989 326.005 204.31 324.764 203.142C324.472 202.874 324.448 202.387 324.74 202.095C325.007 201.803 325.494 201.779 325.786 202.071C327.149 203.361 328.414 205.186 329.558 207.522C330.263 208.957 330.92 210.612 331.553 212.485C331.772 210.514 331.967 208.592 332.161 206.694L332.307 205.21C332.307 205.186 332.307 205.161 332.307 205.137C333.305 194.941 334.351 185.768 337.344 177.957Z" fill="white"/>
<path fill-rule="evenodd" clip-rule="evenodd" d="M332.794 239.131C335.349 237.744 338.415 237.038 340.192 234.751C342.309 232.05 341.871 228.083 343.647 225.163C345.861 221.465 350.728 220.54 354.232 218.034C357.663 215.576 357.176 214.043 359.026 210.247C361.775 204.529 369.708 199.2 375.256 203.872C380.877 208.641 377.251 214.213 374.185 218.253C371.995 221.124 372.336 221.83 371.752 225.382C371.046 229.689 372.506 234.775 369.611 238.036C367.81 240.055 364.817 240.664 362.992 242.635C360.924 244.873 360.851 248.256 360.096 251.224C359.099 255.215 357.347 258.427 354.548 261.006C347.224 260.495 338.707 260.033 329.193 259.619C328.366 258.475 327.684 257.234 327.222 255.896C325.129 250.008 327.076 242.221 332.794 239.131Z" fill="#C4DEF3"/>
<path fill-rule="evenodd" clip-rule="evenodd" d="M370.048 207.911C370.267 207.692 370.608 207.692 370.827 207.887C371.046 208.106 371.046 208.446 370.851 208.665C369.78 209.785 368.758 210.977 367.785 212.267C367.98 212.194 368.199 212.121 368.393 212.072C369.318 211.804 370.316 211.658 371.386 211.61C371.703 211.61 371.946 211.829 371.97 212.145C371.97 212.461 371.751 212.705 371.435 212.729C370.462 212.778 369.561 212.899 368.71 213.143C367.907 213.362 367.152 213.678 366.471 214.092C364.476 216.939 362.626 220.126 360.728 223.484C361.702 222.803 362.699 222.268 363.673 221.805C365.376 221.027 367.104 220.589 368.807 220.491C369.123 220.467 369.367 220.71 369.391 221.002C369.415 221.319 369.172 221.562 368.88 221.586C367.298 221.684 365.717 222.073 364.135 222.803C362.553 223.509 360.972 224.531 359.39 225.869L358.879 226.794C357.76 228.813 356.616 230.882 355.424 232.974C355.424 232.999 355.4 233.023 355.4 233.023C354.134 235.213 352.82 237.452 351.385 239.666C353.21 238.425 355.059 237.427 356.884 236.649C359.56 235.529 362.261 234.897 364.938 234.775C365.254 234.751 365.498 234.994 365.522 235.31C365.546 235.627 365.303 235.87 364.987 235.894C362.432 236.016 359.877 236.6 357.297 237.695C354.743 238.766 352.188 240.323 349.608 242.343C347.637 245.263 345.447 248.158 342.99 250.981C341.773 252.368 340.508 253.73 339.169 255.069C341.286 254.387 343.428 253.949 345.569 253.73C348.562 253.414 351.604 253.511 354.645 254.071C354.937 254.12 355.156 254.412 355.107 254.704C355.059 254.996 354.767 255.215 354.475 255.166C351.506 254.655 348.586 254.533 345.691 254.85C342.844 255.142 339.997 255.872 337.198 256.991C336.152 257.964 335.057 258.913 333.913 259.862L332.234 259.789C336.006 256.821 339.242 253.633 342.114 250.348C343.379 247.939 344.133 245.311 344.401 242.489C344.693 239.617 344.45 236.527 343.744 233.218C343.671 232.926 343.866 232.634 344.158 232.561C344.45 232.488 344.742 232.682 344.815 232.974C345.569 236.381 345.788 239.593 345.496 242.586C345.326 244.289 345.009 245.895 344.498 247.453C348.392 242.562 351.555 237.5 354.378 232.585C354.718 230.127 354.816 227.986 354.743 226.161C354.645 224.336 354.353 222.827 353.818 221.659C353.696 221.367 353.818 221.051 354.11 220.929C354.402 220.808 354.718 220.929 354.84 221.221C355.424 222.535 355.74 224.166 355.862 226.137C355.935 227.353 355.886 228.692 355.789 230.176C356.519 228.862 357.224 227.597 357.93 226.307L358.465 225.309C358.465 225.285 358.49 225.261 358.49 225.261C362.213 218.545 365.668 212.461 370.048 207.911ZM179.057 55.78C178.376 65.2213 176.989 66.5109 167.985 67.2409C176.989 67.9709 178.376 69.2606 179.057 78.7019C179.738 69.2606 181.125 67.9709 190.128 67.2409C181.125 66.5109 179.738 65.1969 179.057 55.78ZM215.605 80.6485C215.24 85.6855 214.486 86.3911 209.692 86.7561C214.486 87.1455 215.24 87.8268 215.605 92.8638C215.97 87.8268 216.725 87.1455 221.518 86.7561C216.725 86.3668 215.97 85.6855 215.605 80.6485ZM199.594 41.8857C199.229 46.9957 198.475 47.7014 193.608 48.0907C198.475 48.48 199.229 49.1857 199.594 54.2957C199.959 49.1857 200.713 48.48 205.58 48.0907C200.713 47.7014 199.959 46.9957 199.594 41.8857ZM165.795 210.417C166.355 218.058 167.474 219.104 174.774 219.713C167.499 220.297 166.355 221.343 165.795 229.008C165.236 221.367 164.116 220.321 156.816 219.713C164.116 219.104 165.236 218.058 165.795 210.417ZM136.182 230.565C136.474 234.653 137.082 235.213 140.975 235.529C137.082 235.846 136.474 236.405 136.182 240.493C135.89 236.405 135.281 235.846 131.388 235.529C135.281 235.213 135.89 234.653 136.182 230.565ZM149.151 199.175C149.443 203.312 150.052 203.872 153.994 204.188C150.052 204.504 149.443 205.088 149.151 209.201C148.859 205.064 148.251 204.504 144.309 204.188C148.227 203.872 148.835 203.288 149.151 199.175ZM282.181 191.584C281.743 197.423 280.891 198.251 275.319 198.689C280.891 199.127 281.767 199.954 282.181 205.794C282.619 199.954 283.471 199.127 289.043 198.689C283.471 198.226 282.595 197.423 282.181 191.584ZM304.859 207.011C304.64 210.125 304.178 210.563 301.185 210.807C304.154 211.05 304.616 211.488 304.859 214.603C305.078 211.488 305.541 211.05 308.534 210.807C305.541 210.563 305.078 210.125 304.859 207.011ZM294.932 182.97C294.713 186.133 294.226 186.571 291.209 186.814C294.226 187.058 294.688 187.496 294.932 190.659C295.151 187.496 295.637 187.058 298.655 186.814C295.613 186.571 295.151 186.133 294.932 182.97Z" fill="white"/>
<path fill-rule="evenodd" clip-rule="evenodd" d="M196.139 95.8079L198.864 89.8706C213.464 96.5622 217.041 98.1926 231.641 104.909C232.468 105.274 232.809 106.247 232.444 107.074L231.081 110.043C230.716 110.846 229.743 111.211 228.915 110.846C214.316 104.13 210.739 102.5 196.139 95.8079Z" fill="#88B9E3"/>
<path fill-rule="evenodd" clip-rule="evenodd" d="M198.864 89.8706L196.139 95.8079L189.472 89.1406L198.864 89.8706Z" fill="#F9AF79"/>
<path d="M197.956 91.8251L197.063 93.7715L226.945 107.476L227.837 105.53L197.956 91.8251Z" fill="#4189C9"/>
<path fill-rule="evenodd" clip-rule="evenodd" d="M228.745 103.57L226.02 109.508L228.891 110.822C229.694 111.187 230.668 110.846 231.057 110.018L232.42 107.05C232.785 106.247 232.444 105.274 231.617 104.884L228.745 103.57ZM191.929 91.5983C193.681 91.501 193.998 90.771 192.878 89.4083L189.472 89.1406L191.929 91.5983Z" fill="#4189C9"/>
<path fill-rule="evenodd" clip-rule="evenodd" d="M218.89 107.561C218.842 104.689 217.309 103.984 216.992 102.426C215.678 103.01 215.338 104.081 215.97 105.638C215.362 105.152 214.778 104.641 214.194 104.081C212.272 103.205 210.787 102.524 209.717 102.013C210.374 103.74 211.298 105.736 212.466 108.023C213.172 109.118 214.218 108.923 215.532 109.994C216.652 108.68 217.771 107.877 218.89 107.561Z" fill="#F9AF79"/>
<path fill-rule="evenodd" clip-rule="evenodd" d="M256.583 85.8556C265.513 89.0919 271.255 89.4082 273.786 86.8046C276.365 86.1962 278.044 83.9332 278.823 79.9669C281.475 73.9323 279.212 64.2964 275.465 69.0657C272.375 61.1574 259.941 65.732 252.957 61.3521C248.699 64.126 250.329 70.988 253.371 73.324C253.249 81.1836 253.663 85.3932 256.583 85.8556Z" fill="#263C84"/>
<path fill-rule="evenodd" clip-rule="evenodd" d="M277.461 69.9173C276.487 69.163 276.195 68.36 276.536 67.484C278.02 66.6567 279.432 66.6324 280.77 67.411C279.967 67.4354 278.848 68.287 277.461 69.9173Z" fill="#263C84"/>
<path fill-rule="evenodd" clip-rule="evenodd" d="M275.636 67.8245C276.317 68.6031 276.95 68.7734 277.534 68.3355C277.899 66.8755 277.68 65.6101 276.901 64.5151C276.998 65.2451 276.56 66.3645 275.636 67.8245ZM270.891 71.1338C272.57 70.4768 273.859 70.6958 274.711 71.7908C274.638 74.3214 273.324 79.3827 271.329 80.502C270.988 80.283 271.061 74.9297 270.891 71.1338Z" fill="#263C84"/>
<path fill-rule="evenodd" clip-rule="evenodd" d="M270.282 68.7007C273.129 70.0877 274.078 71.3287 273.105 72.448C268.798 73.0807 264.686 72.6183 260.768 71.061C263.128 71.2557 266.292 70.477 270.282 68.7007Z" fill="#263C84"/>
<path fill-rule="evenodd" clip-rule="evenodd" d="M253.565 72.959C256.777 69.6984 262.86 69.3091 271.255 72.3751C276.56 71.0611 277.752 68.6034 275.514 64.6128C272.35 58.9918 265.513 63.4448 257.118 58.1401C257.41 62.2524 244.927 65.7807 253.565 72.959Z" fill="#263C84"/>
<path fill-rule="evenodd" clip-rule="evenodd" d="M273.713 75.7332C271.499 75.2466 271.694 79.8212 271.864 82.0842C272.205 86.5372 277.217 76.4632 273.713 75.7332Z" fill="#F9AF79"/>
<path fill-rule="evenodd" clip-rule="evenodd" d="M276.317 94.2508C275.076 94.3482 273.153 94.1049 272.788 93.6669C271.474 92.0122 270.574 90.2602 270.233 89.1652C270.477 88.4352 270.769 87.5105 271.036 86.4156C275.781 83.2036 276.438 80.8189 272.983 79.2616C272.277 79.6509 271.426 80.8433 270.404 82.8629C269.576 82.8386 268.968 82.4006 268.53 81.5976C269.503 78.2153 270.136 75.4413 270.452 73.3243C268.116 69.8447 262.641 69.358 255.415 70.2827C255.074 72.205 254.806 74.249 254.587 76.4146C253.687 77.2419 251.059 91.1362 259.965 91.6959C260.013 92.7179 259.94 93.9588 259.867 94.1048C259.77 94.3238 259.405 94.5428 258.894 94.7132C258.724 99.4582 264.539 99.2878 276.317 94.2508Z" fill="#F9AF79"/>
<path fill-rule="evenodd" clip-rule="evenodd" d="M255.39 70.3066C262.641 69.3576 268.092 69.8686 270.428 73.3482C270.136 75.4652 269.503 78.2149 268.506 81.6215C268.919 82.4245 269.552 82.8625 270.379 82.8868C271.401 80.8672 272.277 79.6749 272.959 79.2855C276.414 80.8429 275.757 83.2275 271.012 86.4395C270.744 87.5588 270.477 88.4591 270.209 89.1891C274.467 88.2401 278.044 84.4198 278.555 82.7652C283.544 72.9589 277.971 68.7979 275.003 67.2893C273.689 57.5803 259.575 66.1699 252.519 61.4736C249.745 65.3426 253.2 70.2093 255.39 70.3066Z" fill="#263C84"/>
<path fill-rule="evenodd" clip-rule="evenodd" d="M264.71 90.7222C263.542 91.2818 261.96 91.6225 259.94 91.7198C259.989 92.4012 259.94 93.1798 259.916 93.6665C261.936 93.2772 263.542 92.2795 264.71 90.7222Z" fill="#C58F27"/>
<path fill-rule="evenodd" clip-rule="evenodd" d="M256.436 67.9219C255.341 68.7735 255.001 69.6739 255.39 70.6715C257.069 71.6205 258.651 71.6449 260.159 70.7689C259.235 70.7202 257.994 69.7469 256.436 67.9219Z" fill="#263C84"/>
<path fill-rule="evenodd" clip-rule="evenodd" d="M287.535 252.781L289.141 257.94C289.408 258.573 290.236 260.081 290.406 260.69C290.966 262.953 279.894 261.298 281.889 259.741C282.06 259.595 283.155 258.062 283.033 257.283C282.838 256.066 282.303 254.193 282.303 254.193L287.535 252.781Z" fill="#F9AF79"/>
<path fill-rule="evenodd" clip-rule="evenodd" d="M281.889 259.692C281.889 259.692 284.42 259.813 285.661 259.667C286.902 259.546 288.143 257.672 289.092 257.867C290.138 258.061 291.574 262.782 291.574 262.782C283.812 266.773 277.996 267.77 274.589 267.649C273.105 267.6 277.485 262.514 281.889 259.692Z" fill="#263C84"/>
<path fill-rule="evenodd" clip-rule="evenodd" d="M264.515 255.239L264.71 260.641C264.807 261.322 265.221 263.001 265.197 263.634C265.148 265.97 254.879 261.444 257.24 260.47C257.459 260.373 258.894 259.181 258.992 258.378C259.113 257.137 259.113 255.214 259.113 255.214L264.515 255.239Z" fill="#F9AF79"/>
<path fill-rule="evenodd" clip-rule="evenodd" d="M257.24 260.422C257.24 260.422 259.649 261.201 260.89 261.395C262.131 261.59 263.81 260.13 264.686 260.544C265.635 261.006 265.781 265.921 265.781 265.921C265.781 265.921 251.375 267.162 248.115 266.165C246.679 265.727 252.251 261.979 257.24 260.422Z" fill="#263C84"/>
<path fill-rule="evenodd" clip-rule="evenodd" d="M215.29 110.067C218.623 124.326 224.463 135.398 232.834 143.257C235.851 142.333 238.528 140.289 240.864 137.077C240.742 147.394 240.985 157.663 241.642 167.883C247.75 170.778 255.853 170.584 265.976 167.323L270.088 162.262C271.134 162.067 273.543 163.211 274.687 164.987C284.298 157.663 290.771 149.779 294.591 141.968C293.569 125.154 291.282 111.892 287.729 102.183C285.953 99.4334 281.743 96.7324 275.125 94.0801C264.175 98.7764 258.773 98.9224 258.919 94.5181C255.707 95.5644 251.424 97.4381 246.12 100.115C241.691 103.473 237.919 112.622 234.78 127.514C229.695 121.163 224.439 114.398 218.988 107.293C217.723 107.609 216.506 108.534 215.29 110.067ZM272.278 157.711C269.09 147.248 270.842 134.327 277.558 118.973C279.237 126.541 281.062 134.011 283.033 141.359C280.721 142.406 277.145 147.881 272.278 157.711Z" fill="#FFCB70"/>
<path fill-rule="evenodd" clip-rule="evenodd" d="M273.446 171.338C271.888 171.217 269.382 169.878 265.951 167.299C255.829 170.56 247.726 170.754 241.618 167.859C240.523 185.062 244.757 203.093 250.135 223.192C255.391 232.025 255.172 238.206 257.97 258.573C259.527 259.692 262.082 259.522 265.683 258.086C266.827 240.736 266.024 229.251 261.522 222.754C262.228 216.939 260.379 202.631 260.306 193.652C263.591 200.952 265.829 210.831 270.112 220.783C275.319 232.925 278.921 245.895 281.67 257.745C284.566 258.305 287.291 257.964 289.822 256.748C286.902 237.281 283.69 223.874 280.137 216.549C280.283 197.399 278.458 180.22 274.662 164.963C273.957 166.788 273.543 168.905 273.446 171.338Z" fill="#4361AC"/>
<path fill-rule="evenodd" clip-rule="evenodd" d="M265.951 167.299C269.406 169.878 271.913 171.216 273.446 171.338C273.543 168.905 273.932 166.788 274.638 164.987C273.494 163.211 271.085 162.043 270.039 162.262L265.951 167.299Z" fill="#F9AF79"/>
<path fill-rule="evenodd" clip-rule="evenodd" d="M240.864 137.077C241.204 127.052 242.007 118.851 243.273 112.452C240.036 126.054 236.897 135.082 233.856 139.535C231.933 139.486 229.5 138.342 226.556 136.128C228.454 138.756 230.546 141.141 232.834 143.282C235.851 142.333 238.528 140.289 240.864 137.077ZM270.063 162.262C270.647 160.802 271.377 159.293 272.278 157.711C269.09 147.248 270.842 134.327 277.558 118.973C267.825 132.819 265.051 147.589 269.26 163.259L270.063 162.262Z" fill="#543D11"/>
<path fill-rule="evenodd" clip-rule="evenodd" d="M273.567 173.796C273.446 172.92 273.421 172.093 273.47 171.363C271.913 171.241 269.406 169.903 265.975 167.323C265.148 167.591 264.345 167.834 263.566 168.053C265.951 170.56 269.309 172.482 273.567 173.796Z" fill="#3155A5"/>
<path fill-rule="evenodd" clip-rule="evenodd" d="M259.43 94.3477C259.405 94.8101 259.503 95.3941 259.624 95.7104C259.77 96.0997 260.038 96.4161 260.452 96.6351C260.89 96.8784 261.498 97.0487 262.252 97.0974C264.978 97.2921 269.285 96.2701 275.563 93.9341L277.047 94.6641C270.599 97.0731 265.075 98.4844 262.179 98.2897C261.23 98.2167 260.476 98.0221 259.868 97.6814C259.211 97.3164 258.773 96.8054 258.505 96.1241C258.31 95.6374 258.237 95.2724 258.286 94.6398L259.43 94.3477Z" fill="#543D11"/>
<path fill-rule="evenodd" clip-rule="evenodd" d="M258.724 98.8006C258.554 98.898 258.359 98.8493 258.262 98.679C258.164 98.5087 258.213 98.314 258.383 98.2166C258.797 97.9733 259.649 97.9246 260.914 98.095C262.131 98.2653 263.785 98.606 265.829 99.117C265.999 99.1656 266.121 99.3603 266.072 99.5306C266.024 99.701 265.829 99.8226 265.659 99.774C263.615 99.263 261.984 98.9223 260.817 98.752C259.697 98.606 259.016 98.6303 258.724 98.8006ZM258.578 99.774C258.846 99.6036 259.551 99.6037 260.671 99.7496C261.863 99.8956 263.469 100.236 265.513 100.772C265.683 100.82 265.878 100.699 265.926 100.528C265.975 100.358 265.853 100.163 265.683 100.115C263.615 99.5793 261.985 99.2386 260.768 99.0927C259.478 98.9223 258.651 98.971 258.237 99.2143C258.067 99.3116 258.018 99.5306 258.116 99.6766C258.213 99.7983 258.408 99.8713 258.578 99.774Z" fill="#543D11"/>
<path fill-rule="evenodd" clip-rule="evenodd" d="M167.11 10.3498H103.527H43.1323C60.3846 12.4425 59.0462 56.3152 60.2629 69.2118C63.2072 100.018 67.3925 135.812 72.2105 144.645C78.5614 156.227 92.7477 163.6 96.057 176.448C102.7 202.217 92.3827 274.9 119.904 271.859H183.51H243.905C220.424 269.012 229.646 201.171 223.271 176.448C219.962 163.6 205.775 156.252 199.424 144.645C193.876 134.522 189.204 88.8974 186.26 56.0476C185.262 45.0976 187.379 8.11118 167.11 10.3498Z" fill="#EEF8FD"/>
<path fill-rule="evenodd" clip-rule="evenodd" d="M243.906 271.834H255.074C267.825 263.585 266.998 254.996 256.778 245.043C250.427 238.838 251.862 241.612 243.687 243.997C205.751 255.117 119.977 243.17 122.921 240.493C125.354 240.663 139.613 257.599 118.225 271.956L183.511 271.859H234.659H243.906V271.834Z" fill="#C1DDF3"/>
<path fill-rule="evenodd" clip-rule="evenodd" d="M129.807 253.901C129.685 249.545 127.958 245.846 126.23 243.462C125.865 242.951 125.5 242.513 125.135 242.124C124.527 241.515 123.87 240.98 123.14 240.542C123.067 240.518 122.994 240.493 122.921 240.493C122.921 240.493 122.969 240.493 123.042 240.493C119.149 238.887 114.355 239.204 112.53 244.946C111.265 248.888 115.085 254.022 120.95 253.828C124.721 253.876 126.717 253.901 129.807 253.901Z" fill="#D2DEEC"/>
<path fill-rule="evenodd" clip-rule="evenodd" d="M128.541 247.72L124.259 247.477C121.923 251.395 118.808 253.025 115.596 252.173C115.596 252.319 115.937 252.344 115.937 252.465C117.324 253.341 119.027 253.852 120.974 253.804C124.721 253.852 126.716 253.877 129.831 253.877C129.734 251.614 129.247 249.545 128.541 247.72Z" fill="#C4DEF3"/>
<path fill-rule="evenodd" clip-rule="evenodd" d="M43.1321 10.3501C30.2112 10.8368 28.8242 32.2743 43.3755 41.6912H58.4864C56.8317 26.6533 53.0601 11.5668 43.1321 10.3501Z" fill="#C1DDF3"/>
<path fill-rule="evenodd" clip-rule="evenodd" d="M96.884 40.8881C97.7113 48.7234 92.0417 55.0987 84.2064 55.1473C76.3954 55.196 69.3875 48.8937 68.5602 41.0828C67.7328 33.2475 73.4024 26.8722 81.2377 26.8235C89.0487 26.7749 96.0567 33.0528 96.884 40.8881Z" fill="#5E9BD3"/>
<path fill-rule="evenodd" clip-rule="evenodd" d="M86.0561 34.294C86.2995 36.5327 84.6691 38.3333 82.4548 38.3577C80.2161 38.382 78.2208 36.5813 78.0018 34.3427C77.7585 32.104 79.3888 30.3034 81.6031 30.2791C83.8175 30.2547 85.8128 32.0554 86.0561 34.294ZM82.5765 39.7203C78.4398 39.7447 75.4468 43.127 75.8848 47.2636C76.0065 48.3586 76.9798 49.2103 78.0505 49.2103L89.0978 49.1373C90.1928 49.1373 90.9714 48.2369 90.8497 47.1663C90.4117 43.0296 86.7131 39.696 82.5765 39.7203Z" fill="white"/>
<path fill-rule="evenodd" clip-rule="evenodd" d="M103.941 31.666H166.185C166.794 31.666 167.28 31.9094 167.28 32.2257C167.28 32.5177 166.794 32.7854 166.185 32.7854H103.941C103.333 32.7854 102.846 32.542 102.846 32.2257C102.822 31.9094 103.333 31.666 103.941 31.666ZM104.428 36.8247H147.814C148.422 36.8247 148.909 37.068 148.909 37.3843C148.909 37.6763 148.398 37.944 147.814 37.944H104.428C103.819 37.944 103.333 37.7006 103.333 37.3843C103.333 37.068 103.819 36.8247 104.428 36.8247ZM104.841 41.9833H131.924C132.532 41.9833 133.019 42.2266 133.019 42.543C133.019 42.835 132.532 43.1026 131.924 43.1026H104.841C104.233 43.1026 103.746 42.8593 103.746 42.543C103.722 42.2266 104.233 41.9833 104.841 41.9833ZM137.058 41.9833H166.209C166.818 41.9833 167.304 42.2266 167.304 42.543C167.304 42.835 166.793 43.1026 166.209 43.1026H137.058C136.45 43.1026 135.963 42.8593 135.963 42.543C135.963 42.2266 136.45 41.9833 137.058 41.9833ZM153.702 36.8247H166.282C166.891 36.8247 167.377 37.068 167.377 37.3843C167.377 37.6763 166.866 37.944 166.282 37.944H153.702C153.094 37.944 152.607 37.7006 152.607 37.3843C152.607 37.068 153.094 36.8247 153.702 36.8247ZM79.7537 79.8701H171.782C172.39 79.8701 172.877 80.1134 172.877 80.4297C172.877 80.7217 172.366 80.9894 171.782 80.9894H79.7537C79.1454 80.9894 78.6587 80.7461 78.6587 80.4297C78.6587 80.1134 79.1454 79.8701 79.7537 79.8701ZM80.2403 85.0287H123.626C124.235 85.0287 124.721 85.272 124.721 85.5884C124.721 85.8804 124.21 86.148 123.626 86.148H80.2403C79.632 86.148 79.1454 85.9047 79.1454 85.5884C79.1454 85.272 79.632 85.0287 80.2403 85.0287ZM80.654 90.1873H107.737C108.345 90.1873 108.832 90.4307 108.832 90.747C108.832 91.039 108.345 91.3067 107.737 91.3067H80.654C80.0457 91.3067 79.559 91.0634 79.559 90.747C79.559 90.4307 80.0457 90.1873 80.654 90.1873ZM112.895 90.1873H174.166C174.775 90.1873 175.261 90.4307 175.261 90.747C175.261 91.039 174.75 91.3067 174.166 91.3067H112.895C112.287 91.3067 111.8 91.0634 111.8 90.747C111.776 90.4307 112.287 90.1873 112.895 90.1873ZM129.539 85.0287H173.217C173.826 85.0287 174.312 85.272 174.312 85.5884C174.312 85.8804 173.801 86.148 173.217 86.148H129.539C128.931 86.148 128.444 85.9047 128.444 85.5884C128.42 85.272 128.931 85.0287 129.539 85.0287ZM86.202 108.608H113.285C113.893 108.608 114.38 108.851 114.38 109.167C114.38 109.459 113.893 109.727 113.285 109.727H86.202C85.5936 109.727 85.107 109.484 85.107 109.167C85.0827 108.851 85.5936 108.608 86.202 108.608ZM118.419 108.608H179.69C180.298 108.608 180.785 108.851 180.785 109.167C180.785 109.459 180.274 109.727 179.69 109.727H118.419C117.811 109.727 117.324 109.484 117.324 109.167C117.324 108.851 117.811 108.608 118.419 108.608ZM86.6886 114.156H113.771C114.38 114.156 114.866 114.399 114.866 114.715C114.866 115.007 114.38 115.275 113.771 115.275H86.6886C86.0803 115.275 85.5936 115.032 85.5936 114.715C85.5936 114.399 86.0803 114.156 86.6886 114.156ZM118.93 114.156H180.201C180.809 114.156 181.296 114.399 181.296 114.715C181.296 115.007 180.785 115.275 180.201 115.275H118.93C118.322 115.275 117.835 115.032 117.835 114.715C117.835 114.399 118.322 114.156 118.93 114.156ZM87.9053 119.679H114.988C115.596 119.679 116.083 119.923 116.083 120.239C116.083 120.531 115.596 120.799 114.988 120.799H87.9053C87.297 120.799 86.8103 120.555 86.8103 120.239C86.786 119.947 87.297 119.679 87.9053 119.679ZM120.122 119.679H181.393C182.002 119.679 182.488 119.923 182.488 120.239C182.488 120.531 181.977 120.799 181.393 120.799H120.122C119.514 120.799 119.027 120.555 119.027 120.239C119.027 119.947 119.514 119.679 120.122 119.679ZM95.2053 144.523H122.288C122.896 144.523 123.383 144.767 123.383 145.083C123.383 145.375 122.896 145.643 122.288 145.643H95.2053C94.5969 145.643 94.1103 145.399 94.1103 145.083C94.0859 144.791 94.5969 144.523 95.2053 144.523ZM127.422 144.523H188.693C189.302 144.523 189.788 144.767 189.788 145.083C189.788 145.375 189.277 145.643 188.693 145.643H127.422C126.814 145.643 126.327 145.399 126.327 145.083C126.327 144.791 126.814 144.523 127.422 144.523Z" fill="#88B9E3"/>
<path fill-rule="evenodd" clip-rule="evenodd" d="M157.79 207.06L156.063 180.634C155.892 178.152 153.727 176.108 151.245 176.108H124.819C122.337 176.108 120.414 178.152 120.585 180.634L122.312 207.06C122.483 209.542 124.648 211.586 127.13 211.586H153.556C156.063 211.586 157.961 209.542 157.79 207.06Z" fill="white"/>
<path fill-rule="evenodd" clip-rule="evenodd" d="M157.425 207.084L155.698 180.658C155.625 179.514 155.089 178.468 154.286 177.689C153.483 176.935 152.388 176.448 151.245 176.448H124.819C124.721 176.448 124.624 176.448 124.551 176.448C123.529 176.521 122.629 176.959 121.972 177.665C121.339 178.346 120.95 179.295 120.95 180.317C120.95 180.415 120.95 180.512 120.95 180.585L122.677 207.011C122.75 208.154 123.286 209.201 124.089 209.979C124.892 210.734 125.987 211.22 127.13 211.22H153.556C153.654 211.22 153.751 211.22 153.824 211.22C154.846 211.147 155.746 210.709 156.403 210.004C157.036 209.322 157.425 208.373 157.425 207.351C157.45 207.254 157.45 207.157 157.425 207.084ZM156.428 180.609L158.155 207.035C158.155 207.133 158.155 207.254 158.155 207.351C158.155 208.568 157.693 209.687 156.914 210.49C156.136 211.318 155.065 211.853 153.848 211.926C153.751 211.926 153.629 211.926 153.532 211.926H127.13C125.792 211.926 124.527 211.366 123.602 210.49C122.653 209.614 122.045 208.398 121.947 207.06L120.22 180.634C120.22 180.536 120.22 180.415 120.22 180.317C120.22 179.101 120.682 177.981 121.461 177.178C122.239 176.351 123.31 175.816 124.527 175.743C124.624 175.743 124.746 175.743 124.843 175.743H151.269C152.607 175.743 153.873 176.278 154.797 177.178C155.722 178.054 156.355 179.271 156.428 180.609Z" fill="#88B9E3"/>
<path fill-rule="evenodd" clip-rule="evenodd" d="M153.873 217.085H127.447C124.965 217.085 123.043 219.129 123.213 221.611L124.503 241.515C124.6 241.613 124.722 241.686 124.819 241.807L127.861 242.513C131.024 243.219 135.599 243.997 141.122 244.752C146.67 245.53 153.216 246.285 160.321 246.917L158.667 221.587C158.545 219.129 156.379 217.085 153.873 217.085Z" fill="white"/>
<path fill-rule="evenodd" clip-rule="evenodd" d="M153.872 217.45H127.446C127.349 217.45 127.252 217.45 127.179 217.45C126.157 217.523 125.256 217.961 124.599 218.666C123.967 219.348 123.577 220.297 123.577 221.319C123.577 221.416 123.577 221.513 123.577 221.586L124.867 241.345L124.916 241.369L125.013 241.442L127.982 242.148C129.588 242.488 131.559 242.878 133.822 243.267C136.012 243.632 138.494 244.021 141.219 244.386C144.066 244.776 147.181 245.165 150.49 245.554C153.507 245.895 156.695 246.236 159.98 246.528L158.35 221.635C158.277 220.491 157.741 219.445 156.914 218.666C156.111 217.912 155.04 217.45 153.872 217.45ZM127.446 216.72H153.872C155.211 216.72 156.476 217.255 157.401 218.155C158.35 219.031 158.958 220.248 159.055 221.586L160.71 246.917L160.734 247.331L160.321 247.282C156.841 246.966 153.532 246.625 150.417 246.26C147.083 245.895 143.969 245.481 141.122 245.092C138.396 244.727 135.914 244.338 133.7 243.948C131.413 243.559 129.442 243.194 127.836 242.829L124.794 242.123L124.624 242.026L124.478 241.88L124.332 241.734L124.21 241.637V241.491L122.92 221.586C122.92 221.489 122.92 221.367 122.92 221.27C122.92 220.053 123.383 218.934 124.161 218.131C124.94 217.304 126.011 216.768 127.227 216.695C127.252 216.72 127.349 216.72 127.446 216.72Z" fill="#88B9E3"/>
<path fill-rule="evenodd" clip-rule="evenodd" d="M170.589 221.611L172.293 247.866C183.802 248.621 196.115 249.01 207.771 248.669C207.795 248.45 207.795 248.231 207.771 248.012L206.043 221.587C205.873 219.105 203.707 217.061 201.225 217.061H174.823C172.341 217.085 170.443 219.129 170.589 221.611Z" fill="white"/>
<path fill-rule="evenodd" clip-rule="evenodd" d="M170.954 221.586L172.633 247.526C178.57 247.915 184.702 248.207 190.81 248.329C196.382 248.45 201.979 248.475 207.43 248.329V248.061L205.702 221.635C205.629 220.491 205.094 219.445 204.291 218.666C203.488 217.912 202.393 217.425 201.249 217.425H174.823C174.726 217.425 174.628 217.425 174.555 217.425C173.534 217.498 172.633 217.936 171.976 218.642C171.344 219.323 170.954 220.272 170.954 221.294C170.954 221.416 170.954 221.513 170.954 221.586ZM171.952 247.891L170.249 221.635C170.249 221.538 170.249 221.416 170.249 221.319C170.249 220.102 170.711 218.983 171.49 218.18C172.268 217.352 173.339 216.817 174.555 216.744C174.653 216.744 174.775 216.744 174.872 216.744H201.298C202.636 216.744 203.901 217.279 204.826 218.18C205.775 219.056 206.383 220.272 206.481 221.611L208.208 248.037C208.208 248.158 208.208 248.256 208.208 248.377C208.208 248.499 208.208 248.621 208.184 248.718L208.16 249.034H207.843C202.271 249.18 196.553 249.18 190.859 249.059C184.581 248.913 178.351 248.621 172.317 248.231L172.001 248.207L171.952 247.891Z" fill="#88B9E3"/>
<path fill-rule="evenodd" clip-rule="evenodd" d="M174.507 211.586H200.933C203.415 211.586 205.337 209.542 205.167 207.06L203.439 180.634C203.269 178.152 201.103 176.108 198.621 176.108H172.196C169.714 176.108 167.791 178.152 167.962 180.634L169.689 207.06C169.86 209.542 172.025 211.586 174.507 211.586Z" fill="white"/>
<path fill-rule="evenodd" clip-rule="evenodd" d="M174.507 211.221H200.933C201.03 211.221 201.127 211.221 201.2 211.221C202.222 211.148 203.123 210.71 203.78 210.028C204.412 209.347 204.802 208.398 204.802 207.376C204.802 207.279 204.802 207.181 204.802 207.108L203.074 180.682C203.001 179.539 202.466 178.492 201.638 177.714C200.835 176.959 199.74 176.473 198.597 176.473H172.195C172.098 176.473 172 176.473 171.927 176.473C170.906 176.546 170.005 176.984 169.348 177.689C168.716 178.371 168.326 179.32 168.326 180.342C168.326 180.439 168.326 180.536 168.326 180.609L170.054 207.035C170.127 208.179 170.662 209.225 171.49 210.004C172.292 210.734 173.363 211.221 174.507 211.221ZM200.933 211.951H174.507C173.168 211.951 171.903 211.391 170.979 210.515C170.03 209.639 169.421 208.422 169.324 207.084L167.596 180.658C167.596 180.561 167.596 180.439 167.596 180.342C167.596 179.125 168.059 178.006 168.837 177.203C169.616 176.375 170.687 175.84 171.903 175.767C172.001 175.767 172.122 175.767 172.219 175.767H198.621C199.959 175.767 201.225 176.302 202.149 177.203C203.098 178.079 203.707 179.295 203.804 180.634L205.532 207.06C205.532 207.157 205.532 207.279 205.532 207.376C205.532 208.593 205.069 209.712 204.291 210.515C203.512 211.342 202.441 211.878 201.225 211.951C201.152 211.951 201.054 211.951 200.933 211.951Z" fill="#88B9E3"/>
<path fill-rule="evenodd" clip-rule="evenodd" d="M153.581 205.916H128.834L128.152 192.338H152.899L153.581 205.916Z" fill="#BCDBF3"/>
<path fill-rule="evenodd" clip-rule="evenodd" d="M152.851 194.893H128.104L128.006 192.825H152.753L152.851 194.893Z" fill="#88B9E3"/>
<path fill-rule="evenodd" clip-rule="evenodd" d="M127.374 193.555H153.483L149.59 183.967H129.953L127.374 193.555Z" fill="#C1DDF3"/>
<path fill-rule="evenodd" clip-rule="evenodd" d="M153.507 194.066H127.398L127.374 193.506H153.483L153.507 194.066Z" fill="#A4CCEC"/>
<path fill-rule="evenodd" clip-rule="evenodd" d="M149.833 203.239H144.845L144.456 196.085H149.468L149.833 203.239Z" fill="#88B9E3"/>
<path fill-rule="evenodd" clip-rule="evenodd" d="M149.395 199.541H148.105L147.935 196.304H149.249L149.395 199.541Z" fill="#BCDBF3"/>
<path fill-rule="evenodd" clip-rule="evenodd" d="M147.813 199.541H146.499L146.329 196.304H147.643L147.813 199.541Z" fill="#BCDBF3"/>
<path fill-rule="evenodd" clip-rule="evenodd" d="M146.207 199.541H144.869L144.699 196.304H146.037L146.207 199.541Z" fill="#BCDBF3"/>
<path fill-rule="evenodd" clip-rule="evenodd" d="M149.59 203.02H148.3L148.13 199.76H149.42L149.59 203.02Z" fill="#BCDBF3"/>
<path fill-rule="evenodd" clip-rule="evenodd" d="M147.984 203.02H146.67L146.5 199.76H147.838L147.984 203.02Z" fill="#BCDBF3"/>
<path fill-rule="evenodd" clip-rule="evenodd" d="M146.378 203.02H145.064L144.894 199.76H146.208L146.378 203.02Z" fill="#BCDBF3"/>
<path fill-rule="evenodd" clip-rule="evenodd" d="M149.054 196.621H147.959L147.935 196.304H149.249L149.395 199.541H149.2L149.054 196.621Z" fill="#B0C2E4"/>
<path fill-rule="evenodd" clip-rule="evenodd" d="M147.473 196.621H146.353L146.329 196.304H147.643L147.813 199.541H147.619L147.473 196.621Z" fill="#B0C2E4"/>
<path fill-rule="evenodd" clip-rule="evenodd" d="M145.842 196.621H144.723L144.699 196.304H146.037L146.207 199.541H145.988L145.842 196.621Z" fill="#B0C2E4"/>
<path fill-rule="evenodd" clip-rule="evenodd" d="M149.225 200.1H148.13V199.76H149.42L149.59 203.02H149.395L149.225 200.1Z" fill="#B0C2E4"/>
<path fill-rule="evenodd" clip-rule="evenodd" d="M147.643 200.1H146.524L146.5 199.76H147.838L147.984 203.02H147.789L147.643 200.1Z" fill="#B0C2E4"/>
<path fill-rule="evenodd" clip-rule="evenodd" d="M146.013 200.1H144.894V199.76H146.208L146.378 203.02H146.183L146.013 200.1Z" fill="#B0C2E4"/>
<path fill-rule="evenodd" clip-rule="evenodd" d="M150.271 195.647H130.415L130.342 194.065H150.174L150.271 195.647Z" fill="#88B9E3"/>
<path fill-rule="evenodd" clip-rule="evenodd" d="M150.295 196.061H130.439L130.415 195.574H150.271L150.295 196.061Z" fill="white"/>
<path fill-rule="evenodd" clip-rule="evenodd" d="M143.555 206.427H138.543L138.007 196.085H143.02L143.555 206.427Z" fill="#88B9E3"/>
<path fill-rule="evenodd" clip-rule="evenodd" d="M142.899 198.348H141.609L141.487 196.304H142.801L142.899 198.348Z" fill="#BCDBF3"/>
<path fill-rule="evenodd" clip-rule="evenodd" d="M141.317 198.348H139.978L139.881 196.304H141.195L141.317 198.348Z" fill="#BCDBF3"/>
<path fill-rule="evenodd" clip-rule="evenodd" d="M139.687 198.348H138.373L138.251 196.304H139.589L139.687 198.348Z" fill="#BCDBF3"/>
<path fill-rule="evenodd" clip-rule="evenodd" d="M142.971 199.735H141.681L141.608 198.567H142.898L142.971 199.735Z" fill="#BCDBF3"/>
<path fill-rule="evenodd" clip-rule="evenodd" d="M141.366 199.735H140.052L140.003 198.567H141.317L141.366 199.735Z" fill="#BCDBF3"/>
<path fill-rule="evenodd" clip-rule="evenodd" d="M139.76 199.735H138.446L138.373 198.567H139.687L139.76 199.735Z" fill="#BCDBF3"/>
<path fill-rule="evenodd" clip-rule="evenodd" d="M142.607 196.621H141.512L141.487 196.304H142.801L142.899 198.348H142.704L142.607 196.621Z" fill="#A4CCEC"/>
<path fill-rule="evenodd" clip-rule="evenodd" d="M141.025 196.621H139.905L139.881 196.304H141.195L141.317 198.348H141.098L141.025 196.621Z" fill="#A4CCEC"/>
<path fill-rule="evenodd" clip-rule="evenodd" d="M139.395 196.621H138.275L138.251 196.304H139.589L139.687 198.348H139.492L139.395 196.621Z" fill="#A4CCEC"/>
<path fill-rule="evenodd" clip-rule="evenodd" d="M142.728 198.884H141.633L141.608 198.567H142.898L142.971 199.735H142.776L142.728 198.884Z" fill="#A4CCEC"/>
<path fill-rule="evenodd" clip-rule="evenodd" d="M141.122 198.884H140.003V198.567H141.317L141.366 199.735H141.171L141.122 198.884Z" fill="#A4CCEC"/>
<path fill-rule="evenodd" clip-rule="evenodd" d="M139.516 198.884H138.397L138.373 198.567H139.687L139.76 199.735H139.565L139.516 198.884Z" fill="#A4CCEC"/>
<path fill-rule="evenodd" clip-rule="evenodd" d="M143.044 201.171H141.755L141.682 200.003H142.971L143.044 201.171Z" fill="#BCDBF3"/>
<path fill-rule="evenodd" clip-rule="evenodd" d="M141.463 201.171H140.124L140.076 200.003H141.39L141.463 201.171Z" fill="#BCDBF3"/>
<path fill-rule="evenodd" clip-rule="evenodd" d="M139.832 201.171H138.518L138.445 200.003H139.759L139.832 201.171Z" fill="#BCDBF3"/>
<path fill-rule="evenodd" clip-rule="evenodd" d="M142.801 200.319H141.706L141.682 200.003H142.971L143.044 201.171H142.85L142.801 200.319Z" fill="#A4CCEC"/>
<path fill-rule="evenodd" clip-rule="evenodd" d="M141.195 200.319H140.076V200.003H141.39L141.463 201.171H141.244L141.195 200.319Z" fill="#A4CCEC"/>
<path fill-rule="evenodd" clip-rule="evenodd" d="M139.589 200.319H138.47L138.445 200.003H139.759L139.832 201.171H139.638L139.589 200.319Z" fill="#A4CCEC"/>
<path fill-rule="evenodd" clip-rule="evenodd" d="M143.117 202.606H141.827L141.754 201.414H143.044L143.117 202.606Z" fill="#BCDBF3"/>
<path fill-rule="evenodd" clip-rule="evenodd" d="M141.535 202.606H140.197L140.148 201.414H141.462L141.535 202.606Z" fill="#BCDBF3"/>
<path fill-rule="evenodd" clip-rule="evenodd" d="M139.906 202.606H138.592L138.519 201.414H139.833L139.906 202.606Z" fill="#BCDBF3"/>
<path fill-rule="evenodd" clip-rule="evenodd" d="M142.874 201.755H141.779L141.754 201.414H143.044L143.117 202.606H142.922L142.874 201.755Z" fill="#A4CCEC"/>
<path fill-rule="evenodd" clip-rule="evenodd" d="M141.292 201.755H140.148V201.414H141.462L141.535 202.606H141.316L141.292 201.755Z" fill="#A4CCEC"/>
<path fill-rule="evenodd" clip-rule="evenodd" d="M139.662 201.755H138.543L138.519 201.414H139.833L139.906 202.606H139.711L139.662 201.755Z" fill="#A4CCEC"/>
<path fill-rule="evenodd" clip-rule="evenodd" d="M143.288 206.184H141.998L141.828 202.875H143.117L143.288 206.184Z" fill="#BCDBF3"/>
<path fill-rule="evenodd" clip-rule="evenodd" d="M141.706 206.184H140.392L140.222 202.875H141.536L141.706 206.184Z" fill="#BCDBF3"/>
<path fill-rule="evenodd" clip-rule="evenodd" d="M140.076 206.184H138.762L138.591 202.875H139.905L140.076 206.184Z" fill="#BCDBF3"/>
<path fill-rule="evenodd" clip-rule="evenodd" d="M142.947 203.191H141.852L141.828 202.875H143.117L143.288 206.184H143.093L142.947 203.191Z" fill="#A4CCEC"/>
<path fill-rule="evenodd" clip-rule="evenodd" d="M141.365 203.191H140.222V202.875H141.536L141.706 206.184H141.511L141.365 203.191Z" fill="#A4CCEC"/>
<path fill-rule="evenodd" clip-rule="evenodd" d="M139.735 203.191H138.616L138.591 202.875H139.905L140.076 206.184H139.881L139.735 203.191Z" fill="#A4CCEC"/>
<path fill-rule="evenodd" clip-rule="evenodd" d="M136.791 203.239H131.778L131.413 196.085H136.426L136.791 203.239Z" fill="#88B9E3"/>
<path fill-rule="evenodd" clip-rule="evenodd" d="M136.353 199.541H135.063L134.893 196.304H136.182L136.353 199.541Z" fill="#BCDBF3"/>
<path fill-rule="evenodd" clip-rule="evenodd" d="M134.771 199.541H133.433L133.262 196.304H134.601L134.771 199.541Z" fill="#BCDBF3"/>
<path fill-rule="evenodd" clip-rule="evenodd" d="M133.141 199.541H131.827L131.656 196.304H132.97L133.141 199.541Z" fill="#BCDBF3"/>
<path fill-rule="evenodd" clip-rule="evenodd" d="M136.523 203.02H135.233L135.063 199.76H136.353L136.523 203.02Z" fill="#BCDBF3"/>
<path fill-rule="evenodd" clip-rule="evenodd" d="M134.941 203.02H133.627L133.457 199.76H134.771L134.941 203.02Z" fill="#BCDBF3"/>
<path fill-rule="evenodd" clip-rule="evenodd" d="M133.311 203.02H131.997L131.827 199.76H133.165L133.311 203.02Z" fill="#BCDBF3"/>
<path fill-rule="evenodd" clip-rule="evenodd" d="M136.012 196.621H134.917L134.893 196.304H136.182L136.353 199.541H136.158L136.012 196.621Z" fill="#A4CCEC"/>
<path fill-rule="evenodd" clip-rule="evenodd" d="M134.406 196.621H133.287L133.262 196.304H134.601L134.771 199.541H134.552L134.406 196.621Z" fill="#A4CCEC"/>
<path fill-rule="evenodd" clip-rule="evenodd" d="M132.8 196.621H131.681L131.656 196.304H132.97L133.141 199.541H132.946L132.8 196.621Z" fill="#A4CCEC"/>
<path fill-rule="evenodd" clip-rule="evenodd" d="M136.182 200.1H135.087L135.063 199.76H136.353L136.523 203.02H136.328L136.182 200.1Z" fill="#A4CCEC"/>
<path fill-rule="evenodd" clip-rule="evenodd" d="M134.6 200.1H133.457V199.76H134.771L134.941 203.02H134.746L134.6 200.1Z" fill="#A4CCEC"/>
<path fill-rule="evenodd" clip-rule="evenodd" d="M132.97 200.1H131.851L131.827 199.76H133.165L133.311 203.02H133.116L132.97 200.1Z" fill="#A4CCEC"/>
<path fill-rule="evenodd" clip-rule="evenodd" d="M150.612 206.573H150.052L149.517 195.866H150.052L150.612 206.573Z" fill="white"/>
<path fill-rule="evenodd" clip-rule="evenodd" d="M144.553 206.476H144.018L143.458 195.769H144.018L144.553 206.476Z" fill="white"/>
<path fill-rule="evenodd" clip-rule="evenodd" d="M137.886 206.476H137.35L136.791 195.769H137.35L137.886 206.476Z" fill="white"/>
<path fill-rule="evenodd" clip-rule="evenodd" d="M131.754 206.476H131.194L130.659 195.769H131.194L131.754 206.476Z" fill="white"/>
<path fill-rule="evenodd" clip-rule="evenodd" d="M144.674 206.037H145.088L144.966 203.848H144.553L144.674 206.037ZM145.21 206.037H145.623L145.502 203.848H145.088L145.21 206.037ZM145.769 206.037H146.183L146.061 203.848H145.648L145.769 206.037ZM146.329 206.037H146.743L146.621 203.848H146.207L146.329 206.037ZM146.864 206.037H147.278L147.156 203.848H146.743L146.864 206.037ZM147.424 206.037H147.838L147.716 203.848H147.302L147.424 206.037ZM147.984 206.037H148.397L148.276 203.848H147.862L147.984 206.037ZM148.543 206.037H148.957L148.835 203.848H148.422L148.543 206.037ZM149.079 206.037H149.492L149.371 203.848H148.981L149.079 206.037ZM149.638 206.037H150.052L149.93 203.848H149.517L149.638 206.037ZM150.028 203.361L150.174 206.354H144.48L144.334 203.361H150.028ZM131.802 206.037H132.216L132.094 203.848H131.705L131.802 206.037ZM132.362 206.037H132.776L132.654 203.848H132.24L132.362 206.037ZM132.922 206.037H133.335L133.214 203.848H132.8L132.922 206.037ZM133.457 206.037H133.871L133.749 203.848H133.335L133.457 206.037ZM134.016 206.037H134.43L134.308 203.848H133.895L134.016 206.037ZM134.576 206.037H134.99L134.868 203.848H134.454L134.576 206.037ZM135.136 206.037H135.549L135.428 203.848H135.014L135.136 206.037ZM135.671 206.037H136.085L135.963 203.848H135.549L135.671 206.037ZM136.231 206.037H136.644L136.523 203.848H136.109L136.231 206.037ZM136.79 206.037H137.204L137.082 203.848H136.669L136.79 206.037ZM137.18 203.361L137.326 206.354H131.632L131.486 203.361H137.18Z" fill="white"/>
<path fill-rule="evenodd" clip-rule="evenodd" d="M154.164 206.986H127.69L127.666 206.402H154.14L154.164 206.986Z" fill="#88B9E3"/>
<path fill-rule="evenodd" clip-rule="evenodd" d="M137.836 223.63H138.639L138.615 223.022C138.591 222.365 139.102 221.83 139.759 221.83H145.039C145.696 221.83 146.256 222.365 146.28 223.022L146.304 223.582H147.107L147.083 223.022C147.059 221.927 146.134 221.027 145.039 221.027H139.759C138.664 221.027 137.788 221.927 137.836 223.022V223.63Z" fill="#5E9BD3"/>
<path fill-rule="evenodd" clip-rule="evenodd" d="M145.77 224.458C145.77 224.604 145.891 224.726 146.037 224.726H147.4C147.546 224.726 147.668 224.604 147.668 224.458L147.643 223.582C147.643 223.436 147.522 223.314 147.376 223.314H146.013C145.867 223.314 145.745 223.436 145.745 223.582L145.77 224.458ZM137.277 224.458C137.277 224.604 137.399 224.726 137.545 224.726H138.908C139.054 224.726 139.175 224.604 139.175 224.458L139.151 223.582C139.151 223.436 139.029 223.314 138.883 223.314H137.521C137.375 223.314 137.253 223.436 137.253 223.582L137.277 224.458Z" fill="#88B9E3"/>
<path fill-rule="evenodd" clip-rule="evenodd" d="M131.194 239.471C131.218 240.347 131.948 241.053 132.848 241.053H153.118C153.994 241.053 154.675 240.347 154.651 239.471L154.189 225.163C154.164 224.725 153.799 224.36 153.361 224.36H131.486C131.048 224.36 130.707 224.725 130.707 225.163L131.194 239.471Z" fill="#C1DDF3"/>
<path fill-rule="evenodd" clip-rule="evenodd" d="M131.558 225.139H153.434C153.872 225.139 154.237 225.504 154.261 225.942L154.407 230.711C154.456 232.463 153.093 233.899 151.317 233.899H143.92L143.944 234.726C143.968 235.383 143.457 235.919 142.8 235.919C142.143 235.919 141.584 235.383 141.559 234.726L141.535 233.899H134.211C132.459 233.899 130.974 232.463 130.926 230.711L130.78 225.942C130.78 225.504 131.12 225.139 131.558 225.139Z" fill="#88B9E3"/>
<path fill-rule="evenodd" clip-rule="evenodd" d="M130.926 229.908C130.974 231.66 132.459 233.096 134.211 233.096H151.317C153.069 233.096 154.456 231.66 154.407 229.908L154.261 225.139C154.237 224.701 153.872 224.336 153.434 224.336H131.558C131.12 224.336 130.78 224.701 130.78 225.139L130.926 229.908Z" fill="#BCDBF3"/>
<path fill-rule="evenodd" clip-rule="evenodd" d="M141.56 233.923C141.584 234.58 142.144 235.116 142.801 235.116C143.458 235.116 143.969 234.58 143.945 233.923L143.896 232.025H141.511L141.56 233.923Z" fill="#5E9BD3"/>
<path fill-rule="evenodd" clip-rule="evenodd" d="M141.803 233.826C141.827 234.337 142.241 234.751 142.752 234.751C143.263 234.751 143.677 234.337 143.652 233.826L143.604 232.342H141.754L141.803 233.826Z" fill="#C1DDF3"/>
<path fill-rule="evenodd" clip-rule="evenodd" d="M141.754 233.413H143.798V233.096H141.754V233.413Z" fill="#5E9BD3"/>
<path fill-rule="evenodd" clip-rule="evenodd" d="M128.201 248.158L124.502 247.964C122.994 250.397 120.731 252.636 117.713 252.855C118.93 253.293 119.806 253.366 120.95 253.366C123.724 253.414 126.522 253.439 129.296 253.439C129.223 251.614 128.858 249.886 128.201 248.158ZM127.812 247.209L124.259 247.015C124.089 247.015 123.918 247.088 123.821 247.234C122.093 250.154 119.295 252.66 115.669 251.711L115.596 251.687C113.601 250.202 112.165 247.526 112.968 245.044C114.404 240.518 118.054 239.131 122.385 240.688C122.507 241.053 123.115 241.418 124.162 241.807C124.478 242.075 124.77 242.343 125.013 242.659C126.254 244.216 127.033 245.384 127.812 247.209ZM115.645 252.879C117.154 253.828 118.76 254.266 120.487 254.29C123.432 254.29 126.4 254.363 129.369 254.363C129.272 261.834 123.967 267.503 118.103 271.469C107.323 271.299 103.089 257.819 101.191 240.664C100.145 231.295 99.8284 220.856 99.4877 210.855C99.0497 197.253 98.6361 184.478 96.5191 176.327C93.1368 163.235 78.9749 155.984 72.6239 144.426C70.2393 140.07 68.0006 128.974 66.0053 115.104C63.9856 101.186 62.2093 84.5663 60.7493 69.1634C60.5546 67.0707 60.4086 64.1507 60.2626 60.7441C59.5083 44.3678 58.243 16.482 46.4171 10.8124H167.134H167.183C179.276 9.47405 183.145 22.7356 184.581 35.6322C185.141 40.7179 185.335 45.7305 185.481 49.8185C185.579 52.3248 185.652 54.4661 185.798 56.0721C187.282 72.497 189.18 92.1339 191.419 108.924C193.657 125.762 196.212 139.754 199.035 144.864C201.76 149.852 205.897 154.013 210.009 158.174C215.508 163.746 220.983 169.27 222.857 176.546C224.925 184.6 225.339 197.326 225.777 210.88C226.166 223.022 226.58 235.821 228.259 246.577C201.03 250.056 163.314 247.209 141.195 244.143C135.671 243.365 131.097 242.586 127.933 241.905C126.668 241.637 125.646 241.394 124.892 241.199C124.356 240.712 123.87 240.347 123.48 240.177C123.432 240.153 123.334 240.104 123.286 240.08C118.37 238.06 113.844 239.52 112.141 244.825C111.095 247.915 113.017 251.2 115.645 252.879ZM126.011 242.416C126.522 242.537 127.082 242.683 127.69 242.805C130.878 243.511 135.452 244.289 141.025 245.068C162.462 248.037 198.548 250.811 225.655 247.818C231.179 247.209 226.239 247.988 234.026 246.65C237.53 246.041 240.815 245.311 243.808 244.435C246.071 243.778 247.604 243.097 248.772 242.562C251.595 241.296 252.057 241.077 256.437 245.36C261.449 250.251 264.15 254.777 264.053 259.06C263.956 263.294 261.06 267.357 254.904 271.372H246.168C242.032 271.372 239.988 271.372 237.311 271.372H119.903H119.83C127.179 266.019 129.88 260.374 130.245 255.361C130.586 250.835 128.931 245.944 126.011 242.416ZM42.9131 10.788C37.6084 11.1044 34.4695 15.095 33.5935 20.0833C33.1068 22.8816 33.3015 26.0449 34.2748 29.1596C35.6861 33.7099 38.7034 38.1629 43.4727 41.3019H57.951C56.2963 26.6046 52.5977 12.029 43.0834 10.861C43.0347 10.8124 42.9617 10.8124 42.9131 10.788ZM36.5134 12.5887C38.1681 11.0557 40.2851 10.1067 42.8644 9.96071C42.9374 9.91205 43.0104 9.88772 43.1077 9.88772H167.085C179.909 8.50073 183.997 22.2003 185.481 35.5592C186.041 40.6449 186.236 45.7062 186.382 49.7941C186.479 52.2761 186.552 54.4418 186.698 55.9991C188.182 72.3997 190.08 92.0122 192.319 108.802C194.533 125.519 197.088 139.413 199.814 144.402C206.14 155.984 220.326 163.211 223.709 176.302C225.826 184.454 226.239 197.229 226.677 210.831C227.067 222.949 227.48 235.748 229.135 246.431C234.415 245.725 239.306 244.752 243.565 243.511C245.755 242.878 247.263 242.197 248.407 241.686C251.716 240.201 252.276 239.958 257.118 244.679C262.325 249.74 265.124 254.509 265.026 259.06C264.905 263.634 261.863 267.965 255.391 272.175C255.318 272.248 255.196 272.272 255.098 272.272H183.559C161.781 272.272 140.027 272.37 118.249 272.37C106.715 272.345 102.237 258.451 100.266 240.737C99.2201 231.344 98.8794 220.881 98.5631 210.855C98.1251 197.302 97.7114 184.576 95.6431 176.521C93.7694 169.246 88.2945 163.722 82.7952 158.15C78.6829 153.989 74.5462 149.804 71.8209 144.84C69.3876 140.387 67.1003 129.169 65.0806 115.202C63.061 101.308 61.2846 84.6393 59.8003 69.2364C59.6056 67.1194 59.4597 64.1994 59.3137 60.7684C59.0703 55.3908 58.7783 48.7478 58.0483 42.0805L43.1321 42.0075C38.1194 38.7712 34.9561 34.0992 33.4961 29.3543C31.8171 23.928 32.0848 16.701 36.5134 12.5887Z" fill="#5E9BD3"/>
<path fill-rule="evenodd" clip-rule="evenodd" d="M185.165 182.897C178.522 182.897 173.388 188.299 173.704 194.917C174.021 201.56 179.666 206.938 186.309 206.938C192.952 206.938 198.086 201.536 197.77 194.917C197.454 188.299 191.808 182.897 185.165 182.897ZM186.358 207.96C179.179 207.96 173.072 202.12 172.731 194.942C172.39 187.763 177.963 181.923 185.141 181.923C192.319 181.923 198.427 187.763 198.768 194.942C199.108 202.12 193.536 207.96 186.358 207.96Z" fill="#88B9E3"/>
<path fill-rule="evenodd" clip-rule="evenodd" d="M185.165 182.897C181.272 182.897 178.376 188.299 178.693 194.917C179.009 201.56 182.415 206.938 186.309 206.938C190.202 206.938 193.098 201.536 192.781 194.917C192.465 188.299 189.058 182.897 185.165 182.897ZM186.357 207.96C181.929 207.96 178.036 202.12 177.695 194.942C177.354 187.763 180.688 181.923 185.116 181.923C189.545 181.923 193.438 187.763 193.779 194.942C194.12 202.12 190.786 207.96 186.357 207.96Z" fill="#88B9E3"/>
<path fill-rule="evenodd" clip-rule="evenodd" d="M185.165 182.897C184.557 182.897 183.34 186.985 183.705 194.917C184.07 202.85 185.701 206.938 186.285 206.938C186.893 206.938 188.11 202.85 187.745 194.917C187.38 186.985 185.774 182.897 185.165 182.897ZM186.358 207.96C183.973 207.96 182.951 199.443 182.732 194.942C182.513 190.44 182.756 181.923 185.141 181.923C187.526 181.923 188.548 190.44 188.767 194.942C188.961 199.443 188.742 207.96 186.358 207.96Z" fill="#88B9E3"/>
<path fill-rule="evenodd" clip-rule="evenodd" d="M173.242 195.428H198.281L198.232 194.431H173.193L173.242 195.428Z" fill="#88B9E3"/>
<path fill-rule="evenodd" clip-rule="evenodd" d="M185.555 190.853C181.467 190.853 177.549 189.758 175.091 187.909L175.675 187.13C177.963 188.858 181.637 189.88 185.53 189.88C189.448 189.88 193.074 188.834 195.191 187.082L195.848 187.86C193.536 189.71 189.691 190.853 185.555 190.853ZM195.896 202.777C193.609 201.025 189.91 199.978 185.993 199.978C182.099 199.978 178.522 201 176.405 202.728L175.748 201.949C178.036 200.1 181.856 199.005 185.944 199.005C190.081 199.005 194.023 200.124 196.48 202.022L195.896 202.777ZM185.579 186.644C182.635 186.644 179.496 185.695 179.228 183.87L180.201 183.772C180.347 184.673 182.562 185.67 185.53 185.67C188.499 185.67 190.592 184.697 190.689 183.797L191.687 183.943C191.492 185.5 188.937 186.644 185.579 186.644ZM181.053 206.086L180.055 205.989C180.177 204.164 183.194 203.215 186.139 203.215C189.497 203.215 192.173 204.358 192.49 205.94L191.516 206.086C191.346 205.186 189.156 204.212 186.187 204.212C183.243 204.188 181.126 205.186 181.053 206.086Z" fill="#88B9E3"/>
<path fill-rule="evenodd" clip-rule="evenodd" d="M189.496 228.789C189.496 228.789 191.443 225.431 195.531 225.407C199.157 225.358 201.76 228.765 201.882 232.755C202.028 237.354 198.767 242.854 190.056 247.672C181.053 243.024 177.476 237.598 177.354 232.974C177.232 228.984 179.641 225.553 183.267 225.528C187.331 225.48 189.496 228.789 189.496 228.789Z" fill="#5E9BD3"/>
<path fill-rule="evenodd" clip-rule="evenodd" d="M41.3556 162.481C41.3556 158.88 44.2756 155.96 47.8525 155.96C51.4538 155.96 54.3738 158.88 54.3738 162.481C54.3738 166.082 51.4538 168.978 47.8525 168.978C44.2512 168.978 41.3556 166.058 41.3556 162.481ZM47.8525 170.097C52.0622 170.097 55.4932 166.691 55.4932 162.457C55.4932 158.247 52.0865 154.816 47.8525 154.816C43.6429 154.816 40.2119 158.223 40.2119 162.457C40.2119 166.691 43.6429 170.097 47.8525 170.097Z" fill="white"/>
<path fill-rule="evenodd" clip-rule="evenodd" d="M47.8525 158.953C45.9059 158.953 44.3242 160.534 44.3242 162.481C44.3242 164.428 45.9059 166.009 47.8525 166.009C49.7992 166.009 51.3808 164.428 51.3808 162.481C51.3808 160.534 49.7992 158.953 47.8525 158.953Z" fill="white"/>
<path fill-rule="evenodd" clip-rule="evenodd" d="M76.2005 222.827C76.2005 218.423 79.7774 214.846 84.1818 214.846C88.5861 214.846 92.163 218.423 92.163 222.827C92.163 227.231 88.5861 230.808 84.1818 230.808C79.7774 230.808 76.2005 227.231 76.2005 222.827ZM84.1818 232.171C89.3404 232.171 93.5257 227.986 93.5257 222.803C93.5257 217.644 89.3404 213.435 84.1818 213.435C79.0231 213.435 74.8135 217.62 74.8135 222.803C74.8378 227.986 79.0231 232.171 84.1818 232.171Z" fill="white"/>
<path d="M84.1815 227.134C86.5602 227.134 88.4885 225.206 88.4885 222.827C88.4885 220.449 86.5602 218.521 84.1815 218.521C81.8028 218.521 79.8745 220.449 79.8745 222.827C79.8745 225.206 81.8028 227.134 84.1815 227.134Z" fill="white"/>
<path fill-rule="evenodd" clip-rule="evenodd" d="M314.739 131.967C314.739 127.563 318.316 123.986 322.72 123.986C327.125 123.986 330.702 127.563 330.702 131.967C330.702 136.372 327.125 139.949 322.72 139.949C318.292 139.949 314.739 136.372 314.739 131.967ZM322.72 141.311C327.879 141.311 332.064 137.126 332.064 131.943C332.064 126.784 327.879 122.575 322.72 122.575C317.562 122.575 313.352 126.76 313.352 131.943C313.352 137.126 317.537 141.311 322.72 141.311Z" fill="white"/>
<path fill-rule="evenodd" clip-rule="evenodd" d="M322.72 127.66C320.335 127.66 318.413 129.582 318.413 131.967C318.413 134.352 320.335 136.274 322.72 136.274C325.105 136.274 327.027 134.352 327.027 131.967C327.027 129.582 325.105 127.66 322.72 127.66Z" fill="white"/>
<path fill-rule="evenodd" clip-rule="evenodd" d="M300.407 173.066C300.407 170.146 302.767 167.786 305.687 167.786C308.607 167.786 310.968 170.146 310.968 173.066C310.968 175.986 308.607 178.346 305.687 178.346C302.767 178.346 300.407 175.986 300.407 173.066ZM305.687 179.271C309.118 179.271 311.892 176.497 311.892 173.066C311.892 169.635 309.118 166.861 305.687 166.861C302.256 166.861 299.482 169.635 299.482 173.066C299.482 176.472 302.281 179.271 305.687 179.271Z" fill="white"/>
<path fill-rule="evenodd" clip-rule="evenodd" d="M305.688 170.194C304.106 170.194 302.816 171.484 302.816 173.066C302.816 174.647 304.106 175.937 305.688 175.937C307.269 175.937 308.559 174.647 308.559 173.066C308.559 171.484 307.269 170.194 305.688 170.194Z" fill="white"/>
<path fill-rule="evenodd" clip-rule="evenodd" d="M211.371 58.1405C211.371 55.2205 213.732 52.8602 216.652 52.8602C219.572 52.8602 221.932 55.2205 221.932 58.1405C221.932 61.0605 219.572 63.4208 216.652 63.4208C213.732 63.4451 211.371 61.0605 211.371 58.1405ZM216.652 64.3455C220.083 64.3455 222.857 61.5715 222.857 58.1405C222.857 54.7095 220.083 51.9355 216.652 51.9355C213.221 51.9355 210.447 54.7095 210.447 58.1405C210.447 61.5715 213.221 64.3455 216.652 64.3455Z" fill="white"/>
<path fill-rule="evenodd" clip-rule="evenodd" d="M216.652 55.2935C215.07 55.2935 213.781 56.5831 213.781 58.1648C213.781 59.7464 215.07 61.0361 216.652 61.0361C218.234 61.0361 219.523 59.7464 219.523 58.1648C219.523 56.5588 218.234 55.2935 216.652 55.2935Z" fill="white"/>
</svg>
